<svg width="44" height="44" viewBox="0 0 44 44" fill="none" xmlns="http://www.w3.org/2000/svg">
<rect width="44" height="44" rx="8" fill="white"/>
<path fill-rule="evenodd" clip-rule="evenodd" d="M23.7852 3.08682C23.336 3.3057 23.3754 4.0249 23.8474 4.22198C24.5716 4.52432 25.0727 3.40941 24.3597 3.08198C24.1192 2.97147 24.0201 2.97229 23.7852 3.08682ZM16.6286 4.39848C16.1794 4.61737 16.2188 5.33657 16.6908 5.53364C17.415 5.83598 17.916 4.72107 17.2031 4.39365C16.9626 4.28314 16.8635 4.28396 16.6286 4.39848ZM31.5924 5.05431C31.1432 5.2732 31.1826 5.9924 31.6546 6.18948C32.3788 6.49181 32.8799 5.3769 32.1669 5.04948C31.9264 4.93897 31.8273 4.93979 31.5924 5.05431ZM26.5485 6.42918C26.2683 6.60134 26.0362 6.97426 26.0362 7.25225C26.0362 7.69305 26.565 8.23501 26.9958 8.23567C27.46 8.23649 27.987 7.70953 27.9877 7.24389C27.9878 7.12658 27.9046 6.90573 27.8026 6.75316C27.4743 6.26203 27.0138 6.14308 26.5485 6.42918ZM6.10334 7.8084C5.75242 7.99318 5.62669 8.11992 5.44339 8.47366C5.15419 9.03177 5.15419 9.40772 5.44339 9.96584C5.62669 10.3196 5.75242 10.4463 6.10334 10.6311C6.657 10.9226 7.02996 10.9226 7.58362 10.6311C7.93453 10.4463 8.06026 10.3196 8.24357 9.96584C8.53276 9.40772 8.53276 9.03177 8.24357 8.47366C8.06026 8.11992 7.93453 7.99318 7.58362 7.8084C7.02996 7.51688 6.657 7.51688 6.10334 7.8084ZM12.8858 9.05251C12.6057 9.22466 12.3736 9.59759 12.3736 9.87558C12.3736 10.3164 12.9024 10.8583 13.3332 10.859C13.7974 10.8598 14.3244 10.3329 14.3251 9.86722C14.3252 9.7499 14.2419 9.52905 14.14 9.37649C13.8117 8.88535 13.3512 8.7664 12.8858 9.05251ZM21.0671 9.12006C20.7162 9.30484 20.5905 9.43158 20.4072 9.78532C20.118 10.3434 20.118 10.7194 20.4072 11.2775C20.5905 11.6312 20.7162 11.758 21.0671 11.9428C21.318 12.0748 21.6298 12.171 21.8073 12.171C21.9848 12.171 22.2966 12.0748 22.5474 11.9428C22.8983 11.758 23.0241 11.6312 23.2074 11.2775C23.3384 11.0247 23.4338 10.7104 23.4338 10.5314C23.4338 10.3524 23.3384 10.0381 23.2074 9.78532C23.0241 9.43158 22.8983 9.30484 22.5474 9.12006C21.9938 8.82854 21.6208 8.82854 21.0671 9.12006ZM33.9216 9.73211C33.531 9.93067 33.1928 10.4538 33.1928 10.8593C33.1928 10.9755 33.2751 11.2351 33.3758 11.4363C33.5727 11.83 34.0917 12.171 34.494 12.171C34.8963 12.171 35.4152 11.83 35.6122 11.4363C35.7129 11.2351 35.7952 10.9755 35.7952 10.8593C35.7952 10.4538 35.457 9.93067 35.0664 9.73211C34.8668 9.63071 34.6092 9.54766 34.494 9.54766C34.3788 9.54766 34.1212 9.63071 33.9216 9.73211ZM28.5003 11.6758C28.2201 11.848 27.988 12.2209 27.988 12.4989C27.988 12.9397 28.5168 13.4817 28.9476 13.4823C29.4118 13.4831 29.9388 12.9562 29.9395 12.4905C29.9396 12.3732 29.8564 12.1524 29.7544 11.9998C29.4261 11.5087 28.9656 11.3897 28.5003 11.6758ZM16.6286 12.9243C16.1794 13.1432 16.2188 13.8624 16.6908 14.0595C17.415 14.3618 17.916 13.2469 17.2031 12.9195C16.9626 12.8089 16.8635 12.8098 16.6286 12.9243ZM3.61658 14.8918C3.16742 15.1107 3.20678 15.8299 3.67879 16.0269C4.40299 16.3293 4.90404 15.2144 4.19106 14.887C3.95058 14.7764 3.85153 14.7773 3.61658 14.8918ZM8.82138 14.8918C8.37223 15.1107 8.41159 15.8299 8.8836 16.0269C9.6078 16.3293 10.1088 15.2144 9.39586 14.887C9.15539 14.7764 9.05633 14.7773 8.82138 14.8918ZM23.9461 14.955C23.6659 15.1271 23.4338 15.5001 23.4338 15.7781C23.4338 16.2189 23.9626 16.7608 24.3934 16.7615C24.8576 16.7623 25.3846 16.2353 25.3853 15.7697C25.3854 15.6524 25.3022 15.4315 25.2002 15.279C24.8719 14.7878 24.4114 14.6689 23.9461 14.955ZM12.8858 16.9225C12.6057 17.0946 12.3736 17.4676 12.3736 17.7456C12.3736 18.1864 12.9024 18.7283 13.3332 18.729C13.7974 18.7298 14.3244 18.2028 14.3251 17.7372C14.3252 17.6199 14.2419 17.399 14.14 17.2465C13.8117 16.7553 13.3512 16.6364 12.8858 16.9225ZM19.231 16.8593C18.7818 17.0782 18.8212 17.7974 19.2932 17.9944C20.0174 18.2968 20.5184 17.1819 19.8055 16.8544C19.565 16.7439 19.4659 16.7448 19.231 16.8593ZM33.0545 16.9225C32.7743 17.0946 32.5422 17.4676 32.5422 17.7456C32.5422 18.1864 33.071 18.7283 33.5018 18.729C33.966 18.7298 34.493 18.2028 34.4937 17.7372C34.4938 17.6199 34.4106 17.399 34.3086 17.2465C33.9803 16.7553 33.5198 16.6364 33.0545 16.9225ZM38.6334 16.99C38.2824 17.1748 38.1567 17.3016 37.9734 17.6553C37.8424 17.9081 37.747 18.2224 37.747 18.4014C37.747 18.5803 37.8424 18.8947 37.9734 19.1475C38.1567 19.5012 38.2824 19.628 38.6334 19.8127C38.8842 19.9448 39.196 20.041 39.3735 20.041C39.551 20.041 39.8628 19.9448 40.1136 19.8127C40.4646 19.628 40.5903 19.5012 40.7736 19.1475C40.9046 18.8947 41 18.5803 41 18.4014C41 18.2224 40.9046 17.9081 40.7736 17.6553C40.5903 17.3016 40.4646 17.1748 40.1136 16.99C39.8628 16.858 39.551 16.7618 39.3735 16.7618C39.196 16.7618 38.8842 16.858 38.6334 16.99ZM26.2719 18.9575C25.921 19.1423 25.7953 19.2691 25.612 19.6228C25.481 19.8756 25.3856 20.1899 25.3856 20.3689C25.3856 20.5478 25.481 20.8622 25.612 21.115C25.7953 21.4687 25.921 21.5955 26.2719 21.7802C26.5228 21.9123 26.8346 22.0085 27.0121 22.0085C27.1896 22.0085 27.5014 21.9123 27.7522 21.7802C28.1031 21.5955 28.2289 21.4687 28.4122 21.115C28.5432 20.8622 28.6386 20.5478 28.6386 20.3689C28.6386 20.1899 28.5432 19.8756 28.4122 19.6228C28.2289 19.2691 28.1031 19.1423 27.7522 18.9575C27.5014 18.8255 27.1896 18.7293 27.0121 18.7293C26.8346 18.7293 26.5228 18.8255 26.2719 18.9575ZM5.45274 19.6134C5.10182 19.7981 4.97609 19.9249 4.79279 20.2786C4.50359 20.8367 4.50359 21.2127 4.79279 21.7708C4.97609 22.1245 5.10182 22.2513 5.45274 22.4361C5.70354 22.5681 6.01534 22.6643 6.19288 22.6643C6.37041 22.6643 6.68221 22.5681 6.93302 22.4361C7.28393 22.2513 7.40966 22.1245 7.59297 21.7708C7.88216 21.2127 7.88216 20.8367 7.59297 20.2786C7.40966 19.9249 7.28393 19.7981 6.93302 19.6134C6.68221 19.4813 6.37041 19.3851 6.19288 19.3851C6.01534 19.3851 5.70354 19.4813 5.45274 19.6134ZM16.1388 21.5133C15.8587 21.6855 15.6266 22.0584 15.6266 22.3364C15.6266 22.7772 16.1554 23.3191 16.5862 23.3198C17.0504 23.3206 17.5774 22.7937 17.5781 22.328C17.5782 22.2107 17.4949 21.9899 17.393 21.8373C17.0647 21.3462 16.6042 21.2272 16.1388 21.5133ZM10.7732 23.4176C10.324 23.6365 10.3634 24.3557 10.8354 24.5528C11.5596 24.8551 12.0606 23.7402 11.3477 23.4128C11.1072 23.3023 11.0081 23.3031 10.7732 23.4176ZM21.1828 23.4176C20.7336 23.6365 20.773 24.3557 21.245 24.5528C21.9692 24.8551 22.4702 23.7402 21.7573 23.4128C21.5168 23.3023 21.4177 23.3031 21.1828 23.4176ZM36.9581 23.4808C36.6779 23.653 36.4458 24.0259 36.4458 24.3039C36.4458 24.7447 36.9747 25.2866 37.4054 25.2873C37.8696 25.2881 38.3966 24.7612 38.3973 24.2955C38.3974 24.1782 38.3142 23.9573 38.2122 23.8048C37.8839 23.3136 37.4234 23.1947 36.9581 23.4808ZM31.5924 24.0734C31.1432 24.2923 31.1826 25.0115 31.6546 25.2086C32.3788 25.5109 32.8799 24.396 32.1669 24.0686C31.9264 23.9581 31.8273 23.9589 31.5924 24.0734ZM2.31538 24.7293C1.86622 24.9481 1.90558 25.6673 2.37759 25.8644C3.10179 26.1668 3.60284 25.0518 2.88986 24.7244C2.64938 24.6139 2.55033 24.6147 2.31538 24.7293ZM27.0382 26.6968C26.589 26.9156 26.6284 27.6348 27.1004 27.8319C27.8246 28.1343 28.3257 27.0193 27.6127 26.6919C27.3722 26.5814 27.2731 26.5822 27.0382 26.6968ZM10.5 28.0954C10.1094 28.294 9.77118 28.8171 9.77118 29.2226C9.77118 29.3388 9.85356 29.5984 9.95416 29.7996C10.1511 30.1933 10.6701 30.5343 11.0724 30.5343C11.4747 30.5343 11.9936 30.1933 12.1906 29.7996C12.2913 29.5984 12.3736 29.3388 12.3736 29.2226C12.3736 29.1064 12.2913 28.8468 12.1906 28.6456C11.9936 28.2519 11.4747 27.9109 11.0724 27.9109C10.9571 27.9109 10.6996 27.9939 10.5 28.0954ZM16.6286 28.6642C16.1794 28.8831 16.2188 29.6023 16.6908 29.7994C17.415 30.1018 17.916 28.9868 17.2031 28.6594C16.9626 28.5489 16.8635 28.5497 16.6286 28.6642ZM21.9943 28.7275C21.7141 28.8996 21.482 29.2725 21.482 29.5505C21.482 29.9913 22.0108 30.5333 22.4416 30.5339C22.9058 30.5348 23.4328 30.0078 23.4335 29.5422C23.4336 29.4249 23.3503 29.204 23.2484 29.0514C22.9201 28.5603 22.4596 28.4413 21.9943 28.7275ZM30.6686 30.0629C30.278 30.2614 29.9398 30.7846 29.9398 31.1901C29.9398 31.3063 30.0221 31.5659 30.1228 31.7671C30.3197 32.1608 30.8387 32.5018 31.241 32.5018C31.3562 32.5018 31.6138 32.4188 31.8134 32.3173C32.204 32.1188 32.5422 31.5957 32.5422 31.1901C32.5422 30.7846 32.204 30.2614 31.8134 30.0629C31.6138 29.9614 31.3562 29.8784 31.241 29.8784C31.1258 29.8784 30.8682 29.9614 30.6686 30.0629ZM37.4478 29.9759C36.9986 30.1948 37.038 30.914 37.51 31.1111C38.2342 31.4134 38.7353 30.2985 38.0223 29.9711C37.7818 29.8606 37.6828 29.8614 37.4478 29.9759ZM5.07864 30.6949C4.79848 30.8671 4.56638 31.24 4.56638 31.518C4.56638 31.9588 5.09523 32.5008 5.52601 32.5014C5.99022 32.5023 6.5172 31.9753 6.51785 31.5097C6.51801 31.3923 6.43474 31.1715 6.33276 31.0189C6.00445 30.5278 5.54398 30.4088 5.07864 30.6949ZM16.5129 33.3858C16.162 33.5706 16.0363 33.6973 15.853 34.0511C15.5638 34.6092 15.5638 34.9852 15.853 35.5433C16.0363 35.897 16.162 36.0237 16.5129 36.2085C16.7638 36.3406 17.0756 36.4368 17.2531 36.4368C17.4306 36.4368 17.7424 36.3406 17.9932 36.2085C18.3441 36.0237 18.4699 35.897 18.6532 35.5433C18.7842 35.2904 18.8796 34.9761 18.8796 34.7972C18.8796 34.6182 18.7842 34.3039 18.6532 34.0511C18.4699 33.6973 18.3441 33.5706 17.9932 33.3858C17.7424 33.2538 17.4306 33.1576 17.2531 33.1576C17.0756 33.1576 16.7638 33.2538 16.5129 33.3858ZM24.5967 33.9741C24.3165 34.1463 24.0844 34.5192 24.0844 34.7972C24.0844 35.238 24.6132 35.7799 25.044 35.7806C25.5082 35.7814 26.0352 35.2545 26.0359 34.7888C26.036 34.6715 25.9528 34.4506 25.8508 34.2981C25.5225 33.807 25.062 33.688 24.5967 33.9741ZM33.0545 35.2858C32.7743 35.4579 32.5422 35.8308 32.5422 36.1088C32.5422 36.5496 33.071 37.0916 33.5018 37.0923C33.966 37.0931 34.493 36.5661 34.4937 36.1005C34.4938 35.9832 34.4106 35.7623 34.3086 35.6097C33.9803 35.1186 33.5198 34.9997 33.0545 35.2858ZM10.934 36.5974C10.6539 36.7696 10.4218 37.1425 10.4218 37.4205C10.4218 37.8613 10.9506 38.4033 11.3814 38.4039C11.8456 38.4047 12.3726 37.8778 12.3733 37.4121C12.3734 37.2948 12.2901 37.074 12.1882 36.9214C11.8599 36.4303 11.3994 36.3113 10.934 36.5974ZM27.6888 39.1576C27.2396 39.3764 27.279 40.0956 27.751 40.2927C28.4752 40.5951 28.9763 39.4801 28.2633 39.1527C28.0228 39.0422 27.9237 39.043 27.6888 39.1576ZM19.231 39.8134C18.7818 40.0323 18.8212 40.7515 19.2932 40.9486C20.0174 41.2509 20.5184 40.136 19.8055 39.8085C19.565 39.698 19.4659 39.6989 19.231 39.8134Z" fill="#858C68"/>
</svg>
