<svg width="25" height="31" viewBox="0 0 25 31" fill="none" xmlns="http://www.w3.org/2000/svg">
<path fill-rule="evenodd" clip-rule="evenodd" d="M18.6581 2.36523C17.3935 3.99354 16.7449 4.88057 16.5764 5.21205C15.2263 7.86937 16.7681 11.1281 19.6629 11.7356C22.4956 12.33 25.1783 9.96544 24.9907 7.03968C24.9338 6.1515 24.708 5.43467 24.2887 4.81031C23.9602 4.32132 20.5962 0 20.5441 0C20.5171 0 19.6684 1.06439 18.6581 2.36523ZM19.4123 4.33303C18.8062 5.11411 18.2337 5.90788 18.1402 6.09695C17.5122 7.36612 18.0369 9.00129 19.2869 9.67037C20.1052 10.1084 20.9828 10.1084 21.8011 9.67037C23.0386 9.00797 23.5649 7.40556 22.9653 6.12553C22.8318 5.84047 20.6675 2.96938 20.5548 2.92782C20.5325 2.91963 20.0183 3.55194 19.4123 4.33303ZM5.87659 9.93577C3.73073 12.664 1.85417 15.0735 1.70639 15.2905C0.868057 16.5212 0.29015 18.0907 0.0831589 19.6993C-0.545319 24.5827 2.44631 29.2323 7.10084 30.6063C10.5309 31.6188 14.2178 30.6463 16.7578 28.059C18.2493 26.5396 19.1641 24.7159 19.5407 22.511C19.6589 21.8188 19.6402 20.008 19.5073 19.2648C19.2754 17.9691 18.7937 16.6788 18.148 15.6242C17.8243 15.0954 9.91217 4.97547 9.82252 4.97547C9.7981 4.97547 8.02238 7.20757 5.87659 9.93577ZM6.58655 11.9469C4.83311 14.1794 3.29185 16.1658 3.16158 16.3611C2.59249 17.2144 2.18154 18.2117 1.9515 19.2977C1.77381 20.1366 1.75749 21.7245 1.9185 22.511C2.26732 24.2146 2.98574 25.5799 4.15513 26.7615C5.36116 27.9802 6.63277 28.6737 8.34046 29.0441C9.03798 29.1954 10.6093 29.1948 11.3099 29.0428C13.0213 28.6719 14.2607 27.9982 15.4567 26.7893C16.6724 25.5604 17.3538 24.2729 17.7253 22.5034C17.885 21.7423 17.8696 20.144 17.6945 19.3112C17.4739 18.2625 17.0527 17.2199 16.5318 16.4334C16.1901 15.9174 9.8856 7.88794 9.82216 7.88794C9.79601 7.88794 8.34005 9.71448 6.58655 11.9469ZM3.59027 21.4946C3.83455 24.5795 6.29212 27.09 9.31204 27.3396L9.82216 27.3818V26.4717V25.5615L9.42009 25.52C8.35446 25.4101 7.50279 25.0074 6.73254 24.2495C5.93984 23.4694 5.49048 22.5246 5.37903 21.4036L5.33829 20.994H4.44445H3.5506L3.59027 21.4946Z" fill="#858C68"/>
</svg>
