<svg width="24" height="24" viewBox="0 0 24 24" fill="none" xmlns="http://www.w3.org/2000/svg">
<g clip-path="url(#clip0_1132_10157)">
<path d="M22 11.5V15.5C22 19 20 20.5 17 20.5H7C4 20.5 2 19 2 15.5V8.5C2 5 4 3.5 7 3.5H12" stroke="#858C68" stroke-width="1.5" stroke-miterlimit="10" stroke-linecap="round" stroke-linejoin="round"/>
<path d="M7 9L10.13 11.5C11.16 12.32 12.85 12.32 13.88 11.5" stroke="#858C68" stroke-width="1.5" stroke-miterlimit="10" stroke-linecap="round" stroke-linejoin="round"/>
<path d="M19.4792 2.82L19.7592 3.38999C19.8992 3.66999 20.2492 3.93 20.5592 3.99L20.9392 4.05C22.0792 4.24 22.3492 5.08 21.5292 5.91L21.1792 6.25999C20.9492 6.49999 20.8192 6.95999 20.8892 7.27999L20.9392 7.49C21.2492 8.87 20.5192 9.39999 19.3192 8.67999L19.0592 8.52999C18.7492 8.34999 18.2492 8.34999 17.9392 8.52999L17.6792 8.67999C16.4692 9.40999 15.7392 8.87 16.0592 7.49L16.1092 7.27999C16.1792 6.95999 16.0492 6.49999 15.8192 6.25999L15.4692 5.91C14.6492 5.08 14.9192 4.24 16.0592 4.05L16.4392 3.99C16.7392 3.94 17.0992 3.66999 17.2392 3.38999L17.5192 2.82C18.0592 1.73 18.9392 1.73 19.4792 2.82Z" stroke="#858C68" stroke-width="1.5" stroke-linecap="round" stroke-linejoin="round"/>
</g>
<defs>
<clipPath id="clip0_1132_10157">
<rect width="24" height="24" fill="white"/>
</clipPath>
</defs>
</svg>
