<svg width="24" height="24" viewBox="0 0 24 24" fill="none" xmlns="http://www.w3.org/2000/svg">
<g clip-path="url(#clip0_1132_10137)">
<path d="M17 9C17 12.87 13.64 16 9.5 16L8.57001 17.12L8.02 17.78C7.55 18.34 6.65 18.22 6.34 17.55L5 14.6C3.18 13.32 2 11.29 2 9C2 5.13 5.36 2 9.5 2C12.52 2 15.13 3.67001 16.3 6.07001C16.75 6.96001 17 7.95 17 9Z" stroke="#858C68" stroke-width="1.5" stroke-linecap="round" stroke-linejoin="round"/>
<path d="M22.0003 12.86C22.0003 15.15 20.8203 17.18 19.0003 18.46L17.6603 21.41C17.3503 22.08 16.4503 22.21 15.9803 21.64L14.5003 19.86C12.0803 19.86 9.92031 18.79 8.57031 17.12L9.50031 16C13.6403 16 17.0003 12.87 17.0003 9C17.0003 7.95 16.7503 6.96001 16.3003 6.07001C19.5703 6.82001 22.0003 9.57999 22.0003 12.86Z" stroke="#858C68" stroke-width="1.5" stroke-linecap="round" stroke-linejoin="round"/>
</g>
<defs>
<clipPath id="clip0_1132_10137">
<rect width="24" height="24" fill="white"/>
</clipPath>
</defs>
</svg>
