<svg width="19" height="16" viewBox="0 0 19 16" fill="none" xmlns="http://www.w3.org/2000/svg">
<path fill-rule="evenodd" clip-rule="evenodd" d="M17.7205 0.0869161C17.5225 0.160555 5.19034 4.93329 1.7231 6.27814C0.637383 6.69924 0.371816 6.82912 0.171954 7.03674C-0.125648 7.34588 -0.0334093 7.66414 0.421132 7.89626C0.482451 7.92759 1.53795 8.26844 2.76671 8.65377L5.00077 9.35432L10.0692 6.14807C12.8569 4.38464 15.1945 2.92196 15.264 2.89765C15.4391 2.83648 15.586 2.84249 15.6565 2.91373C15.7112 2.96899 15.7106 2.98267 15.6499 3.07949C15.6135 3.13754 13.7608 4.83763 11.5329 6.85749C9.30495 8.87735 7.47687 10.5431 7.47051 10.5592C7.46412 10.5753 7.38831 11.587 7.30205 12.8075L7.14522 15.0265H7.2233C7.26626 15.0265 7.38742 15.0007 7.49255 14.9691C7.70501 14.9054 7.70133 14.9086 9.21955 13.4392C9.70527 12.9691 10.1197 12.5844 10.1405 12.5844C10.1613 12.5844 11.152 13.3058 12.3421 14.1875C13.5322 15.0693 14.5979 15.8336 14.7103 15.8862C15.0046 16.0237 15.3447 16.0379 15.5596 15.9217C15.7531 15.8169 15.9104 15.6082 16.0075 15.3271C16.0467 15.2135 16.7359 12.018 17.539 8.22617C18.8732 1.92643 18.9992 1.3011 19 0.974947C19.0007 0.665736 18.9882 0.592886 18.9062 0.430166C18.8485 0.315574 18.7501 0.198577 18.6539 0.130198C18.434 -0.0261728 18.07 -0.0430423 17.7205 0.0869161Z" fill="white"/>
</svg>
