<svg width="24" height="24" viewBox="0 0 24 24" fill="none" xmlns="http://www.w3.org/2000/svg">
<path d="M12 1.75C14.8939 1.75 17.25 4.10614 17.25 7C17.25 9.89386 14.8939 12.25 12 12.25C9.10614 12.25 6.75 9.89386 6.75 7C6.75 4.10614 9.10614 1.75 12 1.75ZM12 2.25C9.38386 2.25 7.25 4.38386 7.25 7C7.25 9.61614 9.38386 11.75 12 11.75C14.6161 11.75 16.75 9.61614 16.75 7C16.75 4.38386 14.6161 2.25 12 2.25Z" fill="white" stroke="white"/>
<path d="M12 14.75C16.9651 14.75 20.8398 18.0893 20.8398 22C20.8398 22.1339 20.7237 22.25 20.5898 22.25C20.4561 22.2498 20.3398 22.1338 20.3398 22C20.3398 18.1738 16.4841 15.25 12 15.25C7.51593 15.2501 3.66016 18.1739 3.66016 22C3.66016 22.1339 3.54401 22.25 3.41016 22.25C3.2763 22.25 3.16016 22.1339 3.16016 22C3.16016 18.0893 7.03497 14.7501 12 14.75Z" fill="white" stroke="white"/>
</svg>
