<svg width="80" height="80" viewBox="0 0 80 80" fill="none" xmlns="http://www.w3.org/2000/svg">
<path fill-rule="evenodd" clip-rule="evenodd" d="M23.2671 19.6483C20.9106 20.1068 19.4231 20.9383 17.5649 22.8361C14.6489 25.814 12.5051 30.1751 10.9463 36.3C8.8942 44.3634 8.4271 52.1147 9.72508 56.569C10.4896 59.1928 12.1736 60.9874 14.2436 61.3842C17.6666 62.0405 21.7253 59.9415 28.1503 54.1922C29.9455 52.586 30.913 51.9461 32.5212 51.302C34.879 50.3576 37.1909 49.9673 40.426 49.9673C43.661 49.9673 45.9729 50.3576 48.3308 51.302C49.939 51.9461 50.9065 52.586 52.7016 54.1922C57.8181 58.7705 61.1787 60.8581 64.2975 61.3953C66.985 61.8581 69.2768 60.6482 70.4969 58.1224C71.2252 56.615 71.7456 54.3524 71.7518 52.6664C71.7532 52.3092 71.8096 51.9822 71.8771 51.9396C71.9502 51.8936 72 51.1017 72 49.9855C72 48.7663 71.957 48.1358 71.8771 48.1861C71.8011 48.2339 71.7543 48.0101 71.7542 47.5992C71.7538 46.0026 71.0619 41.1555 70.4448 38.4272C69.3523 33.597 67.674 28.9772 66.0586 26.3531C63.8159 22.7105 61.4787 20.6792 58.5473 19.825C57.7124 19.5818 57.2777 19.5387 55.6601 19.5392C53.5095 19.54 52.5954 19.6916 48.5345 20.7211C45.1113 21.5889 43.5159 21.9337 41.8569 22.1643C40.4578 22.3589 40.3326 22.3567 38.6626 22.109C37.7067 21.9673 35.4042 21.481 33.546 21.0286C27.6264 19.5874 25.2326 19.266 23.2671 19.6483ZM23.8562 22.607C19.2889 23.438 15.7583 28.719 13.4729 38.1379C12.4795 42.232 12.0526 45.3865 11.9584 49.3281C11.863 53.3174 12.1312 55.2945 12.9845 56.891C14.2077 59.1799 16.8267 58.9739 20.8614 56.2712C22.1914 55.3802 23.9906 53.9519 25.3761 52.687C28.0963 50.2036 29.9412 49.044 32.5017 48.2083C35.3472 47.2795 37.9891 46.9279 41.3368 47.0326C44.2306 47.1231 46.3706 47.5106 48.7455 48.3744C50.9734 49.1845 52.2612 50.0166 54.6773 52.2068C59.523 56.5994 62.8922 58.6234 65.3724 58.6315C66.9888 58.6369 68.0657 57.2848 68.6592 54.5045C68.9543 53.1219 68.9451 47.2856 68.6443 45.1207C67.5376 37.1536 65.7827 31.4228 63.2228 27.4166C61.6671 24.982 60.0622 23.6092 57.933 22.8916C57.0662 22.5996 56.7543 22.5603 55.2916 22.5594C53.41 22.5583 52.8015 22.6644 47.9816 23.8349C44.7683 24.6151 43.4482 24.8772 41.5711 25.1076C39.7544 25.3305 37.4143 24.9808 32.6448 23.7736C31.1471 23.3945 29.3966 22.9708 28.7546 22.8321C27.4197 22.5437 24.8526 22.4257 23.8562 22.607ZM25.2357 27.4922C24.3373 27.608 23.3312 28.1164 22.6729 28.7868C22.0661 29.4046 21.3835 30.7088 21.3834 31.2506C21.3833 31.589 21.1927 31.7332 20.7458 31.7332C20.6089 31.7332 20.1505 31.9016 19.7272 32.1073C17.2194 33.3262 16.3631 36.3929 17.8637 38.7818C18.5062 39.8046 19.3152 40.3892 20.5834 40.7466C21.3013 40.9491 21.3212 40.9665 21.404 41.4603C21.6129 42.706 22.7231 44.0955 23.9738 44.6764C26.3448 45.7777 29.1736 44.5648 30.0971 42.051C30.2371 41.6697 30.3518 41.2545 30.3518 41.1282C30.3518 40.9561 30.4784 40.8781 30.859 40.8161C32.1654 40.6034 33.5099 39.5067 34.1382 38.1414C34.5899 37.1599 34.6114 35.4966 34.1846 34.5483C33.4715 32.9637 32.3694 32.0562 30.7056 31.6835C30.4477 31.6258 30.3685 31.5178 30.3069 31.1406C30.1807 30.3661 29.6899 29.4524 29.0502 28.8009C28.0458 27.778 26.6726 27.3069 25.2357 27.4922ZM52.8948 28.0811C50.982 28.9922 50.8218 31.7458 52.6116 32.9519C53.058 33.253 53.2428 33.297 54.054 33.2959C54.8592 33.2948 55.0546 33.2483 55.5056 32.9508C55.7923 32.7618 56.1781 32.3683 56.3631 32.0762C56.6532 31.6184 56.6997 31.4154 56.702 30.5985C56.704 29.772 56.6613 29.5852 56.3655 29.1295C55.8362 28.3141 55.1691 27.9307 54.1995 27.8849C53.6009 27.8567 53.2577 27.9083 52.8948 28.0811ZM25.3714 30.3636C25.1663 30.4251 24.8364 30.6475 24.6385 30.8578C24.3063 31.2111 24.2737 31.3303 24.2131 32.4163C24.1152 34.1711 23.6971 34.5885 22.0221 34.6039C20.7386 34.6155 20.0318 35.1837 20.0318 36.2036C20.0318 37.315 20.7299 37.8637 22.145 37.8644C23.6715 37.8652 24.209 38.4358 24.209 40.0557C24.209 41.4071 24.7549 42.1183 25.792 42.1174C26.9604 42.1165 27.5261 41.4017 27.5261 39.9261C27.5261 38.4516 27.9298 38.06 29.5532 37.9598C30.0938 37.9264 30.6895 37.8251 30.877 37.7348C31.5814 37.3956 31.9231 36.2494 31.5461 35.4904C31.2455 34.8858 30.6536 34.6109 29.6517 34.6109C28.0376 34.6109 27.6451 34.2305 27.5199 32.5452C27.4282 31.3083 27.2664 30.8874 26.7565 30.5586C26.3723 30.3108 25.8111 30.2319 25.3714 30.3636ZM47.581 33.6518C46.5119 34.0467 45.7943 35.1143 45.8061 36.2922C45.8141 37.0839 45.9547 37.4627 46.4567 38.0451C47.0859 38.7748 47.6857 39.0246 48.6721 38.9678C49.7584 38.9054 50.4136 38.4726 50.8995 37.4966C51.4399 36.4112 51.3076 35.3439 50.5227 34.4573C49.7441 33.5779 48.6169 33.2692 47.581 33.6518ZM58.5473 33.7199C57.558 34.182 56.8963 35.1915 56.8914 36.2463C56.8876 37.0549 57.4181 38.0719 58.0918 38.5476C58.7996 39.0472 60.0376 39.1474 60.7694 38.7641C61.7386 38.2567 62.3119 37.3431 62.3119 36.3062C62.3119 35.1012 61.8114 34.2878 60.7587 33.7822C60.0164 33.4258 59.2246 33.4035 58.5473 33.7199ZM53.2001 39.307C52.1436 39.6387 51.3656 40.7513 51.3656 41.9302C51.3656 44.2828 54.0365 45.5508 55.7837 44.0276C56.4207 43.4722 56.7596 42.7563 56.7631 41.9575C56.7685 40.7545 55.9692 39.6308 54.8721 39.299C54.1426 39.0783 53.9252 39.0794 53.2001 39.307ZM9.02418 50.1254C9.02418 51.1921 9.0431 51.6283 9.06608 51.0951C9.08918 50.5618 9.08918 49.689 9.06608 49.1558C9.0431 48.6225 9.02418 49.0588 9.02418 50.1254Z" fill="white"/>
</svg>
