<svg width="80" height="80" viewBox="0 0 80 80" fill="none" xmlns="http://www.w3.org/2000/svg">
<path fill-rule="evenodd" clip-rule="evenodd" d="M50.3497 17.0814C40.3938 17.4161 32.3281 19.3 26.6851 22.6087C22.3371 25.1582 19.3925 28.5915 17.982 32.7567C16.2257 37.9427 16.8268 44.2735 19.7724 51.6135L20.2486 52.8L20.1069 53.1597C20.0289 53.3575 19.7395 54.0093 19.4637 54.6082C18.9016 55.8284 17.9566 58.2732 17.5249 59.6234C17.267 60.4304 17.25 60.5509 17.3454 60.8991C17.5591 61.6789 18.384 62.1577 19.1599 61.9524C19.7815 61.7879 20.0576 61.4285 20.446 60.2782C20.9563 58.7671 21.4234 57.553 22.0326 56.1549L22.5781 54.9032L23.4452 55.3012C27.0916 56.9751 30.7875 58.0391 34.4715 58.4756C35.8791 58.6424 38.9541 58.6655 40.2254 58.5189C47.9132 57.6323 53.4759 53.3921 56.1152 46.407C56.885 44.3695 57.2926 42.5046 57.7567 38.8972C59.0032 29.2075 60.692 22.538 62.5627 19.9172C62.7664 19.6319 62.9563 19.2574 62.9847 19.0852C63.0794 18.5121 62.7238 17.8229 62.1947 17.554C61.8133 17.3602 59.4777 17.1777 56.0653 17.0751C54.4738 17.0273 52.9895 16.9939 52.767 17.0009C52.5445 17.008 51.4567 17.0442 50.3497 17.0814ZM49.3956 20.0472C44.8623 20.3029 41.7464 20.6963 38.2162 21.4586C28.7892 23.4944 22.8079 27.7003 20.8144 33.6951C19.6902 37.076 19.7334 41.267 20.9389 45.7444C21.2471 46.8897 22.0466 49.3226 22.1145 49.3226C22.149 49.3226 22.452 48.8754 22.7879 48.3287C23.477 47.2075 25.2578 44.5964 25.8678 43.8131L26.2708 43.2955L26.1007 42.2228C25.8967 40.9365 25.868 37.5301 26.0514 36.3791C26.5056 33.5276 27.2207 31.032 27.7261 30.5338C28.5267 29.7444 29.902 30.1193 30.2004 31.2082C30.2955 31.5551 30.2791 31.6757 30.0334 32.4397C29.2473 34.8842 28.854 37.1654 28.8592 39.2506L28.8613 40.0899L29.7274 39.1622C32.0033 36.7242 35.2991 33.6526 37.6904 31.7407L38.7403 30.9014L38.7421 29.6644C38.7448 27.8461 39.1807 25.3194 39.6515 24.3938C40.3478 23.0248 42.4319 23.4764 42.427 24.9951C42.4263 25.1822 42.3296 25.677 42.2119 26.0949C41.9875 26.8919 41.7381 28.4416 41.8211 28.5231C41.8478 28.5493 42.4099 28.1947 43.0703 27.7351C46.3785 25.4328 51.5261 22.448 55.0821 20.77C55.8856 20.3908 56.543 20.0602 56.543 20.0353C56.543 19.9896 50.2306 20 49.3956 20.0472ZM55.5973 23.8225C51.7686 25.7414 49.2819 27.1681 46.0048 29.3263C44.1042 30.578 43.4261 31.05 43.4205 31.1254C43.4144 31.2083 44.9547 31.4772 45.9793 31.5722C46.5245 31.6227 47.4564 31.6371 48.0563 31.604C49.0275 31.5506 49.1879 31.5631 49.548 31.7197C50.4455 32.1098 50.7179 33.2291 50.093 33.9589C49.7263 34.3873 49.3896 34.4794 47.9758 34.5386C45.8121 34.6292 43.5736 34.3258 41.5488 33.6675C40.5677 33.3484 40.4275 33.3228 40.2901 33.4373C40.2051 33.5081 39.6298 33.9798 39.0117 34.4854C36.4497 36.5813 33.4997 39.3948 31.4731 41.6757C30.3006 42.9953 30.2513 42.8168 31.9002 43.2211C35.0124 43.9841 38.0247 44.2563 40.7996 44.0253C42.3283 43.898 42.5906 43.9419 43.0307 44.3987C43.4173 44.7999 43.5439 45.235 43.4144 45.7166C43.2945 46.1624 42.8717 46.6322 42.4795 46.7557C41.3104 47.1236 36.7372 47.0968 34.3367 46.708C32.554 46.4192 30.9733 46.0618 29.4719 45.608C28.9966 45.4643 28.5631 45.3468 28.5084 45.3468C28.2187 45.3468 23.9977 51.769 23.9977 52.2099C23.9977 52.3217 25.602 53.0677 26.9645 53.5893C30.6981 55.0187 34.0945 55.6884 37.6108 55.6884C40.7868 55.6884 43.1994 55.1653 45.7994 53.9131C50.3523 51.7205 53.3409 47.345 54.3809 41.3494C54.4757 40.8025 54.7184 39.1151 54.9201 37.5997C55.6926 31.7958 56.5687 27.3725 57.6353 23.892C57.8338 23.244 57.982 22.6999 57.9647 22.6829C57.9473 22.6658 56.8819 23.1786 55.5973 23.8225Z" fill="white"/>
</svg>
