<svg width="80" height="80" viewBox="0 0 80 80" fill="none" xmlns="http://www.w3.org/2000/svg">
<path fill-rule="evenodd" clip-rule="evenodd" d="M37.9333 7.54489C36.54 7.71823 34.7753 8.02558 33.9059 8.24612C25.2303 10.4476 18.218 17.4241 16.0469 26.0139C15.2306 29.2439 15.2807 27.7839 15.2345 49.672L15.1922 69.6308H12.0961H9V71.5654V73.5H40H71V71.5654V69.6308H67.9039H64.8077L64.7655 49.672C64.7193 27.7839 64.7694 29.2439 63.9531 26.0139C62.4087 19.9038 58.3378 14.4494 52.7875 11.0536C50.203 9.47254 47.2847 8.38851 44.1333 7.83895C42.7014 7.58926 38.9907 7.41321 37.9333 7.54489ZM38.3208 11.4093C36.1229 11.6638 34.4706 12.0327 32.7667 12.649C26.7086 14.8407 21.8503 20.0273 19.986 26.2931C19.1262 29.1834 19.1609 28.4392 19.1096 45.0289L19.0631 60.0867H28.5628H38.0625V56.6549V53.2233L36.5383 51.6394C34.2247 49.2352 32.5958 46.805 31.6109 44.2885C30.6581 41.8544 30.3188 40.0806 30.3155 37.5162C30.31 33.4826 31.6792 29.5994 34.3944 25.9473C35.3291 24.6902 38.2676 21.7542 39.2574 21.0885L40 20.5891L40.7426 21.0885C41.7324 21.7542 44.6709 24.6902 45.6056 25.9473C48.3208 29.5994 49.69 33.4826 49.6845 37.5162C49.6812 40.0806 49.3419 41.8544 48.3891 44.2885C47.4042 46.805 45.7753 49.2352 43.4617 51.6394L41.9375 53.2233V56.6549V60.0867H51.4372H60.9369L60.8904 45.0289C60.8487 31.5376 60.821 29.8483 60.6243 28.7891C59.7824 24.2547 57.6759 20.2999 54.4488 17.1955C51.3249 14.1904 47.8247 12.4273 43.4252 11.643C42.3883 11.4582 39.171 11.3109 38.3208 11.4093ZM39.008 26.4998C36.4697 29.3185 34.9309 32.1862 34.3767 35.1302C34.0835 36.6884 34.171 39.4749 34.5573 40.8815C35.1714 43.1174 35.9979 44.8175 37.403 46.7351L38.0625 47.6351V42.2533V36.8713H39.9986H41.9347L41.9684 42.1915L42.0021 47.5117L42.6763 46.6089C44.0242 44.8044 45.2221 42.1226 45.629 39.9989C45.871 38.736 45.8624 36.3883 45.6109 35.0645C45.1351 32.5606 43.7972 29.8195 41.9602 27.5852C41.2281 26.6947 40.1031 25.5216 39.9813 25.5216C39.9305 25.5216 39.4926 25.9618 39.008 26.4998ZM19.075 66.7933V69.6308H40H60.925V66.7933V63.9559H40H19.075V66.7933Z" fill="white"/>
</svg>
