<svg width="54" height="54" viewBox="0 0 54 54" fill="none" xmlns="http://www.w3.org/2000/svg">
<path d="M47.25 22.5H6.75M47.25 25.875V19.8C47.25 16.0196 47.25 14.1295 46.5143 12.6856C45.8671 11.4155 44.8345 10.3829 43.5644 9.73571C42.1205 9 40.2304 9 36.45 9H17.55C13.7696 9 11.8795 9 10.4356 9.73571C9.16547 10.3829 8.13285 11.4155 7.48571 12.6856C6.75 14.1295 6.75 16.0196 6.75 19.8V38.7C6.75 42.4804 6.75 44.3705 7.48571 45.8144C8.13285 47.0845 9.16547 48.1171 10.4356 48.7643C11.8795 49.5 13.7696 49.5 17.55 49.5H28.125M36 4.5V13.5M18 4.5V13.5M39.3696 35.3519C37.7951 33.5988 35.1695 33.1272 33.1968 34.7325C31.2241 36.3378 30.9464 39.0217 32.4956 40.9203C34.0448 42.8189 39.3696 47.25 39.3696 47.25C39.3696 47.25 44.6945 42.8189 46.2437 40.9203C47.7929 39.0217 47.549 36.3209 45.5424 34.7325C43.5358 33.1441 40.9441 33.5988 39.3696 35.3519Z" stroke="#858C68" stroke-width="2.5" stroke-linecap="round" stroke-linejoin="round"/>
</svg>
