<svg width="80" height="80" viewBox="0 0 80 80" fill="none" xmlns="http://www.w3.org/2000/svg">
<path fill-rule="evenodd" clip-rule="evenodd" d="M31.4837 15.1639C29.7521 15.5416 28.2165 16.4257 27.0162 17.7357C25.2647 19.6475 24.3772 22.0022 24.3686 24.7606C24.3591 27.7739 25.4357 30.3402 27.5247 32.284C29.0942 33.7445 30.5513 34.3814 32.5503 34.4806C34.57 34.5808 36.1613 34.0975 37.777 32.8931C39.6107 31.5261 40.8551 29.537 41.4251 27.0622C41.7307 25.7351 41.6783 23.4337 41.3109 22.0495C40.0475 17.2883 35.7022 14.2436 31.4837 15.1639ZM31.9307 18.5414C30.2132 18.9494 28.5932 20.7867 28.0249 22.9713C27.7763 23.9267 27.7765 25.6929 28.0253 26.6469C28.4729 28.363 29.7498 30.0235 31.1376 30.6942C31.7625 30.9962 31.9419 31.0287 32.9833 31.0287C34.024 31.0287 34.2046 30.9961 34.829 30.6947C35.7805 30.2354 36.9395 29.0726 37.3966 28.1186C38.3412 26.1464 38.4244 23.8272 37.6195 21.8991C36.7834 19.896 35.0943 18.5687 33.2595 18.4728C32.7903 18.4484 32.1924 18.4792 31.9307 18.5414ZM50.1712 19.7223C46.7682 20.3734 44.0481 23.0407 43.0638 26.6921C42.7423 27.8846 42.7128 30.0834 43.0025 31.2503C43.9175 34.9356 46.7535 37.2779 50.28 37.2609C56.593 37.2303 60.8842 29.604 57.9286 23.6679C57.0564 21.9162 55.254 20.4089 53.3805 19.8644C52.4876 19.605 51.1048 19.5437 50.1712 19.7223ZM50.7826 23.1041C48.6825 23.4163 46.7873 25.5459 46.343 28.092C45.9369 30.421 46.91 32.6742 48.7033 33.5562C49.0308 33.7173 49.3937 33.7676 50.2289 33.7676C51.2195 33.7676 51.3986 33.733 52.0937 33.4072C53.5602 32.7198 54.9385 30.8949 55.2949 29.1686C55.6139 27.6245 55.3328 25.9193 54.5726 24.7862C53.6757 23.4494 52.3667 22.8684 50.7826 23.1041ZM15.3686 26.4695C10.9795 27.5223 8.77629 32.6287 10.6986 37.2931C11.7146 39.7588 13.7382 41.6611 16.1415 42.4101C17.2754 42.7636 19.0429 42.7626 20.1991 42.4079C21.8776 41.8931 23.3821 40.5989 24.2232 38.9464C24.8932 37.6303 25.1193 36.5183 25.0551 34.8548C25.0082 33.6409 24.9449 33.2642 24.6353 32.3581C24.101 30.7945 23.4846 29.8237 22.2672 28.6279C21.4232 27.799 21.0232 27.5018 20.2292 27.1142C18.6306 26.3339 16.8939 26.1035 15.3686 26.4695ZM15.9342 29.8739C14.8675 30.2674 14.1593 30.9978 13.7079 32.1699C13.3852 33.0083 13.4088 34.6575 13.7581 35.6712C14.2651 37.1424 15.3468 38.3827 16.6397 38.9758C17.4362 39.3411 18.8367 39.3424 19.5444 38.9783C20.5223 38.4754 21.1506 37.6729 21.4565 36.5366C22.2777 33.4847 20.0098 29.9167 17.1463 29.7558C16.6583 29.7284 16.2103 29.7721 15.9342 29.8739ZM60.5531 34.6876C60.109 34.7841 59.2206 35.1148 58.5786 35.4226C55.4989 36.8993 53.4533 40.1245 53.4608 43.4916C53.4655 45.5553 54.1272 47.1774 55.5247 48.5507C57.7517 50.7391 60.8866 51.1046 64.0675 49.5466C64.8555 49.1607 65.2593 48.858 66.157 47.9798C67.4359 46.7288 68.0433 45.7842 68.5715 44.2243C69.4523 41.6235 68.948 38.6489 67.3092 36.7779C66.6731 36.0515 65.4411 35.2456 64.4408 34.9015C63.3545 34.5277 61.7067 34.437 60.5531 34.6876ZM34.9386 35.9854C32.4211 36.4241 30.2313 37.4106 28.2537 38.9975C26.7133 40.2334 25.9099 41.299 22.173 47.0626C20.1993 50.1068 18.4383 52.9056 18.2596 53.2822C17.1779 55.5621 17.1824 58.5388 18.271 60.8404C19.4478 63.3282 21.6429 65.1048 24.3884 65.7917C25.2109 65.9975 25.5907 66.0267 26.8645 65.9818C28.1709 65.9358 28.4983 65.8829 29.3496 65.58C33.7966 63.9977 34.2634 63.9001 37.3668 63.9036C40.4445 63.9071 41.0353 64.029 45.1533 65.5103C46.36 65.9444 46.3711 65.946 48.1525 65.9477C49.7075 65.9493 50.0532 65.9147 50.8056 65.6823C54.6906 64.4822 57.2618 61.0507 57.2647 57.0623C57.2658 55.6431 56.9436 54.2333 56.3585 53.0965C55.9602 52.3226 49.9487 42.9801 48.9751 41.6219C48.4736 40.9224 47.3958 39.7953 46.5264 39.0615C43.4364 36.4533 39.0047 35.2768 34.9386 35.9854ZM60.803 38.1697C59.1996 38.7153 57.9245 39.949 57.2535 41.6042C56.8776 42.5318 56.8239 44.0788 57.1392 44.9033C57.4514 45.7195 58.0106 46.362 58.7214 46.7212C59.2071 46.9665 59.4345 47.005 60.3801 47.0012C61.3087 46.9977 61.5729 46.9524 62.1104 46.7044C64.294 45.6976 65.7203 43.4085 65.534 41.2098C65.3258 38.7526 63.1669 37.3652 60.803 38.1697ZM35.7518 39.3069C32.9962 39.732 30.3864 41.2517 28.7303 43.3958C27.8483 44.5376 21.5872 54.2871 21.282 54.994C21.0189 55.6034 20.9866 55.8293 20.989 57.0481C20.9912 58.2114 21.0321 58.5177 21.26 59.0822C21.8768 60.6095 23.2852 61.8921 24.8673 62.3675C25.5405 62.5699 25.8754 62.6027 26.7949 62.5566C27.7712 62.5077 28.0703 62.4371 29.2343 61.9815C32.0983 60.8601 34.2419 60.4694 37.4821 60.4777C40.5993 60.4858 42.4563 60.8338 45.4266 61.9661C46.6494 62.4322 46.9663 62.5066 47.9387 62.5559C49.8079 62.6508 51.049 62.1412 52.3591 60.7414C53.0935 59.9566 53.3873 59.4421 53.6324 58.5112C54.0004 57.1137 53.7954 55.5445 53.0832 54.3058C52.4633 53.2277 46.6887 44.3486 46.058 43.5037C44.6114 41.5659 42.4522 40.1502 39.9791 39.5181C38.9537 39.256 36.7844 39.1476 35.7518 39.3069Z" fill="#858C68"/>
</svg>
