<svg width="80" height="80" viewBox="0 0 80 80" fill="none" xmlns="http://www.w3.org/2000/svg">
<path fill-rule="evenodd" clip-rule="evenodd" d="M54.3908 15.1318C52.1726 15.7335 50.6326 17.5099 50.3426 19.8012C50.1863 21.0366 50.4794 22.2687 51.1819 23.3278L51.4993 23.8064L50.9436 24.1409C49.7248 24.8745 48.7573 25.7799 48.0027 26.8933C46.7954 28.6747 46.3378 30.4133 46.3368 33.223L46.3362 34.7086L45.7027 34.2289C45.3544 33.9651 44.8711 33.6331 44.6288 33.491C44.3865 33.349 44.1883 33.2194 44.1883 33.203C44.1883 33.1867 44.3386 32.9497 44.5225 32.6765C45.5553 31.1409 45.634 29.0363 44.7232 27.3023C44.0518 26.0239 43.0488 25.1493 41.7086 24.6732C41.134 24.4691 40.8397 24.4271 39.9901 24.4282C38.4188 24.43 37.319 24.8817 36.2323 25.9715C34.4326 27.7763 34.1009 30.6593 35.4604 32.6803C35.6456 32.9557 35.785 33.1921 35.7702 33.2057C35.7553 33.2194 35.3477 33.4946 34.8645 33.8174C32.9941 35.0668 31.6549 36.9031 30.9989 39.1182C30.8145 39.7404 30.7775 40.148 30.7399 41.9686C30.7158 43.1371 30.6786 44.093 30.6573 44.093C30.6361 44.093 30.2728 43.8403 29.8501 43.5314C29.4275 43.2224 28.9451 42.8955 28.7782 42.8049L28.4747 42.6399L28.8063 42.1469C29.9984 40.3747 29.9558 38.0751 28.6951 36.1598C27.7082 34.6603 26.158 33.8374 24.3203 33.8374C22.8212 33.8374 21.5975 34.3415 20.5554 35.3889C18.7529 37.2 18.4037 40.0677 19.7429 42.0588C20.0755 42.5531 20.1404 42.7256 19.9938 42.7256C19.784 42.7256 18.478 43.7039 17.7973 44.3711C16.5442 45.5992 15.6926 47.0644 15.2802 48.7014C15.0203 49.7331 14.9059 52.6099 15.091 53.4581C15.3813 54.7891 16.2989 55.9949 17.4901 56.6111L18.12 56.9369L18.1203 60.349C18.1207 63.5612 18.1321 63.7849 18.316 64.1647C18.4412 64.4235 18.6489 64.6456 18.8951 64.7841L19.2791 65L24.4042 64.973C29.4068 64.9468 29.5358 64.9413 29.799 64.7447C29.9472 64.6339 30.159 64.422 30.2697 64.2738C30.4631 64.015 30.4722 63.8635 30.5 60.4694L30.5288 56.9345L31.1577 56.6083C32.4417 55.9422 33.3634 54.5764 33.5747 53.0267C33.6367 52.5719 33.7215 52.1998 33.7634 52.1998C33.8052 52.1998 33.8394 54.8259 33.8395 58.0357C33.8396 64.4773 33.8213 64.2775 34.4567 64.7438C34.7274 64.9425 34.826 64.9461 39.9901 64.9461C45.1542 64.9461 45.2528 64.9425 45.5236 64.7438C46.1589 64.2776 46.1406 64.4756 46.1407 58.0506L46.1409 52.2295L46.5535 52.0437C48.1151 51.3406 49.2651 49.642 49.2651 48.0385C49.2651 47.7487 49.3081 47.5115 49.3606 47.5115C49.4218 47.5115 49.4655 50.4673 49.4826 55.7577C49.5089 63.9132 49.5114 64.007 49.7105 64.2736C49.8212 64.422 50.0331 64.6339 50.1813 64.7447C50.4444 64.9413 50.5735 64.9468 55.576 64.973L60.7012 65L61.0851 64.7841C61.3314 64.6456 61.539 64.4235 61.6643 64.1647C61.8548 63.7711 61.8596 63.5617 61.8596 55.6392V47.5173L62.4008 47.2611C63.5416 46.7212 64.4961 45.5345 64.8343 44.2354C65.053 43.3952 65.0562 31.8369 64.8381 30.5853C64.3491 27.7801 62.6644 25.4329 60.0534 23.9188C59.8899 23.8241 59.9072 23.7659 60.2856 23.1383C60.5105 22.7653 60.76 22.24 60.8403 21.9709C61.7032 19.0777 59.8565 15.8178 56.9689 15.137C56.2033 14.9564 55.046 14.9541 54.3908 15.1318ZM55.0248 18.0079C54.323 18.2216 53.6726 18.7975 53.4022 19.4448C53.1772 19.9836 53.2297 20.9272 53.5169 21.5034C54.5106 23.4986 57.5978 23.0844 58.0521 20.8949C58.2451 19.9648 57.9727 19.1841 57.2254 18.526C56.6213 17.9942 55.7467 17.7883 55.0248 18.0079ZM54.0979 26.013C51.774 26.5923 50.1866 28.1491 49.5357 30.4872C49.3307 31.2233 49.3224 31.4488 49.2882 37.1739C49.2636 41.296 49.2857 43.2208 49.3608 43.4995C49.5711 44.2811 50.0745 44.6595 51.1201 44.8218C51.5978 44.896 52.0557 45.1992 52.2625 45.5782C52.4269 45.8794 52.4399 46.4158 52.4653 53.9823L52.4923 62.0647H55.7099H58.9274L58.9534 53.8847C58.9788 45.8801 58.9836 45.6988 59.1747 45.4374C59.4214 45.0999 60.065 44.7767 60.4906 44.7767C60.9961 44.7767 61.6107 44.363 61.855 43.8584C62.0634 43.4274 62.0642 43.4002 62.0294 37.2397C61.9908 30.3678 62.016 30.6489 61.3051 29.1601C60.8054 28.1133 59.7479 27.0684 58.6377 26.5244C58.1813 26.3007 57.5003 26.0533 57.1244 25.9746C56.2221 25.7858 54.9442 25.8019 54.0979 26.013ZM39.5338 27.3992C38.9477 27.5095 38.6003 27.7156 38.1635 28.2121C37.1173 29.4012 37.4486 31.2314 38.8349 31.9227C39.8459 32.4267 41.2803 32.1602 41.8947 31.3543C42.6489 30.3651 42.601 29.0883 41.7751 28.1694C41.1898 27.518 40.38 27.2398 39.5338 27.3992ZM38.7697 35.3414C36.7696 35.7279 35.1591 36.9306 34.3358 38.6531C33.6728 40.0401 33.6325 40.4033 33.6646 44.6964C33.692 48.3537 33.6994 48.483 33.8971 48.7498C34.2148 49.1785 34.658 49.4307 35.2086 49.4959C35.7938 49.5652 36.2236 49.7905 36.514 50.1802C36.7167 50.4522 36.7199 50.5331 36.7461 56.2603L36.7728 62.0647H39.9901H43.2075L43.2341 56.2603C43.2604 50.5331 43.2635 50.4522 43.4663 50.1802C43.7566 49.7905 44.1864 49.5652 44.7716 49.4959C45.3223 49.4307 45.7654 49.1785 46.0831 48.7498C46.2808 48.483 46.2882 48.3537 46.3157 44.6964C46.3479 40.3925 46.3084 40.0421 45.6337 38.6308C44.9054 37.1077 43.4073 35.8973 41.6987 35.4514C40.8625 35.2332 39.5793 35.185 38.7697 35.3414ZM23.4658 36.9069C22.9037 37.1075 22.4888 37.4738 22.1708 38.05C21.93 38.4863 21.8824 38.6812 21.8879 39.2093C21.9115 41.4909 24.6125 42.4899 26.1511 40.7861C26.5531 40.3409 26.7109 39.8756 26.7117 39.133C26.7123 38.5097 26.5519 38.0974 26.1149 37.5996C25.4764 36.872 24.3722 36.5833 23.4658 36.9069ZM23.2175 44.6902C21.9845 44.8956 20.4707 45.7188 19.6453 46.6328C19.0346 47.309 18.524 48.183 18.252 49.0178C18.0314 49.6949 17.989 50.0215 17.9533 51.3208C17.9137 52.7563 17.9233 52.8573 18.1382 53.2734C18.416 53.8113 18.8673 54.1253 19.4702 54.2C20.0915 54.2771 20.5605 54.5275 20.8269 54.9247C21.0482 55.2543 21.0496 55.2789 21.0496 58.6607V62.0647H24.2715H27.4933L27.4956 58.9148C27.4969 57.1823 27.5378 55.5928 27.5866 55.3825C27.7298 54.7651 28.2076 54.3672 28.9604 54.2384C29.7287 54.107 30.1449 53.869 30.4418 53.3914C30.6508 53.055 30.6659 52.9286 30.6613 51.5649C30.6556 49.8995 30.5259 49.2431 29.986 48.1464C28.7557 45.6474 25.9802 44.2302 23.2175 44.6902Z" fill="#858C68"/>
</svg>
