<svg width="80" height="80" viewBox="0 0 80 80" fill="none" xmlns="http://www.w3.org/2000/svg">
<path fill-rule="evenodd" clip-rule="evenodd" d="M28.4487 17.1786C26.0301 17.613 23.1939 18.8778 21.1174 20.448C16.9942 23.566 14.7813 28.8852 15.0171 35.1111C15.1652 39.0203 15.9453 42.1619 17.5966 45.5C20.1474 50.6561 24.3214 54.8749 30.5845 58.6272C33.6777 60.4804 39.1031 63 40.0004 63C41.188 63 48.0928 59.6117 51.3949 57.4086C59.129 52.2484 63.5241 45.8694 64.7445 38.033C64.9923 36.4421 65.0783 33.5104 64.9199 32.0556C64.4522 27.7593 62.9544 24.4002 60.3322 21.7673C58.7821 20.2109 57.475 19.3282 55.3295 18.389C53.0159 17.3762 51.3297 17 49.1048 17C46.0815 17 43.1441 17.9424 40.8745 19.6408C40.4383 19.9671 40.024 20.2124 39.9542 20.1858C39.8843 20.1591 39.451 19.8689 38.9913 19.5409C37.3492 18.3692 35.3117 17.5278 33.2551 17.1718C32.0272 16.9592 29.6515 16.9626 28.4487 17.1786ZM29.1193 20.7341C27.3211 21.0571 25.285 21.8976 23.8121 22.9251C19.967 25.6074 18.0912 30.4993 18.6645 36.3493C19.4486 44.3492 23.9645 50.6208 32.6013 55.7042C34.0903 56.5806 36.8511 57.9674 38.6877 58.7618L40.0004 59.3294L41.313 58.7618C44.2776 57.4797 46.9019 56.0831 49.3283 54.4963C54.9735 50.8042 58.6429 46.3796 60.3312 41.2287C62.4851 34.6569 61.4494 27.891 57.7309 24.242C56.6909 23.2214 55.9469 22.6779 54.7579 22.0697C51.3404 20.3217 47.6331 20.0853 44.7416 21.4311C43.7896 21.8742 42.8151 22.5466 41.9191 23.3786C40.8554 24.3662 40.7146 24.4444 40.0004 24.4444C39.2729 24.4444 39.1679 24.3831 37.9183 23.2278C35.5504 21.0384 32.3983 20.1451 29.1193 20.7341ZM38.4922 29.457C36.429 29.9248 34.5617 31.3824 33.6379 33.2464C32.4106 35.7232 32.6324 38.3662 34.258 40.632C34.5408 41.026 34.7545 41.3622 34.733 41.3792C34.7116 41.3962 34.3876 41.6143 34.0132 41.8641C32.5299 42.8533 31.1412 44.4163 30.3812 45.9518C29.7967 47.1326 29.951 48.0462 30.8347 48.6386C31.6027 49.1532 32.8459 48.8776 33.2762 48.0971C34.2721 46.2909 34.8851 45.5568 36.0367 44.7906C37.5987 43.7516 39.5481 43.3542 41.3261 43.7126C43.5919 44.1692 45.2203 45.3801 46.3753 47.4672C46.8021 48.2384 46.9656 48.4297 47.3764 48.6389C47.9908 48.9517 48.5071 48.9562 49.0485 48.6536C49.5911 48.3502 49.9427 47.7301 49.9427 47.0763C49.9427 45.7814 47.9825 43.1949 45.9978 41.8711C45.6176 41.6176 45.2891 41.3962 45.2677 41.3792C45.2462 41.3622 45.4599 41.026 45.7427 40.632C46.3756 39.7498 46.7302 38.9657 46.9677 37.9226C47.8151 34.2023 45.3926 30.3843 41.6202 29.4947C40.879 29.3199 39.1869 29.2994 38.4922 29.457ZM39.1556 32.9861C38.6093 33.1273 37.6599 33.6837 37.3597 34.0386C37.2078 34.2181 36.9501 34.6203 36.787 34.9326C36.5351 35.4148 36.4902 35.6419 36.488 36.4444C36.4858 37.3093 36.5176 37.4479 36.8652 38.089C37.2879 38.8688 37.6384 39.2054 38.4803 39.6406C38.9667 39.8919 39.1909 39.9354 40.0004 39.9357C40.7793 39.9359 41.0403 39.8891 41.4526 39.6753C42.2958 39.2384 42.7393 38.8199 43.1343 38.0884C43.4718 37.4633 43.5123 37.2942 43.5156 36.5C43.5216 35.0453 42.9127 33.9979 41.6818 33.3454C40.9601 32.9628 39.8545 32.8054 39.1556 32.9861Z" fill="#858C68"/>
</svg>
