<svg width="80" height="80" viewBox="0 0 80 80" fill="none" xmlns="http://www.w3.org/2000/svg">
<path fill-rule="evenodd" clip-rule="evenodd" d="M36.9342 14.0979C35.7808 14.2339 35.3204 14.432 34.911 14.9688C34.6606 15.297 34.6049 15.4889 34.6049 16.0238C34.6049 16.7299 34.7939 17.0962 35.3871 17.5392C35.7375 17.8009 35.6583 17.7984 39.1553 17.6588C43.221 17.4965 46.3207 18.1373 49.8304 19.8661C52.1998 21.0331 53.8737 22.211 55.6868 23.987L56.5342 24.8171L54.6026 24.8739C53.3701 24.9102 52.5817 24.9819 52.4242 25.0721C51.7709 25.446 51.3881 26.3903 51.5883 27.1338C51.7533 27.7465 52.4488 28.3575 53.0882 28.4516C53.3587 28.4913 55.2673 28.5078 57.3296 28.4883C60.8722 28.4545 61.101 28.4398 61.4765 28.2193C61.695 28.0909 61.9889 27.8149 62.1298 27.606C62.3837 27.2292 62.3858 27.1933 62.3858 23.085C62.3858 18.5138 62.3727 18.42 61.669 17.919C61.1369 17.5401 60.1693 17.5062 59.665 17.849C58.9533 18.3325 58.8117 18.7274 58.767 20.3517L58.7273 21.7938L57.6213 20.802C53.7199 17.3035 49.4263 15.1891 44.4333 14.3071C42.7931 14.0174 38.6073 13.9005 36.9342 14.0979ZM18.5521 17.7919C17.9935 18.0672 17.6939 18.5639 17.6424 19.2998C17.6059 19.8212 17.6448 20.0006 17.8643 20.3235C18.3479 21.035 18.7428 21.1767 20.3673 21.2213L21.8096 21.261L20.8177 22.3668C17.3173 26.2695 15.1948 30.5796 14.3243 35.5531C13.8569 38.2235 13.904 43.3255 14.4058 44.3925C14.9769 45.6068 16.6386 45.7692 17.4613 44.6912C17.8303 44.2077 17.814 44.5106 17.6764 40.7223C17.6107 38.913 17.6311 38.1679 17.7769 37.0647C18.4162 32.2253 20.5749 27.7999 24.0031 24.3011L24.8334 23.4538L24.8902 25.3852C24.9264 26.6175 24.9981 27.4058 25.0883 27.5633C25.4623 28.2165 26.4067 28.5993 27.1504 28.3991C27.7631 28.2341 28.3742 27.5387 28.4683 26.8994C28.508 26.629 28.5245 24.7206 28.505 22.6586C28.4712 19.1164 28.4565 18.8876 28.2359 18.5122C28.1075 18.2938 27.8315 17.9999 27.6226 17.859C27.2455 17.6048 27.2125 17.603 23.0838 17.6056C19.4857 17.6078 18.8747 17.633 18.5521 17.7919ZM63.2323 34.6841C62.768 34.8948 62.2975 35.4731 62.2097 35.9411C62.1704 36.1509 62.1936 36.7757 62.2616 37.3295C62.4186 38.6095 62.4213 41.3497 62.2668 42.5998C61.9415 45.2311 61.2838 47.4364 60.1162 49.8109C58.9605 52.1612 57.7367 53.8966 55.9504 55.7186L55.1707 56.5138L55.1139 54.5825C55.0777 53.3502 55.006 52.5619 54.9157 52.4044C54.5418 51.7511 53.5974 51.3684 52.8537 51.5686C52.2409 51.7335 51.6299 52.4289 51.5358 53.0683C51.496 53.3387 51.4796 55.2471 51.4991 57.3091C51.5329 60.8513 51.5476 61.0801 51.7682 61.4554C51.8966 61.6739 52.1725 61.9678 52.3815 62.1087C52.7584 62.3626 52.7943 62.3647 56.9031 62.3647C61.4749 62.3647 61.5687 62.3516 62.0698 61.648C62.4487 61.116 62.4826 60.1485 62.1398 59.6442C61.656 58.9324 61.2615 58.791 59.6346 58.7463L58.1901 58.7066L59.1403 57.6547C62.6934 53.7211 64.864 49.256 65.7421 44.0737C66.1458 41.6919 66.0588 36.5542 65.5982 35.5752C65.2077 34.7446 64.0555 34.3107 63.2323 34.6841ZM18.8323 51.6229C18.5938 51.7079 18.2945 51.8717 18.1672 51.9869C17.6283 52.4745 17.6183 52.5646 17.6183 56.917C17.6183 61.4503 17.6319 61.5481 18.335 62.0487C18.8671 62.4276 19.8347 62.4614 20.3391 62.1187C21.0507 61.6352 21.1924 61.2403 21.2371 59.616L21.2767 58.1739L22.3827 59.1657C26.6967 63.0339 31.6394 65.2759 37.1854 65.8799C39.5173 66.1339 43.5814 65.9626 44.4113 65.5753C44.618 65.479 44.9248 65.2195 45.093 64.9989C45.3435 64.6707 45.3991 64.4788 45.3991 63.9439C45.3991 63.2377 45.2102 62.8715 44.617 62.4285C44.2665 62.1667 44.3457 62.1692 40.8488 62.3089C36.7863 62.4711 33.708 61.8327 30.1737 60.0953C27.8231 58.9398 26.0874 57.7161 24.2653 55.9301L23.4699 55.1505L25.4015 55.0937C26.634 55.0575 27.4224 54.9858 27.5799 54.8956C28.2279 54.5248 28.6159 53.5769 28.4191 52.846C28.278 52.3221 27.683 51.7212 27.156 51.5699C26.5253 51.3891 19.36 51.4346 18.8323 51.6229Z" fill="#858C68"/>
</svg>
