<svg width="80" height="80" viewBox="0 0 80 80" fill="none" xmlns="http://www.w3.org/2000/svg">
<path fill-rule="evenodd" clip-rule="evenodd" d="M32.278 12.1542C31.6595 12.4291 31.3254 12.965 31.3269 13.6797C31.328 14.1994 32.328 17.8125 32.5617 18.1415C33.3586 19.2624 35.2477 18.7993 35.4702 17.4284C35.5465 16.9579 34.5735 13.2058 34.249 12.7196C33.826 12.0856 32.9789 11.8425 32.278 12.1542ZM46.3394 12.1914C46.13 12.2965 45.8574 12.5342 45.7338 12.7196C45.4093 13.2058 44.4363 16.9579 44.5127 17.4284C44.7448 18.8592 46.7421 19.2706 47.4664 18.037C47.7505 17.5532 48.6298 14.2302 48.6325 13.6299C48.6364 12.7601 47.8977 12 47.0483 12C46.8678 12 46.5488 12.0861 46.3394 12.1914ZM19.9147 19.3161C19.7342 19.4276 19.4945 19.6223 19.3821 19.7488C19.1541 20.0054 19.0274 20.8012 19.1418 21.2574C19.2368 21.6357 21.958 24.421 22.5088 24.7037C23.9224 25.4292 25.4214 23.9526 24.694 22.5513C24.4775 22.1343 22.0494 19.6532 21.5041 19.2918C21.1392 19.0498 20.3255 19.0622 19.9147 19.3161ZM58.4817 19.2842C57.9311 19.6603 55.5058 22.1335 55.3009 22.5276C54.5693 23.9356 56.0442 25.4372 57.4504 24.7157C57.6866 24.5946 58.5284 23.8348 59.321 23.0275C60.4938 21.8327 60.7762 21.4835 60.8386 21.1506C60.9631 20.487 60.8256 19.983 60.4052 19.5626C60.0747 19.2321 59.9409 19.1763 59.3899 19.1397C58.9181 19.1083 58.685 19.1453 58.4817 19.2842ZM30.3966 26.3288C29.7799 26.7067 29.658 27.0153 29.5975 28.3533L29.5428 29.5627L26.5887 29.6174C22.369 29.6955 22.5385 29.5419 22.5448 33.2832C22.5495 36.0151 22.6236 36.5793 23.1528 37.9146C24.3291 40.8826 27.0745 42.9785 30.281 43.3562L30.9098 43.4303L31.4955 44.2658C32.8991 46.268 35.1463 47.7928 37.557 48.3789L38.3503 48.5717V51.4051V54.2384H36.2877C34.3254 54.2384 34.2069 54.2504 33.8533 54.4868C32.8486 55.158 32.8709 56.4751 33.8998 57.2376C34.2041 57.4631 34.2954 57.4665 39.9914 57.4665C45.6874 57.4665 45.7788 57.4631 46.083 57.2376C47.1119 56.4751 47.1342 55.158 46.1295 54.4868C45.7759 54.2504 45.6574 54.2384 43.6952 54.2384H41.6326V51.4081V48.5778L42.4144 48.3877C44.9495 47.7715 47.158 46.2368 48.6305 44.0681C49.0555 43.4421 49.0731 43.4303 49.6966 43.3559C52.9222 42.9706 55.6512 40.889 56.83 37.9146C57.3544 36.5914 57.4299 36.0148 57.4364 33.2832C57.4421 30.8764 57.4318 30.7496 57.2023 30.3834C56.7601 29.6776 56.7601 29.6776 53.4488 29.6174L50.4401 29.5627L50.3853 28.359C50.328 27.0984 50.2632 26.8917 49.7849 26.444L49.4925 26.1704L40.1194 26.1424C30.9795 26.1152 30.7375 26.1198 30.3966 26.3288ZM32.8816 34.1859C32.8838 39.7304 32.9151 40.0286 33.6526 41.5251C34.4789 43.2014 35.886 44.3992 37.7485 45.0118C38.9769 45.4156 40.8611 45.4379 42.0702 45.0625C43.3251 44.673 44.119 44.2 45.0356 43.2957C45.6839 42.6562 45.9683 42.2696 46.3232 41.5449C47.0688 40.0227 47.099 39.7368 47.1012 34.1859L47.1031 29.2891H39.9914H32.8798L32.8816 34.1859ZM12.9035 31.4742C12.5585 31.6139 12.1092 32.2046 12.031 32.6213C11.8958 33.3419 12.2251 34.0522 12.8401 34.3665C13.4297 34.6679 17.0289 35.5529 17.4121 35.4906C18.7812 35.2685 19.2434 33.3785 18.1233 32.5821C17.7418 32.3108 14.2053 31.3663 13.6041 31.3751C13.3441 31.3789 13.0288 31.4236 12.9035 31.4742ZM63.9522 31.8828C62.9593 32.1547 62.0176 32.4693 61.8595 32.5819C61.2488 33.0167 61.0492 33.9563 61.4198 34.6528C61.6571 35.0988 62.3354 35.524 62.8034 35.5201C63.3309 35.5157 67.007 34.481 67.3261 34.2471C68.5983 33.3148 67.906 31.3495 66.3156 31.3783C66.0086 31.3839 64.9451 31.6109 63.9522 31.8828ZM25.7972 34.2954C25.891 36.4539 26.3374 37.5509 27.5867 38.693C28.1008 39.1628 29.5545 40.0173 29.627 39.8922C29.6408 39.8684 29.6379 38.2854 29.6205 36.3745L29.5886 32.9002H27.6627H25.7367L25.7972 34.2954ZM50.3624 36.3745C50.345 38.2854 50.3405 39.8668 50.3526 39.8889C50.4247 40.0211 51.8518 39.1923 52.3716 38.7163C53.6376 37.5572 54.0986 36.4349 54.1879 34.2954L54.2461 32.9002H52.3201H50.3942L50.3624 36.3745ZM14.8444 45.0461C13.8009 45.332 12.8162 45.6619 12.6562 45.7791C12.4963 45.8964 12.2793 46.1611 12.1742 46.3674C11.6351 47.4247 12.4123 48.6608 13.6125 48.6553C14.2127 48.6526 17.5352 47.7733 18.0189 47.4891C19.0585 46.8785 18.9573 45.203 17.8489 44.677C17.312 44.4223 16.9664 44.4646 14.8444 45.0461ZM62.0489 44.7474C60.9994 45.3492 60.9515 46.8944 61.964 47.4891C62.4477 47.7733 65.7701 48.6526 66.3703 48.6553C67.24 48.6593 68 47.9204 68 47.0709C68 46.6398 67.69 46.0455 67.3261 45.7787C67.007 45.5449 63.3309 44.5101 62.8034 44.5058C62.6228 44.5042 62.2833 44.613 62.0489 44.7474ZM22.4858 55.3272C21.9427 55.6161 19.2332 58.4044 19.1418 58.7684C18.9366 59.5863 19.279 60.3891 19.9913 60.7597C20.3901 60.9672 21.1725 60.954 21.5041 60.7341C22.0494 60.3726 24.4775 57.8915 24.694 57.4746C25.4238 56.0687 23.8922 54.5792 22.4858 55.3272ZM55.9891 55.2958C55.2015 55.684 54.8796 56.6818 55.2863 57.4746C55.5777 58.0429 58.3568 60.7686 58.744 60.8657C58.9077 60.9068 59.2665 60.9151 59.5412 60.8841C60.4887 60.7773 61.0967 59.7877 60.841 58.7684C60.746 58.3902 58.0248 55.6048 57.474 55.3222C56.9802 55.0687 56.4681 55.0596 55.9891 55.2958ZM33.1224 61.4237C32.925 61.5211 32.6721 61.7292 32.5604 61.8862C32.3053 62.2452 31.3245 65.858 31.3302 66.4178C31.3461 67.9622 33.3951 68.5859 34.249 67.3063C34.5735 66.8201 35.5465 63.0679 35.4702 62.5974C35.2973 61.5325 34.108 60.9378 33.1224 61.4237ZM45.3763 61.4237C44.9326 61.6424 44.5925 62.1051 44.5123 62.5994C44.4494 62.9874 45.3327 66.578 45.6366 67.1695C45.8532 67.5909 46.3967 67.9388 46.9215 67.992C47.8435 68.0855 48.6369 67.3454 48.6325 66.3959C48.6298 65.7956 47.7505 62.4727 47.4664 61.9889C47.0707 61.3147 46.1192 61.0574 45.3763 61.4237Z" fill="#858C68"/>
</svg>
