<svg width="383" height="377" viewBox="0 0 383 377" fill="none" xmlns="http://www.w3.org/2000/svg">
<path d="M169.517 373.166C171.907 373.38 174.029 373.131 175.884 372.418C177.703 371.735 179.257 370.751 180.544 369.466C181.829 368.214 182.838 366.758 183.573 365.098C184.276 363.436 184.703 361.765 184.853 360.085C185.024 358.179 184.821 356.273 184.243 354.365C183.663 352.489 182.79 350.783 181.625 349.246C180.426 347.738 178.993 346.47 177.327 345.442C175.658 344.445 173.806 343.856 171.771 343.674C171.19 343.621 170.506 343.625 169.719 343.685C168.9 343.742 168.087 343.913 167.28 344.199C166.47 344.517 165.711 344.986 165.005 345.606C164.265 346.224 163.669 347.066 163.215 348.132L162.731 348.088L163.213 342.711C163.698 342.754 164.22 342.736 164.781 342.656C165.309 342.573 165.904 342.48 166.564 342.376C167.424 342.225 168.38 342.1 169.431 341.998C170.449 341.894 171.524 341.893 172.655 341.995C175.465 342.247 177.892 342.953 179.937 344.113C181.982 345.273 183.645 346.692 184.927 348.37C186.21 350.048 187.119 351.888 187.656 353.89C188.19 355.924 188.367 357.942 188.187 359.945C188.008 361.947 187.474 363.902 186.587 365.808C185.699 367.715 184.459 369.378 182.867 370.798C181.271 372.25 179.332 373.363 177.049 374.135C174.765 374.907 172.138 375.159 169.166 374.893C168.1 374.797 167.156 374.615 166.334 374.346C165.479 374.074 164.721 373.81 164.06 373.556C163.59 373.351 163.166 373.182 162.787 373.051C162.373 372.948 161.972 372.88 161.584 372.845L162.067 367.467L162.551 367.511C162.655 368.529 162.937 369.385 163.396 370.077C163.852 370.802 164.419 371.374 165.098 371.793C165.744 372.209 166.465 372.518 167.261 372.719C168.022 372.95 168.774 373.099 169.517 373.166ZM160.45 342.048L160.217 341.979C159.999 341.914 159.774 341.932 159.542 342.032C159.3 342.164 159.08 342.335 158.882 342.547C158.684 342.759 158.512 342.996 158.367 343.257C158.191 343.509 158.07 343.744 158.006 343.962L150.638 368.821C150.574 369.038 150.527 369.312 150.497 369.641C150.467 369.97 150.493 370.282 150.574 370.577C150.625 370.863 150.716 371.127 150.847 371.368C150.978 371.61 151.153 371.763 151.371 371.828L151.604 371.897L151.466 372.364L144.889 370.415L145.028 369.948L145.354 370.045C145.808 370.112 146.251 369.871 146.684 369.323C147.108 368.806 147.385 368.33 147.514 367.894L150.485 357.867L147.874 357.093C146.443 356.669 145.09 356.099 143.814 355.382C142.498 354.688 141.417 353.826 140.572 352.798C139.687 351.791 139.088 350.616 138.776 349.272C138.455 347.959 138.543 346.463 139.04 344.784C139.446 343.416 140.09 342.271 140.972 341.349C141.854 340.426 142.892 339.719 144.087 339.228C145.272 338.767 146.593 338.533 148.049 338.525C149.475 338.508 150.95 338.725 152.473 339.176L160.588 341.582L160.45 342.048ZM154.555 341.569C150.948 340.5 148.183 340.357 146.26 341.14C144.305 341.914 143.006 343.389 142.36 345.565C141.706 347.773 141.965 349.811 143.136 351.681C144.276 353.541 146.369 354.922 149.416 355.825L150.955 356.281L155.254 341.776L154.555 341.569ZM129.405 365.825L122.829 363.876L122.967 363.41L123.34 363.521C123.567 363.554 123.802 363.505 124.043 363.374C124.254 363.233 124.459 363.057 124.657 362.845C124.815 362.655 124.966 362.43 125.111 362.168C125.247 361.938 125.347 361.714 125.412 361.496L132.779 336.638C132.853 336.389 132.9 336.115 132.921 335.817C132.942 335.519 132.931 335.211 132.89 334.895C132.839 334.609 132.764 334.35 132.664 334.117C132.523 333.906 132.349 333.753 132.14 333.658L131.814 333.561L131.952 333.095L138.528 335.044L138.39 335.51L138.157 335.441C137.908 335.367 137.667 335.38 137.435 335.48C137.193 335.612 136.973 335.783 136.775 335.995C136.567 336.238 136.391 336.49 136.246 336.752C136.092 337.044 135.978 337.315 135.904 337.564L128.537 362.422C128.472 362.64 128.429 362.898 128.409 363.196C128.388 363.495 128.403 363.786 128.453 364.072C128.504 364.358 128.6 364.606 128.74 364.817C128.871 365.058 129.061 365.216 129.31 365.29L129.543 365.359L129.405 365.825ZM113.949 360.851L107.777 357.751C104.56 356.135 102.439 354.289 101.413 352.213C100.343 350.152 100.376 347.991 101.512 345.731C102.123 344.513 102.959 343.572 104.019 342.907C105.078 342.242 106.254 341.816 107.545 341.63C108.793 341.458 110.098 341.497 111.461 341.746C112.795 341.98 114.041 342.389 115.2 342.971L116.852 343.801L122.42 332.716C122.536 332.484 122.638 332.209 122.726 331.89C122.799 331.6 122.836 331.31 122.836 331.02C122.808 330.715 122.765 330.44 122.707 330.193C122.621 329.932 122.461 329.743 122.23 329.627L122.012 329.517L122.231 329.083L128.36 332.161L128.141 332.596L127.924 332.487C127.721 332.385 127.489 332.377 127.228 332.464C126.967 332.55 126.72 332.68 126.488 332.854C126.255 333.028 126.045 333.23 125.856 333.462C125.652 333.723 125.492 333.969 125.376 334.201L113.738 357.37C113.534 357.776 113.417 358.297 113.387 358.936C113.357 359.574 113.545 360.031 113.95 360.307L114.168 360.416L113.949 360.851ZM110.193 357.059L116.088 345.322L114.784 344.667C113.625 344.085 112.516 343.728 111.457 343.595C110.37 343.448 109.391 343.483 108.52 343.699C107.65 343.914 106.888 344.276 106.234 344.782C105.581 345.288 105.079 345.889 104.73 346.585C104.308 347.425 104.059 348.281 103.985 349.151C103.868 350.035 103.989 350.913 104.35 351.784C104.668 352.669 105.254 353.526 106.108 354.354C106.947 355.211 108.106 356.011 109.584 356.753L110.193 357.059ZM108.267 322.636L108.068 322.496C107.882 322.366 107.663 322.311 107.411 322.332C107.139 322.379 106.876 322.472 106.621 322.609C106.366 322.747 106.128 322.917 105.907 323.118C105.659 323.301 105.471 323.485 105.34 323.671L90.4357 344.887C90.3052 345.072 90.1733 345.317 90.0399 345.619C89.9066 345.922 89.8317 346.226 89.8152 346.531C89.7722 346.818 89.7744 347.097 89.8218 347.368C89.8692 347.639 89.9857 347.84 90.1715 347.971L90.3705 348.111L90.0909 348.509L84.4785 344.566L84.7581 344.168L85.0368 344.363C85.4455 344.571 85.9425 344.485 86.5276 344.103C87.0941 343.748 87.5079 343.385 87.7688 343.013L93.7809 334.455L91.5519 332.889C90.3312 332.032 89.2303 331.06 88.2492 329.975C87.2228 328.897 86.4729 327.736 85.9995 326.492C85.4808 325.256 85.2878 323.951 85.4203 322.577C85.5341 321.231 86.0944 319.841 87.1011 318.408C87.9213 317.24 88.8965 316.36 90.0266 315.767C91.1567 315.174 92.3661 314.834 93.6548 314.749C94.9248 314.69 96.2515 314.889 97.6349 315.345C98.9918 315.783 100.32 316.459 101.621 317.372L108.546 322.238L108.267 322.636ZM102.831 320.303C99.7529 318.141 97.1776 317.124 95.1051 317.254C93.0061 317.364 91.3041 318.349 89.9992 320.206C88.6756 322.09 88.271 324.105 88.7855 326.249C89.2734 328.376 90.8176 330.352 93.4181 332.179L94.7316 333.102L103.428 320.723L102.831 320.303ZM88.7795 308.984L88.6039 308.816C88.4165 308.637 88.1965 308.538 87.9438 308.521C87.6687 308.527 87.3946 308.579 87.1214 308.676C86.8249 308.751 86.5522 308.872 86.3035 309.038C86.0314 309.181 85.8056 309.347 85.6261 309.534L67.6243 328.328C67.4673 328.492 67.3229 328.713 67.1913 328.991C67.0363 329.247 66.9276 329.525 66.8652 329.824C66.7794 330.101 66.7507 330.366 66.7791 330.617C66.785 330.892 66.8816 331.12 67.069 331.299L67.2446 331.467L66.9082 331.819L53.3833 318.864L56.5126 315.597L56.8639 315.934C56.3948 316.517 56.1569 317.187 56.1503 317.944C56.1212 318.725 56.5048 319.496 57.3011 320.259L64.3621 327.022L72.8751 318.135L67.0436 312.549C66.505 312.033 65.903 311.771 65.2376 311.762C64.5489 311.731 63.9914 311.938 63.5652 312.383L63.2139 312.047L67.4199 307.655L67.7712 307.992C67.3674 308.413 67.1954 308.945 67.255 309.586C67.3147 310.227 67.6256 310.816 68.1877 311.355L74.0192 316.94L84.2146 306.296L76.5212 298.927C76.0762 298.501 75.5889 298.236 75.0591 298.133C74.5293 298.03 74.0245 298.017 73.5445 298.097C73.0187 298.177 72.5519 298.336 72.1442 298.574C71.6906 298.813 71.3517 299.05 71.1274 299.284L70.7761 298.948L74.7129 294.837L89.116 308.633L88.7795 308.984ZM46.5803 256.984L51.8063 253.876L52.055 254.294C51.7092 254.537 51.3631 254.875 51.0166 255.308C50.6701 255.74 50.393 256.226 50.1851 256.764C49.9886 257.259 49.8809 257.775 49.8622 258.315C49.8434 258.854 49.975 259.361 50.2568 259.835L61.7208 279.108C62.0026 279.582 62.385 279.939 62.8679 280.18C63.3788 280.405 63.9065 280.563 64.4512 280.654C65.0072 280.7 65.5662 280.688 66.1282 280.618C66.6736 280.52 67.1218 280.386 67.4729 280.215L67.7216 280.633L62.4956 283.741L61.4014 281.902C60.8709 281.01 59.9823 280.689 58.7355 280.94L27.8059 286.32L47.1212 261.7C47.4233 261.256 47.656 260.759 47.8194 260.209C47.9549 259.676 47.89 259.186 47.6248 258.74L46.5803 256.984ZM59.7353 279.101L50.1613 263.005L34.1823 283.433L59.7353 279.101ZM42.0973 251.439C42.9895 251.436 43.8741 251.608 44.7511 251.954C45.628 252.3 46.2646 253.039 46.661 254.171L47.1591 255.595L46.6999 255.755C46.6357 255.572 46.504 255.343 46.3051 255.069C46.0755 254.806 45.7794 254.549 45.4167 254.298C45.054 254.047 44.6301 253.817 44.1449 253.609C43.6292 253.411 43.0377 253.292 42.3704 253.251L15.55 252.896C15.0373 252.903 14.6586 252.95 14.4137 253.036C13.9545 253.197 13.6507 253.457 13.5023 253.819C13.3125 254.16 13.2658 254.468 13.3622 254.744L12.903 254.904L11.5855 251.139L36.0858 231.021C36.4608 230.718 36.757 230.288 36.9743 229.731C37.1611 229.185 37.1787 228.646 37.0272 228.115L37.4864 227.954L39.784 234.52L39.3249 234.681C39.2392 234.436 39.0617 234.223 38.7923 234.043C38.4816 233.842 38.158 233.801 37.8212 233.919C37.7294 233.951 37.6024 234.029 37.4402 234.155L16.6773 251.11L42.0973 251.439ZM33.6155 210.123L33.5781 209.883C33.5432 209.659 33.4147 209.465 33.1926 209.303C32.9654 209.109 32.7137 208.967 32.4374 208.879C32.1611 208.791 31.8738 208.737 31.5755 208.718C31.2401 208.671 30.9442 208.668 30.6878 208.708L17.6617 210.733C17.8353 211.428 18.1643 212.066 18.6485 212.647C19.1276 213.196 19.7325 213.709 20.4631 214.187C21.1887 214.632 21.9919 215.048 22.8727 215.436C23.7486 215.793 24.654 216.128 25.5889 216.442C26.2846 216.695 27.0334 216.972 27.8351 217.274C28.6049 217.581 29.3907 217.886 30.1925 218.188C31.722 218.737 33.0806 219.56 34.2683 220.655C35.4239 221.756 36.1288 223.123 36.3828 224.757L36.7789 227.305L36.2982 227.379C36.1837 226.642 35.9163 225.978 35.4962 225.387C35.0712 224.764 34.576 224.218 34.0106 223.748C33.4452 223.278 32.8418 222.879 32.2002 222.552C31.5536 222.193 30.9516 221.909 30.394 221.701L22.9782 218.965C22.1393 218.635 21.3276 218.269 20.5429 217.866C19.7212 217.436 19.0013 216.711 18.3833 215.691C18.4964 217.052 18.4269 218.294 18.1747 219.416C17.9225 220.538 17.5172 221.52 16.9589 222.362C16.4005 223.203 15.7347 223.881 14.9613 224.395C14.1559 224.914 13.2885 225.246 12.3592 225.391C11.1735 225.575 10.0417 225.472 8.9636 225.082C7.85348 224.696 6.8687 224.062 6.00928 223.178C5.11781 222.299 4.37021 221.185 3.76647 219.834C3.12571 218.457 2.66832 216.887 2.39432 215.125L1.31823 208.203L1.7989 208.129L1.83626 208.369C1.87113 208.593 1.99965 208.787 2.22181 208.949C2.41192 209.116 2.64512 209.244 2.92141 209.332C3.19769 209.421 3.48502 209.475 3.78339 209.494C4.08175 209.513 4.34309 209.505 4.5674 209.47L30.1871 205.487C30.4435 205.447 30.7269 205.371 31.0374 205.257C31.3158 205.148 31.5733 205.009 31.8097 204.841C32.0461 204.673 32.2455 204.478 32.4079 204.256C32.5703 204.034 32.6341 203.811 32.5992 203.586L32.5618 203.346L33.0425 203.271L34.0962 210.049L33.6155 210.123ZM11.1674 222.474C12.0967 222.33 12.932 222.003 13.6734 221.494C14.3826 220.99 14.9734 220.357 15.4456 219.594C15.9177 218.831 16.2443 217.977 16.4253 217.03C16.6062 216.082 16.6145 215.08 16.4501 214.023L15.9793 210.995L3.72221 212.9L3.8343 213.621C4.31754 216.729 5.2039 219.053 6.49337 220.592C7.78284 222.131 9.34086 222.758 11.1674 222.474ZM31.4675 184.473L31.4913 184.231C31.5166 183.973 31.442 183.738 31.2673 183.525C31.0927 183.312 30.8826 183.129 30.6371 182.975C30.3947 182.788 30.1315 182.648 29.8473 182.555C29.5309 182.459 29.2436 182.398 28.9854 182.372L3.18195 179.84C2.95603 179.817 2.69466 179.824 2.39786 179.86C2.10105 179.896 1.81563 179.982 1.54159 180.118C1.27072 180.222 1.04509 180.363 0.864712 180.541C0.652056 180.715 0.534639 180.916 0.512462 181.142L0.488701 181.384L0.00458308 181.336L0.679407 174.462L1.16352 174.509L1.13976 174.751C1.11442 175.009 1.18906 175.245 1.3637 175.457C1.50606 175.667 1.69842 175.865 1.94078 176.052C2.1863 176.206 2.44955 176.346 2.73052 176.471C3.01465 176.565 3.26968 176.622 3.4956 176.644L13.5168 177.628L3.43625 165.299C3.20339 165.015 2.90946 164.856 2.55444 164.821C2.26397 164.793 2.10606 164.907 2.08072 165.166L1.5966 165.118L2.10984 159.89L2.59396 159.937C2.56287 160.586 2.69949 161.186 3.00382 161.737C3.31132 162.256 3.72702 162.834 4.25094 163.472L14.5982 176.072C14.8687 173.981 15.4869 172.331 16.4528 171.122C17.4186 169.914 18.6803 169.011 20.2378 168.414L28.3591 165.35C28.8654 165.172 29.4265 164.934 30.0423 164.636C30.6289 164.302 31.2027 163.935 31.7634 163.534C32.295 163.097 32.7669 162.606 33.1789 162.06C33.5587 161.51 33.7803 160.913 33.8436 160.268L34.3278 160.315L34.0901 162.736C33.9983 163.672 33.79 164.466 33.4652 165.118C33.1082 165.768 32.6785 166.328 32.1759 166.8C31.6443 167.237 31.069 167.62 30.45 167.951C29.8342 168.249 29.2216 168.514 28.6122 168.748L20.4329 171.904C19.1786 172.4 18.1909 173.166 17.47 174.204C16.72 175.205 16.2414 176.429 16.0343 177.875L29.2991 179.177C29.5573 179.203 29.8348 179.197 30.1316 179.161C30.4284 179.125 30.7284 179.057 31.0315 178.956C31.3024 178.853 31.5441 178.713 31.7568 178.539C31.9372 178.361 32.0546 178.161 32.1091 177.938L32.1423 177.599L32.6264 177.647L31.9516 184.521L31.4675 184.473ZM7.28022 137.126C7.98378 134.696 9.05128 132.642 10.4827 130.963C11.883 129.276 13.5091 127.974 15.361 127.059C17.1908 126.103 19.1751 125.546 21.3138 125.389C23.4305 125.192 25.5323 125.395 27.6194 126C29.9556 126.676 31.9787 127.735 33.6886 129.175C35.4075 130.584 36.7513 132.24 37.7201 134.141C38.6889 136.042 39.2896 138.106 39.5222 140.335C39.7327 142.523 39.5132 144.738 38.8638 146.981C38.1692 149.379 37.1063 151.418 35.6748 153.097C34.2524 154.744 32.6308 156.03 30.81 156.955C28.9983 157.848 27.0542 158.382 24.9777 158.558C22.9013 158.733 20.8507 158.527 18.8259 157.941C16.8323 157.364 14.9736 156.437 13.2498 155.162C11.4948 153.877 10.0526 152.328 8.92308 150.516C7.80264 148.672 7.0638 146.618 6.70658 144.354C6.34937 142.09 6.54058 139.68 7.28022 137.126ZM37.4043 145.9C37.9152 143.786 37.9756 141.828 37.5856 140.027C37.1734 138.186 36.4665 136.546 35.4649 135.108C34.4321 133.661 33.1936 132.459 31.7492 131.5C30.3139 130.511 28.8175 129.79 27.26 129.339C25.5468 128.843 23.7277 128.654 21.8029 128.772C19.8781 128.89 18.048 129.322 16.3125 130.069C14.5459 130.806 12.9919 131.859 11.6507 133.226C10.2873 134.553 9.31698 136.213 8.7397 138.207C8.18046 140.138 8.11595 141.993 8.54617 143.772C8.94524 145.542 9.65665 147.166 10.6804 148.644C11.7132 150.091 12.9738 151.334 14.4624 152.373C15.951 153.412 17.4896 154.161 19.0783 154.621C20.7915 155.117 22.6151 155.291 24.5489 155.142C26.4516 154.984 28.2706 154.531 30.0061 153.785C31.7416 153.038 33.271 152.012 34.5942 150.707C35.9264 149.371 36.8631 147.769 37.4043 145.9ZM23.9402 99.7427C22.8233 101.867 22.2373 103.922 22.1821 105.908C22.1133 107.85 22.4244 109.663 23.1153 111.345C23.7774 113.012 24.7333 114.504 25.9829 115.821C27.2476 117.109 28.6262 118.145 30.1187 118.93C31.8122 119.821 33.6506 120.366 35.6338 120.566C37.5883 120.751 39.4989 120.602 41.3656 120.118C43.2187 119.59 44.9402 118.755 46.5303 117.612C48.0916 116.455 49.3477 114.972 50.2986 113.164C50.5703 112.647 50.8298 112.014 51.0773 111.265C51.3398 110.487 51.4943 109.67 51.5408 108.815C51.5586 107.945 51.4171 107.065 51.1162 106.174C50.8304 105.254 50.2825 104.38 49.4727 103.551L49.6991 103.12L54.4781 105.633C54.2517 106.064 54.0676 106.553 53.9259 107.102C53.7992 107.621 53.6567 108.206 53.4983 108.855C53.3068 109.707 53.0557 110.638 52.7449 111.647C52.4492 112.627 52.0372 113.62 51.509 114.624C50.1958 117.122 48.6106 119.091 46.7534 120.533C44.8961 121.974 42.9465 122.964 40.9047 123.503C38.8628 124.041 36.8147 124.173 34.7605 123.899C32.6775 123.61 30.7463 122.997 28.9667 122.062C27.1871 121.126 25.5879 119.882 24.1691 118.33C22.7502 116.777 21.6915 114.993 20.993 112.977C20.2657 110.946 19.9848 108.728 20.15 106.323C20.3153 103.919 21.0922 101.396 22.4808 98.7554C22.9789 97.8082 23.5103 97.0068 24.0749 96.351C24.6547 95.6666 25.1891 95.0683 25.6783 94.5561C26.0482 94.201 26.3668 93.8739 26.634 93.5747C26.8877 93.2318 27.105 92.8881 27.2862 92.5437L32.0652 95.0567L31.8388 95.4873C30.8585 95.1916 29.9605 95.1224 29.145 95.2798C28.3007 95.4221 27.5547 95.726 26.9069 96.1914C26.2742 96.6281 25.7118 97.1751 25.2196 97.8323C24.7138 98.4457 24.2874 99.0825 23.9402 99.7427ZM72.6169 83.434L72.7718 83.2465C72.9164 83.0715 72.9756 82.847 72.9495 82.5731C72.9234 82.2991 72.8517 82.0295 72.7343 81.7643C72.6375 81.4741 72.4973 81.211 72.3136 80.9751C72.1048 80.7186 71.9005 80.5077 71.7004 80.3425L51.9732 64.0474L66.5581 92.373L37.5532 83.8725L56.1179 99.2072C56.3179 99.3724 56.5636 99.5333 56.8549 99.6898C57.1213 99.8257 57.3957 99.9262 57.6784 99.9914C57.9817 100.032 58.2703 100.039 58.5442 100.013C58.8181 99.9865 59.0377 99.8734 59.2029 99.6734L59.3578 99.4859L59.7329 99.7956L56.3561 103.884L55.9811 103.574L56.136 103.386C56.2806 103.211 56.3398 102.987 56.3137 102.713C56.2876 102.439 56.2158 102.169 56.0984 101.904C55.981 101.639 55.8305 101.388 55.6467 101.152C55.438 100.896 55.2336 100.685 55.0336 100.52L35.0438 84.0079C34.8688 83.8633 34.6481 83.7231 34.3818 83.5872C34.1155 83.4514 33.841 83.3508 33.5583 83.2856C33.2757 83.2204 33.0099 83.2112 32.761 83.2579C32.4871 83.284 32.2778 83.3846 32.1332 83.5596L31.9783 83.7471L31.6033 83.4373L34.7632 79.6119L62.4652 87.8565L49.1375 62.2099L52.6382 57.9719L53.0132 58.2817L52.8583 58.4692C52.6931 58.6692 52.6235 58.9062 52.6496 59.1802C52.6507 59.4334 52.6997 59.7052 52.7964 59.9954C52.9138 60.2607 53.0644 60.5112 53.2481 60.7471C53.4318 60.983 53.6112 61.1732 53.7862 61.3178L73.776 77.8297C73.9761 77.9949 74.2217 78.1558 74.5131 78.3123C74.7794 78.4482 75.0539 78.5487 75.3365 78.6139C75.6398 78.6541 75.9284 78.6612 76.2024 78.6351C76.4763 78.609 76.6959 78.4959 76.8611 78.2959L77.016 78.1084L77.391 78.4182L72.992 83.7438L72.6169 83.434ZM79.1697 75.2688L79.3569 75.1136C79.5566 74.9479 79.6795 74.7406 79.7258 74.4916C79.7513 74.2176 79.7312 73.9393 79.6654 73.6568C79.6246 73.3536 79.536 73.069 79.3996 72.8029C79.2882 72.5162 79.1496 72.273 78.984 72.0733L62.3698 52.0419C62.2248 51.8671 62.0218 51.6985 61.7606 51.536C61.5243 51.3527 61.261 51.213 60.9705 51.1168C60.7051 51 60.4457 50.9412 60.1924 50.9406C59.9184 50.9151 59.6816 50.9851 59.4819 51.1507L59.2947 51.306L58.9841 50.9316L73.3993 38.9756L76.2874 42.4577L75.9129 42.7682C75.3868 42.2355 74.7481 41.9226 73.9968 41.8295C73.2248 41.7115 72.4144 42.0044 71.5657 42.7083L64.0399 48.9503L71.8967 58.4231L78.1121 53.268C78.6862 52.7918 79.0155 52.2237 79.1001 51.5637C79.2096 50.883 79.0677 50.3055 78.6744 49.8313L79.0488 49.5207L82.9306 54.201L82.5562 54.5115C82.1835 54.0622 81.6754 53.8306 81.0319 53.8166C80.3883 53.8027 79.767 54.0441 79.1679 54.541L72.9526 59.6961L82.3621 71.041L90.5619 64.24C91.0362 63.8467 91.3549 63.3927 91.518 62.8782C91.6811 62.3637 91.7508 61.8636 91.727 61.3777C91.7075 60.8462 91.6027 60.3643 91.4127 59.932C91.227 59.4541 91.0306 59.0903 90.8236 58.8407L91.198 58.5301L94.8314 62.9108L79.4802 75.6432L79.1697 75.2688ZM107.962 53.7225L108.17 53.5967L108.422 54.0129L102.511 57.5876L102.259 57.1714L102.467 57.0455C102.689 56.9113 102.833 56.7105 102.899 56.4434C102.965 56.1762 102.986 55.898 102.963 55.6089C102.967 55.303 102.922 55.0084 102.826 54.725C102.714 54.414 102.591 54.1475 102.456 53.9255L88.4091 30.6994L83.5807 33.6196C83.1367 33.8881 82.807 34.2202 82.5915 34.6158C82.3759 35.0115 82.2495 35.429 82.2121 35.8685C82.158 36.2803 82.1845 36.7001 82.2916 37.128C82.382 37.5281 82.5279 37.8947 82.7293 38.2277L82.3131 38.4794L79.5691 33.9424L98.2582 22.6392L101.002 27.1762L100.586 27.4279C100.385 27.0949 100.128 26.7955 99.8153 26.5296C99.4861 26.236 99.1266 26.0176 98.7368 25.8744C98.3302 25.7034 97.9016 25.6215 97.4512 25.6286C97.0007 25.6358 96.5535 25.7736 96.1095 26.0421L91.1979 29.0127L105.245 52.2388C105.379 52.4608 105.558 52.6938 105.781 52.9377C105.988 53.1539 106.214 53.3394 106.459 53.4942C106.732 53.6323 106.988 53.7426 107.228 53.8252C107.495 53.891 107.74 53.8568 107.962 53.7225ZM134.441 41.414L134.667 41.3249C134.909 41.2299 135.09 41.0713 135.212 40.8491C135.322 40.5968 135.389 40.3261 135.415 40.0372C135.459 39.7062 135.458 39.3931 135.411 39.0977C135.352 38.7722 135.276 38.4888 135.181 38.2474L127.018 17.5174L119.993 43.7571L120.154 44.1644C120.249 44.4058 120.386 44.6655 120.565 44.9435C120.762 45.1794 120.969 45.3943 121.185 45.5882C121.401 45.782 121.635 45.9339 121.887 46.0436C122.139 46.1534 122.386 46.1607 122.628 46.0657L122.854 45.9766L123.032 46.4292L116.605 48.96L116.427 48.5073L116.653 48.4182C116.894 48.3232 117.076 48.1646 117.198 47.9424C117.307 47.6901 117.375 47.4194 117.401 47.1305C117.445 46.7995 117.443 46.4864 117.397 46.191C117.338 45.8655 117.261 45.5821 117.166 45.3407L107.667 21.216C107.584 21.0048 107.459 20.7753 107.291 20.5275C107.124 20.2797 106.917 20.0648 106.672 19.8828C106.456 19.6889 106.228 19.5522 105.987 19.4726C105.735 19.3628 105.488 19.3555 105.247 19.4505L105.02 19.5397L104.842 19.087L111.269 16.5563L111.448 17.0089L111.085 17.1515C110.886 17.2648 110.732 17.4477 110.622 17.7C110.542 17.9404 110.49 18.2051 110.464 18.4941C110.426 18.7528 110.431 19.0298 110.478 19.3252C110.512 19.5903 110.571 19.8285 110.654 20.0398L118.888 40.9508L125.913 14.7111L125.681 14.1227C125.598 13.9115 125.473 13.682 125.306 13.4342C125.138 13.1864 124.932 12.9715 124.686 12.7895C124.47 12.5956 124.242 12.4589 124.002 12.3793C123.749 12.2695 123.502 12.2622 123.261 12.3572L123.035 12.4464L122.856 11.9937L129.284 9.46297L129.462 9.91559L129.236 10.0047C128.994 10.0998 128.819 10.2734 128.709 10.5258C128.587 10.7479 128.514 11.0035 128.488 11.2924C128.462 11.5813 128.458 11.8794 128.474 12.1866C128.521 12.482 128.585 12.7352 128.669 12.9465L138.168 37.0711C138.263 37.3125 138.394 37.5571 138.561 37.8049C138.759 38.0408 138.971 38.2708 139.199 38.4949C139.415 38.6888 139.649 38.8406 139.901 38.9503C140.154 39.0601 140.4 39.0674 140.642 38.9724L140.868 38.8833L141.046 39.3359L134.619 41.8667L134.441 41.414ZM144.243 37.421L144.481 37.3742C144.736 37.3243 144.94 37.1851 145.094 36.9567C145.247 36.7284 145.362 36.4744 145.44 36.1948C145.549 35.9091 145.607 35.6167 145.615 35.3178C145.616 34.9871 145.592 34.6945 145.542 34.4399L140.553 8.99682C140.509 8.77406 140.428 8.52571 140.308 8.25177C140.188 7.97784 140.024 7.72918 139.815 7.50579C139.637 7.27616 139.438 7.1005 139.216 6.97882C138.987 6.82532 138.762 6.77041 138.539 6.81409L138.3 6.86089L138.207 6.38353L144.985 5.05445L145.079 5.5318L144.84 5.5786C144.585 5.62852 144.381 5.76767 144.228 5.99605C144.068 6.19261 143.934 6.43378 143.824 6.71957C143.747 6.99912 143.689 7.29146 143.649 7.59659C143.642 7.89549 143.66 8.15631 143.704 8.37908L145.641 18.2603L154.554 5.06197C154.758 4.75746 154.826 4.43018 154.758 4.08012C154.702 3.7937 154.546 3.67546 154.292 3.72537L154.198 3.24802L159.353 2.23717L159.447 2.71452C158.817 2.87114 158.281 3.1744 157.841 3.6243C157.432 4.06796 156.998 4.63236 156.537 5.3175L147.442 18.8491C149.523 18.5071 151.281 18.6251 152.716 19.2029C154.151 19.7807 155.379 20.7298 156.398 22.0502L161.666 28.9485C161.983 29.3821 162.372 29.8511 162.834 30.3553C163.322 30.8214 163.839 31.2654 164.384 31.6872C164.955 32.0709 165.561 32.3817 166.203 32.6194C166.838 32.8254 167.474 32.8659 168.11 32.7411L168.204 33.2185L165.817 33.6865C164.894 33.8674 164.074 33.8961 163.356 33.7726C162.631 33.6172 161.971 33.3667 161.374 33.021C160.803 32.6372 160.271 32.1963 159.776 31.6984C159.314 31.1942 158.883 30.6838 158.485 30.1671L153.111 23.2398C152.276 22.1809 151.258 21.4552 150.057 21.0627C148.882 20.6321 147.572 20.5254 146.128 20.7426L148.692 33.8221C148.742 34.0767 148.827 34.341 148.947 34.6149C149.067 34.8888 149.218 35.1565 149.402 35.418C149.579 35.6476 149.782 35.8392 150.01 35.9927C150.232 36.1144 150.458 36.1693 150.687 36.1574L151.021 36.0919L151.115 36.5693L144.336 37.8983L144.243 37.421ZM189.469 31.9466L189.712 31.943C189.972 31.9392 190.197 31.8548 190.389 31.6898C190.581 31.4924 190.74 31.263 190.866 31.0017C191.024 30.7075 191.133 30.4139 191.193 30.1212C191.254 29.7959 191.282 29.5036 191.278 29.2442L190.95 6.96746L175.123 29.0443L175.13 29.482C175.133 29.7414 175.17 30.0328 175.24 30.3561C175.341 30.6465 175.459 30.9205 175.592 31.178C175.726 31.4355 175.891 31.6601 176.089 31.8517C176.286 32.0434 176.515 32.1374 176.774 32.1336L177.017 32.13L177.024 32.6164L170.118 32.7181L170.111 32.2317L170.354 32.2281C170.613 32.2243 170.839 32.1399 171.031 31.9749C171.223 31.7775 171.382 31.5481 171.507 31.2868C171.665 30.9925 171.774 30.699 171.835 30.4063C171.895 30.081 171.923 29.7887 171.919 29.5293L171.538 3.60461C171.534 3.37763 171.498 3.1187 171.429 2.82782C171.36 2.53694 171.242 2.26299 171.076 2.00597C170.943 1.74847 170.777 1.54009 170.581 1.38082C170.383 1.18913 170.155 1.09519 169.895 1.09901L169.652 1.1026L169.645 0.616204L176.552 0.514486L176.559 1.00088L176.17 1.00661C175.943 1.04238 175.734 1.15897 175.542 1.3564C175.383 1.55334 175.241 1.78247 175.115 2.04379C174.988 2.27268 174.895 2.53353 174.834 2.82632C174.773 3.08668 174.744 3.33035 174.748 3.55734L175.079 26.0287L190.905 3.95183L190.896 3.31952C190.893 3.09253 190.856 2.8336 190.787 2.54272C190.718 2.25184 190.601 1.97789 190.435 1.72087C190.301 1.46337 190.136 1.25499 189.939 1.09572C189.741 0.904032 189.513 0.810096 189.254 0.813917L189.01 0.817498L189.003 0.331107L195.91 0.229389L195.917 0.71578L195.674 0.719362C195.415 0.723182 195.189 0.823803 194.997 1.02122C194.805 1.18622 194.646 1.39938 194.52 1.6607C194.394 1.92202 194.285 2.19931 194.192 2.49258C194.131 2.78537 194.103 3.04526 194.106 3.27224L194.488 29.1969C194.492 29.4563 194.528 29.7315 194.597 30.0224C194.699 30.3128 194.817 30.6029 194.951 30.8929C195.084 31.1504 195.25 31.375 195.447 31.5666C195.645 31.7583 195.873 31.8523 196.132 31.8485L196.376 31.8449L196.383 32.3313L189.476 32.433L189.469 31.9466ZM232.921 38.5053L233.155 38.5696C233.406 38.6382 233.646 38.62 233.876 38.5151C234.116 38.3788 234.332 38.2028 234.526 37.9869C234.759 37.7483 234.946 37.4968 235.086 37.2325C235.234 36.9369 235.342 36.6639 235.411 36.4137L241.301 14.9273L219.951 31.7216L219.836 32.1439C219.767 32.3941 219.721 32.6841 219.698 33.014C219.715 33.3212 219.751 33.6171 219.808 33.9016C219.864 34.1861 219.961 34.4479 220.097 34.687C220.233 34.9261 220.426 35.0799 220.676 35.1485L220.911 35.2128L220.782 35.682L214.121 33.8557L214.249 33.3866L214.484 33.4509C214.734 33.5195 214.974 33.5013 215.205 33.3964C215.444 33.2601 215.66 33.0841 215.854 32.8682C216.088 32.6296 216.274 32.3781 216.414 32.1138C216.562 31.8182 216.671 31.5452 216.739 31.295L223.594 6.29013C223.654 6.0712 223.692 5.81242 223.706 5.51379C223.721 5.21516 223.684 4.91931 223.596 4.62623C223.54 4.34173 223.439 4.09557 223.294 3.88775C223.158 3.64865 222.965 3.4948 222.715 3.42621L222.48 3.36191L222.609 2.89277L229.271 4.71904L229.142 5.18818L228.767 5.08529C228.539 5.05654 228.306 5.11028 228.067 5.24649C227.859 5.39127 227.658 5.57162 227.465 5.78753C227.279 5.97216 227.117 6.19665 226.977 6.46098C226.846 6.69404 226.751 6.92003 226.691 7.13896L220.749 28.813L242.099 12.0187L242.266 11.4088C242.326 11.1899 242.363 10.9311 242.378 10.6325C242.392 10.3339 242.356 10.038 242.268 9.74493C242.211 9.46043 242.111 9.21427 241.966 9.00644C241.83 8.76735 241.637 8.6135 241.386 8.54491L241.152 8.4806L241.28 8.01147L247.942 9.83774L247.814 10.3069L247.579 10.2426C247.329 10.174 247.084 10.2078 246.845 10.344C246.615 10.4489 246.402 10.6093 246.209 10.8253C246.015 11.0412 245.833 11.277 245.662 11.5328C245.522 11.7971 245.422 12.0387 245.362 12.2577L238.507 37.2626C238.439 37.5128 238.397 37.7872 238.382 38.0858C238.399 38.393 238.431 38.7045 238.479 39.0203C238.536 39.3048 238.632 39.5666 238.768 39.8057C238.905 40.0448 239.098 40.1986 239.348 40.2672L239.583 40.3315L239.454 40.8007L232.792 38.9744L232.921 38.5053ZM256.751 47.048L256.96 47.1718C257.184 47.3039 257.42 47.3496 257.67 47.3091C257.937 47.2406 258.192 47.1278 258.436 46.9705C258.707 46.8297 258.945 46.6502 259.15 46.432C259.382 46.2302 259.564 46.0177 259.696 45.7944L272.942 23.3928C273.058 23.1974 273.148 22.9494 273.213 22.6486C273.306 22.3644 273.348 22.0693 273.341 21.7635C273.361 21.4741 273.329 21.2101 273.244 20.9715C273.175 20.705 273.03 20.5057 272.806 20.3737L272.597 20.2499L272.845 19.8312L288.17 28.893L285.818 32.8709L285.399 32.6233C285.778 31.9812 285.885 31.2909 285.719 30.5522C285.57 29.7857 285.034 29.13 284.113 28.5853L276.367 24.0049L270.35 34.1798L272.277 35.3187C273.561 36.078 274.756 36.9547 275.864 37.9487C277 38.9592 277.888 40.0686 278.53 41.2769C279.216 42.4739 279.561 43.7703 279.564 45.1663C279.596 46.5788 279.149 48.0667 278.225 49.6299C277.499 50.8581 276.609 51.8205 275.557 52.5169C274.533 53.2298 273.396 53.6876 272.145 53.8903C270.912 54.065 269.602 53.9872 268.215 53.6569C266.855 53.343 265.492 52.7817 264.124 51.9729L256.503 47.4667L256.751 47.048ZM263.442 49.5913C264.837 50.4166 266.128 50.9728 267.315 51.26C268.529 51.5636 269.628 51.6484 270.612 51.5141C271.612 51.352 272.48 50.9988 273.216 50.4546C273.997 49.899 274.643 49.1885 275.155 48.3231C276.36 46.2853 276.616 44.1952 275.924 42.0529C275.248 39.8825 273.57 38.0051 270.89 36.4205L269.509 35.6035L261.809 48.6257L263.442 49.5913ZM276.993 58.892L277.176 59.0516C277.348 59.2006 277.56 59.2777 277.813 59.2831C278.088 59.2639 278.359 59.199 278.627 59.0884C278.895 58.9777 279.15 58.8336 279.39 58.6559C279.655 58.4995 279.862 58.3357 280.011 58.1644L297.025 38.6003C297.174 38.429 297.33 38.1997 297.494 37.9124C297.658 37.6251 297.764 37.3304 297.812 37.0283C297.884 36.7474 297.911 36.4697 297.892 36.1952C297.873 35.9207 297.777 35.7089 297.606 35.56L297.423 35.4003L297.742 35.0333L302.917 39.5342L302.598 39.9013L302.341 39.6778C301.956 39.4288 301.453 39.4639 300.831 39.7831C300.231 40.0778 299.782 40.3964 299.484 40.739L292.621 48.6307L294.677 50.4183C295.802 51.3972 296.797 52.4772 297.661 53.6583C298.571 54.8362 299.197 56.0683 299.539 57.3547C299.928 58.6379 299.985 59.9556 299.712 61.3079C299.459 62.6357 298.759 63.9604 297.609 65.2818C296.673 66.3585 295.612 67.1335 294.427 67.6069C293.242 68.0803 292.004 68.2931 290.713 68.2451C289.444 68.1727 288.145 67.838 286.816 67.2411C285.511 66.6654 284.26 65.8561 283.061 64.8134L276.674 59.2591L276.993 58.892ZM282.159 61.773C284.998 64.2416 287.454 65.5185 289.529 65.6037C291.628 65.7102 293.423 64.907 294.912 63.1941C296.423 61.4567 297.034 59.4947 296.743 57.3082C296.477 55.143 295.145 53.0176 292.747 50.9321L291.536 49.8787L281.608 61.2942L282.159 61.773ZM315.104 50.1321L320.279 54.633L319.96 55.0001L319.666 54.7447C319.474 54.6202 319.24 54.5675 318.966 54.5867C318.716 54.6271 318.457 54.7026 318.188 54.8133C317.966 54.9207 317.735 55.0633 317.494 55.241C317.275 55.3942 317.091 55.5564 316.942 55.7277L299.928 75.2918C299.758 75.4876 299.601 75.7169 299.459 75.9797C299.316 76.2425 299.198 76.5266 299.104 76.8319C299.032 77.1128 298.993 77.3799 298.988 77.6331C299.028 77.8831 299.123 78.0949 299.273 78.2683L299.53 78.4917L299.211 78.8588L294.036 74.3579L294.355 73.9908L294.538 74.1504C294.734 74.3207 294.959 74.4085 295.212 74.4138C295.486 74.3947 295.758 74.3298 296.026 74.2191C296.315 74.084 296.58 73.9276 296.821 73.75C297.082 73.5478 297.298 73.3489 297.469 73.1531L314.483 53.589C314.632 53.4177 314.777 53.2006 314.92 52.9378C315.063 52.675 315.17 52.4032 315.242 52.1223C315.315 51.8414 315.331 51.576 315.29 51.3259C315.271 51.0514 315.164 50.829 314.968 50.6588L314.784 50.4992L315.104 50.1321ZM310.453 90.635L310.607 90.8234L310.23 91.1312L305.859 85.7825L306.236 85.4747L306.39 85.663C306.554 85.8639 306.773 85.9781 307.047 86.0057C307.32 86.0332 307.599 86.0151 307.882 85.9514C308.185 85.9128 308.471 85.8262 308.738 85.6918C309.03 85.5368 309.276 85.3772 309.477 85.213L330.495 68.037L326.925 63.6676C326.596 63.2658 326.221 62.9861 325.799 62.8284C325.377 62.6707 324.946 62.6043 324.505 62.6292C324.09 62.6335 323.678 62.7188 323.27 62.8851C322.886 63.0309 322.544 63.227 322.243 63.4732L321.935 63.0966L326.04 59.7414L339.861 76.6537L335.756 80.0089L335.448 79.6323C335.749 79.386 336.009 79.0895 336.229 78.7428C336.473 78.3756 336.639 77.989 336.726 77.5829C336.838 77.1562 336.858 76.7204 336.788 76.2755C336.718 75.8305 336.518 75.4071 336.19 75.0053L332.558 70.5606L311.54 87.7367C311.339 87.9009 311.133 88.1107 310.923 88.3661C310.738 88.601 310.586 88.8508 310.467 89.1154C310.369 89.4051 310.296 89.6743 310.248 89.923C310.22 90.1968 310.289 90.4342 310.453 90.635ZM351.054 94.7961C352.282 97.0074 352.987 99.2123 353.17 101.411C353.381 103.594 353.158 105.665 352.503 107.624C351.892 109.596 350.888 111.396 349.493 113.024C348.141 114.665 346.516 116.013 344.617 117.068C342.49 118.249 340.314 118.939 338.087 119.137C335.876 119.364 333.754 119.151 331.723 118.499C329.691 117.847 327.803 116.818 326.058 115.413C324.357 114.021 322.94 112.304 321.806 110.263C320.593 108.08 319.896 105.889 319.713 103.69C319.547 101.52 319.777 99.4632 320.404 97.5198C321.046 95.6048 322.037 93.8488 323.376 92.2519C324.715 90.6551 326.306 89.3449 328.148 88.3213C329.963 87.3135 331.93 86.6475 334.05 86.3232C336.198 85.9832 338.313 86.0511 340.395 86.5269C342.493 87.031 344.471 87.9541 346.329 89.2961C348.187 90.6381 349.762 92.4714 351.054 94.7961ZM323.601 109.989C324.741 111.841 326.088 113.263 327.641 114.256C329.238 115.26 330.899 115.914 332.625 116.217C334.38 116.503 336.106 116.472 337.804 116.123C339.517 115.801 341.083 115.247 342.5 114.46C344.059 113.594 345.475 112.436 346.748 110.988C348.021 109.539 349.003 107.936 349.697 106.178C350.418 104.405 350.766 102.56 350.741 100.645C350.76 98.7428 350.266 96.8844 349.258 95.07C348.282 93.3123 347.011 91.9593 345.446 91.0111C343.908 90.0471 342.255 89.4076 340.485 89.0924C338.73 88.8057 336.96 88.8244 335.174 89.1487C333.388 89.473 331.772 90.0367 330.326 90.8398C328.767 91.7059 327.359 92.8775 326.102 94.3547C324.873 95.8161 323.913 97.4256 323.22 99.1832C322.526 100.941 322.177 102.749 322.17 104.607C322.18 106.494 322.657 108.288 323.601 109.989ZM332.555 127.304L332.631 127.535C332.702 127.75 332.861 127.92 333.106 128.044C333.352 128.168 333.618 128.251 333.906 128.292C334.203 128.365 334.5 128.386 334.798 128.357C335.126 128.317 335.413 128.256 335.659 128.175L360.234 120.063C360.45 119.992 360.686 119.88 360.943 119.727C361.2 119.574 361.426 119.38 361.622 119.144C361.858 118.93 362.018 118.689 362.101 118.423C362.224 118.177 362.246 117.931 362.164 117.685L362.088 117.454L362.55 117.301L365.05 124.877C365.996 127.741 366.101 130.182 365.367 132.2C364.643 134.249 363.234 135.619 361.14 136.31C360.247 136.605 359.396 136.715 358.586 136.641C357.776 136.567 357.012 136.375 356.295 136.065C355.589 135.786 354.944 135.436 354.36 135.014C353.808 134.581 353.327 134.159 352.918 133.748C353.098 135.123 353.039 136.338 352.738 137.393C352.437 138.448 351.989 139.365 351.392 140.143C350.835 140.941 350.162 141.59 349.371 142.09C348.58 142.59 347.768 142.978 346.937 143.252C345.335 143.781 343.884 143.935 342.582 143.716C341.311 143.487 340.159 142.996 339.125 142.245C338.133 141.514 337.274 140.568 336.549 139.407C335.835 138.276 335.259 137.049 334.822 135.725L332.093 127.456L332.555 127.304ZM345.623 140.203C347.913 139.173 349.481 137.768 350.327 135.986C351.173 134.204 351.19 132.081 350.377 129.618L349.523 127.031L335.203 131.757L336.087 134.437C336.91 136.931 338.11 138.704 339.686 139.754C341.304 140.826 343.113 141.031 345.115 140.37L345.623 140.203ZM359.733 133.445C361.489 132.763 362.697 131.664 363.358 130.148C364.029 128.663 364.044 126.951 363.404 125.011L362.642 122.701L351.001 126.543L351.794 128.945C352.221 130.239 352.736 131.23 353.339 131.919C353.952 132.638 354.602 133.158 355.288 133.478C356.005 133.788 356.717 133.928 357.425 133.9C358.132 133.871 358.794 133.755 359.41 133.552L359.733 133.445ZM373.778 160.867C374.109 163.375 373.955 165.684 373.318 167.796C372.712 169.904 371.745 171.749 370.416 173.33C369.123 174.94 367.529 176.246 365.633 177.248C363.773 178.278 361.766 178.935 359.612 179.219C357.201 179.536 354.923 179.378 352.779 178.745C350.639 178.144 348.744 177.167 347.094 175.814C345.444 174.461 344.065 172.811 342.958 170.863C341.887 168.944 341.2 166.826 340.895 164.511C340.568 162.036 340.724 159.742 341.362 157.63C342.004 155.55 342.973 153.721 344.27 152.144C345.571 150.599 347.138 149.33 348.969 148.336C350.801 147.342 352.762 146.708 354.852 146.433C356.909 146.161 358.984 146.264 361.074 146.741C363.197 147.214 365.14 148.054 366.902 149.261C368.668 150.5 370.169 152.085 371.404 154.016C372.64 155.947 373.431 158.23 373.778 160.867ZM342.665 164.916C343.045 167.058 343.775 168.875 344.855 170.368C345.972 171.889 347.277 173.108 348.771 174.023C350.298 174.934 351.915 175.539 353.622 175.837C355.334 176.168 356.994 176.227 358.601 176.015C360.37 175.782 362.112 175.226 363.828 174.346C365.543 173.465 367.046 172.335 368.336 170.955C369.659 169.57 370.66 167.983 371.34 166.192C372.056 164.43 372.279 162.52 372.008 160.462C371.745 158.469 371.06 156.743 369.952 155.287C368.877 153.826 367.574 152.623 366.043 151.68C364.516 150.769 362.863 150.137 361.083 149.782C359.302 149.428 357.592 149.359 355.952 149.575C354.184 149.808 352.444 150.38 350.733 151.293C349.053 152.201 347.568 153.345 346.278 154.725C344.988 156.106 343.999 157.659 343.31 159.385C342.626 161.143 342.411 162.987 342.665 164.916ZM381.161 205.066C380.611 205.026 380.055 204.855 379.492 204.553C378.929 204.252 378.406 203.839 377.924 203.316C377.44 202.825 377.061 202.228 376.788 201.526C376.512 200.855 376.404 200.115 376.463 199.307C376.52 198.531 376.72 197.814 377.061 197.156C377.432 196.533 377.878 195.996 378.398 195.547C378.919 195.098 379.498 194.75 380.133 194.504C380.769 194.258 381.378 194.157 381.961 194.199L381.939 194.491C381.743 194.509 381.461 194.585 381.093 194.721C380.723 194.889 380.346 195.154 379.961 195.516C379.577 195.878 379.232 196.372 378.926 197C378.619 197.628 378.43 198.427 378.359 199.397C378.285 200.4 378.355 201.218 378.569 201.852C378.78 202.518 379.049 203.058 379.376 203.472C379.703 203.886 380.039 204.187 380.383 204.375C380.727 204.563 380.993 204.696 381.183 204.775L381.161 205.066ZM343.211 203.104L343.194 203.346C343.175 203.605 343.239 203.837 343.386 204.043C343.566 204.252 343.781 204.43 344.03 204.579C344.309 204.762 344.592 204.896 344.878 204.982C345.197 205.071 345.485 205.125 345.744 205.144L367.963 206.778L347.366 189.069L346.929 189.037C346.67 189.018 346.377 189.029 346.049 189.07C345.75 189.146 345.467 189.239 345.199 189.349C344.931 189.459 344.692 189.604 344.484 189.784C344.276 189.964 344.162 190.183 344.143 190.442L344.125 190.684L343.64 190.649L344.147 183.76L344.632 183.795L344.614 184.038C344.595 184.297 344.659 184.529 344.807 184.735C344.986 184.943 345.201 185.122 345.45 185.27C345.729 185.453 346.012 185.588 346.298 185.674C346.617 185.763 346.906 185.816 347.165 185.835L373.022 187.738C373.249 187.754 373.51 187.741 373.806 187.698C374.101 187.654 374.385 187.561 374.655 187.419C374.924 187.308 375.146 187.162 375.322 186.98C375.53 186.8 375.644 186.581 375.663 186.322L375.68 186.08L376.166 186.115L375.659 193.004L375.174 192.969L375.202 192.58C375.187 192.352 375.089 192.133 374.909 191.925C374.727 191.749 374.511 191.587 374.262 191.438C374.045 191.292 373.794 191.176 373.507 191.09C373.253 191.006 373.013 190.956 372.787 190.939L350.373 189.291L370.971 206.999L371.602 207.046C371.828 207.063 372.089 207.049 372.385 207.006C372.681 206.963 372.964 206.87 373.235 206.727C373.503 206.617 373.725 206.47 373.901 206.288C374.109 206.109 374.223 205.889 374.242 205.631L374.26 205.388L374.745 205.424L374.238 212.313L373.753 212.277L373.771 212.034C373.79 211.776 373.71 211.542 373.53 211.334C373.383 211.128 373.184 210.951 372.935 210.802C372.686 210.654 372.419 210.52 372.135 210.402C371.849 210.316 371.593 210.264 371.366 210.248L345.509 208.346C345.25 208.326 344.973 208.339 344.677 208.382C344.378 208.457 344.079 208.549 343.778 208.657C343.51 208.768 343.272 208.913 343.064 209.092C342.855 209.272 342.742 209.491 342.723 209.75L342.705 209.993L342.22 209.957L342.726 203.068L343.211 203.104ZM351.371 241.213L365.551 239.07C365.85 239.004 366.19 238.918 366.572 238.813C366.973 238.749 367.349 238.659 367.7 238.542C368.051 238.426 368.367 238.263 368.648 238.053C368.918 237.873 369.102 237.646 369.199 237.371L369.658 237.534L367.348 244.044L366.89 243.881C366.955 243.697 366.908 243.44 366.751 243.109C366.582 242.808 366.314 242.593 365.948 242.463C365.734 242.387 365.498 242.372 365.241 242.418L353.775 244.183L361.269 252.158C361.36 252.19 361.436 252.269 361.495 252.393C361.626 252.508 361.757 252.624 361.888 252.739C362.039 252.896 362.191 253.001 362.344 253.056C362.833 253.229 363.198 253.169 363.44 252.877C363.712 252.595 363.864 252.408 363.896 252.316L364.355 252.479L362.549 257.568L362.091 257.405C362.275 256.885 362.164 256.278 361.757 255.583C361.369 254.929 360.949 254.367 360.497 253.897L351.8 244.514L335.784 246.883C335.454 246.938 335.099 247.019 334.718 247.124C334.336 247.23 333.964 247.356 333.602 247.503C333.241 247.65 332.925 247.813 332.655 247.992C332.404 248.213 332.23 248.461 332.133 248.736L331.674 248.573L333.984 242.064L334.442 242.226C334.377 242.41 334.435 242.636 334.614 242.907C334.793 243.177 335.051 243.371 335.387 243.491C335.601 243.567 335.909 243.572 336.31 243.508L349.287 241.558L340.409 231.956C340.259 231.799 340.077 231.631 339.865 231.453C339.642 231.305 339.424 231.193 339.21 231.117C338.721 230.944 338.395 231.086 338.233 231.545L337.774 231.382L339.547 226.385L340.006 226.548C339.93 226.762 339.904 227.028 339.929 227.346C339.984 227.675 340.07 228.016 340.186 228.367C340.302 228.718 340.455 229.064 340.643 229.406C340.831 229.748 341.021 230.039 341.211 230.279L351.371 241.213ZM321.876 267.851L321.756 268.062C321.628 268.288 321.586 268.526 321.631 268.775C321.704 269.04 321.822 269.293 321.983 269.534C322.157 269.819 322.355 270.062 322.577 270.262C322.827 270.479 323.065 270.651 323.29 270.779L342.665 281.778L331.643 256.95L331.263 256.734C331.037 256.606 330.767 256.49 330.453 256.387C330.151 256.327 329.856 256.29 329.566 256.275C329.276 256.259 328.999 256.288 328.734 256.361C328.468 256.435 328.272 256.584 328.144 256.81L328.023 257.021L327.6 256.781L331.01 250.774L331.433 251.014L331.313 251.225C331.185 251.451 331.144 251.689 331.189 251.938C331.262 252.203 331.379 252.456 331.541 252.697C331.715 252.982 331.912 253.225 332.134 253.425C332.384 253.642 332.622 253.814 332.848 253.942L355.396 266.742C355.593 266.854 355.835 266.953 356.121 267.041C356.406 267.129 356.702 267.166 357.008 267.153C357.297 267.169 357.561 267.132 357.798 267.042C358.063 266.969 358.26 266.82 358.388 266.594L358.508 266.383L358.931 266.623L355.521 272.63L355.098 272.39L355.29 272.051C355.374 271.838 355.379 271.599 355.306 271.333C355.217 271.096 355.092 270.857 354.93 270.616C354.797 270.392 354.619 270.179 354.397 269.978C354.204 269.794 354.008 269.646 353.811 269.534L334.266 258.439L345.288 283.266L345.838 283.579C346.036 283.691 346.277 283.79 346.563 283.878C346.849 283.966 347.145 284.003 347.45 283.99C347.74 284.006 348.003 283.969 348.24 283.879C348.506 283.806 348.702 283.657 348.831 283.431L348.951 283.22L349.374 283.46L345.964 289.467L345.541 289.227L345.661 289.015C345.789 288.79 345.816 288.544 345.743 288.279C345.698 288.03 345.595 287.785 345.433 287.544C345.272 287.303 345.088 287.068 344.882 286.839C344.66 286.639 344.451 286.483 344.253 286.371L321.705 273.571C321.48 273.443 321.224 273.335 320.938 273.248C320.636 273.188 320.326 273.143 320.009 273.112C319.719 273.096 319.441 273.125 319.176 273.198C318.911 273.272 318.714 273.421 318.586 273.647L318.466 273.858L318.043 273.618L321.453 267.611L321.876 267.851ZM299.921 296.068L299.76 296.25C299.61 296.421 299.543 296.643 299.56 296.918C299.577 297.192 299.64 297.464 299.748 297.733C299.836 298.026 299.967 298.294 300.143 298.536C300.343 298.799 300.54 299.017 300.734 299.189L319.907 316.132L306.275 287.336L334.98 296.799L316.937 280.854C316.743 280.682 316.503 280.513 316.217 280.347C315.955 280.202 315.684 280.093 315.404 280.018C315.102 279.968 314.814 279.951 314.539 279.968C314.264 279.985 314.041 280.091 313.869 280.285L313.708 280.467L313.344 280.145L316.855 276.172L317.219 276.494L317.058 276.676C316.908 276.847 316.841 277.069 316.858 277.344C316.875 277.618 316.938 277.89 317.046 278.159C317.155 278.428 317.297 278.683 317.473 278.925C317.673 279.189 317.87 279.406 318.065 279.578L337.493 296.747C337.663 296.897 337.879 297.045 338.14 297.19C338.402 297.334 338.673 297.444 338.953 297.519C339.234 297.593 339.499 297.611 339.749 297.573C340.024 297.556 340.236 297.462 340.387 297.292L340.548 297.11L340.912 297.432L337.627 301.15L310.215 291.987L322.68 318.063L319.04 322.182L318.676 321.86L318.837 321.678C319.009 321.483 319.086 321.249 319.069 320.974C319.076 320.721 319.037 320.448 318.95 320.154C318.841 319.885 318.699 319.63 318.523 319.388C318.347 319.146 318.174 318.95 318.004 318.8L298.576 301.631C298.382 301.459 298.142 301.29 297.856 301.124C297.594 300.979 297.323 300.87 297.043 300.795C296.741 300.745 296.453 300.728 296.178 300.745C295.903 300.762 295.68 300.868 295.508 301.062L295.347 301.244L294.983 300.922L299.557 295.746L299.921 296.068ZM278.027 315.172L277.832 315.318C277.624 315.472 277.49 315.673 277.431 315.919C277.391 316.192 277.396 316.47 277.447 316.756C277.491 317.087 277.575 317.389 277.697 317.662C277.838 317.961 277.987 318.214 278.142 318.422L291.446 336.293L291.358 309.129L291.096 308.778C290.941 308.57 290.741 308.355 290.495 308.134C290.243 307.958 289.987 307.805 289.728 307.674C289.469 307.543 289.204 307.458 288.931 307.418C288.659 307.378 288.419 307.436 288.211 307.591L288.016 307.736L287.725 307.346L293.266 303.221L293.556 303.611L293.361 303.757C293.153 303.911 293.02 304.112 292.96 304.358C292.92 304.631 292.926 304.909 292.977 305.195C293.021 305.526 293.104 305.828 293.227 306.101C293.368 306.4 293.516 306.653 293.671 306.861L309.154 327.659C309.289 327.841 309.47 328.029 309.697 328.225C309.923 328.42 310.179 328.573 310.464 328.685C310.723 328.815 310.978 328.888 311.231 328.901C311.504 328.941 311.744 328.884 311.952 328.729L312.147 328.584L312.438 328.974L306.897 333.099L306.606 332.708L306.918 332.476C307.081 332.315 307.182 332.098 307.222 331.825C307.236 331.572 307.218 331.303 307.167 331.018C307.135 330.758 307.058 330.492 306.936 330.219C306.833 329.972 306.714 329.758 306.579 329.576L293.158 311.549L293.246 338.712L293.624 339.22C293.76 339.402 293.941 339.59 294.167 339.786C294.393 339.981 294.649 340.134 294.934 340.246C295.193 340.376 295.449 340.449 295.702 340.462C295.974 340.502 296.214 340.445 296.422 340.29L296.617 340.145L296.908 340.535L291.367 344.66L291.077 344.269L291.272 344.124C291.48 343.969 291.604 343.756 291.644 343.483C291.703 343.237 291.707 342.971 291.656 342.686C291.605 342.4 291.532 342.111 291.436 341.819C291.313 341.546 291.184 341.319 291.049 341.137L275.566 320.339C275.411 320.131 275.221 319.929 274.995 319.734C274.742 319.558 274.477 319.392 274.199 319.235C273.94 319.104 273.674 319.019 273.402 318.979C273.129 318.939 272.889 318.997 272.681 319.152L272.486 319.297L272.196 318.907L277.736 314.782L278.027 315.172ZM252.412 329.874L252.193 329.98C251.96 330.093 251.79 330.264 251.686 330.495C251.595 330.755 251.548 331.03 251.544 331.32C251.525 331.653 251.549 331.965 251.618 332.256C251.7 332.577 251.798 332.853 251.911 333.087L261.598 353.15L266.645 326.459L266.455 326.065C266.342 325.832 266.186 325.583 265.986 325.319C265.772 325.098 265.55 324.9 265.32 324.722C265.09 324.545 264.846 324.411 264.586 324.321C264.326 324.23 264.079 324.241 263.846 324.354L263.627 324.46L263.415 324.021L269.636 321.018L269.847 321.456L269.628 321.562C269.394 321.675 269.225 321.846 269.12 322.077C269.03 322.337 268.983 322.612 268.979 322.902C268.959 323.235 268.984 323.547 269.053 323.838C269.135 324.159 269.233 324.436 269.346 324.669L280.619 348.018C280.718 348.222 280.86 348.442 281.045 348.676C281.23 348.911 281.452 349.11 281.711 349.273C281.941 349.45 282.178 349.569 282.424 349.631C282.684 349.722 282.931 349.71 283.164 349.598L283.383 349.492L283.595 349.93L277.374 352.933L277.163 352.495L277.513 352.326C277.704 352.198 277.844 352.004 277.935 351.744C277.996 351.499 278.029 351.231 278.033 350.941C278.051 350.68 278.026 350.404 277.957 350.113C277.903 349.851 277.826 349.618 277.728 349.414L267.956 329.175L262.909 355.866L263.184 356.436C263.283 356.64 263.425 356.86 263.61 357.094C263.795 357.329 264.018 357.528 264.276 357.691C264.506 357.868 264.744 357.987 264.989 358.049C265.249 358.139 265.496 358.128 265.73 358.016L265.949 357.91L266.16 358.348L259.94 361.351L259.728 360.913L259.947 360.807C260.181 360.695 260.343 360.508 260.434 360.248C260.538 360.018 260.593 359.757 260.597 359.467C260.601 359.177 260.583 358.88 260.544 358.575C260.475 358.284 260.392 358.036 260.293 357.832L249.02 334.483C248.907 334.249 248.758 334.015 248.573 333.781C248.358 333.56 248.129 333.347 247.885 333.14C247.656 332.963 247.411 332.829 247.151 332.738C246.891 332.648 246.645 332.659 246.411 332.772L246.192 332.877L245.98 332.439L252.201 329.436L252.412 329.874ZM228.321 346.195L229.338 350.453L224.512 351.605L223.495 347.347L228.321 346.195Z" fill="#B5C1A5"/>
</svg>
