<svg width="230" height="45" viewBox="0 0 230 45" fill="none" xmlns="http://www.w3.org/2000/svg">
<g clip-path="url(#clip0_654_8674)">
<path d="M56.2391 43.8014C55.2461 43.8014 54.6504 43.2057 54.6504 42.2526C54.6504 41.2996 55.2461 40.7039 56.2391 40.7039C57.0731 40.7039 57.6291 41.1804 57.6689 41.8555H57.232C57.1525 41.379 56.7554 41.101 56.1993 41.101C55.4447 41.101 55.0476 41.5378 55.0476 42.2526C55.0476 42.9674 55.4844 43.4042 56.1993 43.4042C56.7554 43.4042 57.1923 43.0866 57.232 42.5703H57.6689C57.6291 43.3248 57.0731 43.8014 56.2391 43.8014Z" fill="white"/>
<path d="M59.1781 41.9349H60.0916C60.8065 41.9349 61.1639 42.2526 61.1639 42.8483C61.1639 43.4439 60.8065 43.7219 60.0916 43.7219H58.7412V40.7833H59.1384V41.9349H59.1781ZM59.1781 43.3248H59.9724C60.5285 43.3248 60.7668 43.2454 60.7668 42.8483C60.7668 42.4512 60.5285 42.332 59.9327 42.332H59.1781V43.3248ZM62.1569 43.7219H61.7597V40.7833H62.1569V43.7219Z" fill="white"/>
<path d="M63.8249 43.7219H63.4277V40.7833H64.7781C65.493 40.7833 65.8505 41.0613 65.8505 41.6569C65.8505 42.2526 65.493 42.5306 64.7781 42.5306H63.8646V43.7219H63.8249ZM63.8249 42.1732H64.5795C65.1356 42.1732 65.4136 42.0541 65.4136 41.6569C65.4136 41.2598 65.1753 41.1407 64.6192 41.1407H63.8249V42.1732Z" fill="white"/>
<path d="M67.2806 41.9349H68.1941C68.909 41.9349 69.2665 42.2526 69.2665 42.8483C69.2665 43.4439 68.909 43.7219 68.1941 43.7219H66.8438V40.7833H67.2409V41.9349H67.2806ZM67.2806 43.3248H68.075C68.631 43.3248 68.8693 43.2454 68.8693 42.8483C68.8693 42.4512 68.631 42.332 68.0353 42.332H67.2806V43.3248Z" fill="white"/>
<path d="M70.3779 40.7833H72.6815V41.1804H70.7751V42.0541H72.5624V42.4512H70.7751V43.3645H72.7212V43.7617H70.3779V40.7833Z" fill="white"/>
<path d="M78.2815 40.7833V43.3248H78.5595V44.5559H78.1623V43.7219H75.819V44.5559H75.4219V43.3248H75.6999C75.8985 43.0071 76.0573 42.7292 76.0573 41.9349V40.7833H78.2815ZM76.4545 41.1804V41.9747C76.4545 42.6895 76.3751 43.0071 76.1765 43.3248H77.924V41.1407H76.4545V41.1804Z" fill="white"/>
<path d="M82.2935 40.7833V43.7219H81.8964V41.1804H80.2283V42.3717C80.2283 43.5234 79.9503 43.8013 79.5134 43.8013C79.4339 43.8013 79.3148 43.8013 79.2354 43.7616V43.4439C79.2751 43.4439 79.3545 43.4439 79.4339 43.4439C79.7517 43.4439 79.8311 43.0468 79.8311 42.2526V40.823H82.2935V40.7833Z" fill="white"/>
<path d="M85.7886 43.7219H85.3914V42.5306H84.5177L83.8028 43.7219H83.3262L84.1205 42.4909C83.6439 42.4115 83.3659 42.1335 83.3659 41.6569C83.3659 41.0613 83.7233 40.7833 84.4382 40.7833H85.7886V43.7219ZM85.3517 41.1804H84.5574C84.0014 41.1804 83.7631 41.2598 83.7631 41.6569C83.7631 42.0541 84.0411 42.1732 84.5971 42.1732H85.3517V41.1804Z" fill="white"/>
<path d="M89.3229 42.2923L91.0308 40.7833H91.5471L90.157 42.0143L91.5471 43.7219H91.0705L89.879 42.2526L89.3229 42.7291V43.7219H88.9258V40.7833H89.3229V42.2923Z" fill="white"/>
<path d="M93.7713 40.7039C94.7642 40.7039 95.36 41.2996 95.36 42.2526C95.36 43.2057 94.7642 43.8014 93.7713 43.8014C92.7784 43.8014 92.1826 43.2057 92.1826 42.2526C92.1826 41.3393 92.7784 40.7039 93.7713 40.7039ZM93.7713 43.4042C94.5259 43.4042 94.9231 42.9674 94.9231 42.2526C94.9231 41.5378 94.4862 41.101 93.7713 41.101C93.0167 41.101 92.6195 41.5378 92.6195 42.2526C92.6195 42.9674 93.0564 43.4042 93.7713 43.4042Z" fill="white"/>
<path d="M97.8621 43.8014C96.8692 43.8014 96.2734 43.2057 96.2734 42.2526C96.2734 41.2996 96.8692 40.7039 97.8621 40.7039C98.6962 40.7039 99.2522 41.1804 99.2919 41.8555H98.8947C98.8153 41.379 98.4181 41.101 97.8621 41.101C97.1075 41.101 96.7103 41.5378 96.7103 42.2526C96.7103 42.9674 97.1472 43.4042 97.8621 43.4042C98.4181 43.4042 98.855 43.0866 98.8947 42.5703H99.3316C99.2919 43.3248 98.6962 43.8014 97.8621 43.8014Z" fill="white"/>
<path d="M101 40.7833L102.112 43.3248L103.264 40.7833H103.86V43.7219H103.463V41.1407L102.311 43.7219H101.874L100.722 41.1407V43.7219H100.325V40.7833H101Z" fill="white"/>
<path d="M105.13 40.7833H107.433V41.1804H105.527V42.0541H107.314V42.4512H105.527V43.3645H107.473V43.7616H105.13V40.7833Z" fill="white"/>
<path d="M110.85 40.7833V41.1804H109.738V43.7219H109.341V41.1804H108.229V40.7833H110.85Z" fill="white"/>
<path d="M112.121 40.7833V43.2851L113.948 40.7833H114.504V43.7219H114.107V41.2201L112.28 43.7219H111.724V40.7833H112.121Z" fill="white"/>
<path d="M116.172 42.2923L117.879 40.7833H118.396L117.006 42.0144L118.396 43.7219H117.919L116.728 42.2526L116.172 42.7292V43.7219H115.774V40.7833H116.172V42.2923Z" fill="white"/>
<path d="M119.707 40.7833V43.2851L121.534 40.7833H122.09V43.7219H121.693V41.2201L119.866 43.7219H119.31V40.7833H119.707Z" fill="white"/>
<path d="M125.585 40.7833V43.2851L127.412 40.7833H127.968V43.7219H127.571V41.2201L125.744 43.7219H125.188V40.7833H125.585Z" fill="white"/>
<path d="M133.29 40.7833V41.1804H131.542V41.9747H132.456C133.171 41.9747 133.528 42.2923 133.528 42.888C133.528 43.4837 133.171 43.7617 132.456 43.7617H131.105V40.823H133.29V40.7833ZM131.503 43.3248H132.297C132.853 43.3248 133.091 43.2454 133.091 42.8483C133.091 42.4512 132.853 42.3321 132.257 42.3321H131.503V43.3248Z" fill="white"/>
<path d="M134.997 41.9349H135.911C136.626 41.9349 136.983 42.2526 136.983 42.8483C136.983 43.444 136.626 43.7219 135.911 43.7219H134.561V40.7833H134.958V41.9349H134.997ZM134.997 43.3248H135.792C136.348 43.3248 136.586 43.2454 136.586 42.8483C136.586 42.4512 136.348 42.3321 135.752 42.3321H134.997V43.3248ZM138.016 43.7219H137.619V40.7833H138.016V43.7219Z" fill="white"/>
<path d="M141.551 40.7833V41.1804H140.439V43.7219H140.042V41.1804H138.93V40.7833H141.551Z" fill="white"/>
<path d="M143.854 40.7039C144.847 40.7039 145.443 41.2996 145.443 42.2526C145.443 43.2057 144.847 43.8014 143.854 43.8014C142.861 43.8014 142.266 43.2057 142.266 42.2526C142.266 41.3393 142.861 40.7039 143.854 40.7039ZM143.854 43.4042C144.609 43.4042 145.006 42.9674 145.006 42.2526C145.006 41.5378 144.569 41.101 143.854 41.101C143.1 41.101 142.703 41.5378 142.703 42.2526C142.703 42.9674 143.139 43.4042 143.854 43.4042Z" fill="white"/>
<path d="M146.515 40.7833H148.144C148.7 40.7833 149.017 41.0613 149.017 41.5378C149.017 41.8555 148.859 42.0541 148.541 42.1732C148.898 42.2526 149.097 42.4909 149.097 42.8483C149.097 43.444 148.779 43.7219 148.064 43.7219H146.476V40.7833H146.515ZM146.952 42.0144H147.985C148.422 42.0144 148.62 41.9349 148.62 41.5775C148.62 41.2599 148.461 41.1407 148.064 41.1407H146.952V42.0144ZM146.952 43.3248H148.025C148.501 43.3248 148.7 43.2057 148.7 42.888C148.7 42.5306 148.501 42.4115 148.064 42.4115H146.952V43.3248Z" fill="white"/>
<path d="M151.638 40.7039C152.631 40.7039 153.227 41.2996 153.227 42.2526C153.227 43.2057 152.631 43.8014 151.638 43.8014C150.646 43.8014 150.05 43.2057 150.05 42.2526C150.05 41.3393 150.646 40.7039 151.638 40.7039ZM151.638 43.4042C152.393 43.4042 152.79 42.9674 152.79 42.2526C152.79 41.5378 152.353 41.101 151.638 41.101C150.884 41.101 150.487 41.5378 150.487 42.2526C150.487 42.9674 150.924 43.4042 151.638 43.4042Z" fill="white"/>
<path d="M154.697 40.7833V43.2851L156.524 40.7833H157.08V43.7219H156.683V41.2201L154.856 43.7219H154.3V40.7833H154.697ZM155.253 39.9891C155.253 40.1876 155.412 40.2671 155.69 40.2671C155.968 40.2671 156.087 40.1876 156.127 39.9891H156.405C156.365 40.3862 156.127 40.5847 155.69 40.5847C155.253 40.5847 155.015 40.3862 154.975 39.9891H155.253Z" fill="white"/>
<path d="M160.535 40.7833L161.369 41.8952L162.243 40.7833H162.759L161.607 42.2129L162.759 43.7219H162.243L161.329 42.5306L160.416 43.7219H159.899L161.091 42.2129L160.019 40.7833H160.535Z" fill="white"/>
<path d="M164.07 40.7833V43.2851L165.897 40.7833H166.453V43.7219H166.056V41.2201L164.229 43.7219H163.673V40.7833H164.07Z" fill="white"/>
<path d="M168.32 40.7833L169.432 43.3248L170.584 40.7833H171.179V43.7219H170.782V41.1407L169.63 43.7219H169.193L168.042 41.1407V43.7219H167.645V40.7833H168.32Z" fill="white"/>
<path d="M172.808 40.7833V43.2851L174.635 40.7833H175.191V43.7219H174.794V41.2201L172.967 43.7219H172.411V40.7833H172.808Z" fill="white"/>
<path d="M176.819 40.7833V43.2851L178.646 40.7833H179.202V43.7219H178.805V41.2201L176.978 43.7219H176.422V40.7833H176.819Z" fill="white"/>
<path d="M16.3633 32.1263C16.3633 32.2454 16.3236 32.2851 16.2839 32.2851H12.9477C12.7094 32.2851 12.4711 32.2057 12.3122 32.0865C12.1136 31.9674 11.8356 31.61 11.359 31.0143C10.9221 30.4187 10.1675 29.3465 9.09515 27.8375C8.22138 26.6064 7.58591 25.7328 7.22846 25.2562C6.83129 24.7797 6.43412 24.4223 6.03695 24.2237C5.63979 24.0252 5.08375 23.9061 4.40857 23.9061C4.2497 23.9061 4.13055 23.9061 4.05111 23.9458V30.1407C4.05111 30.6569 4.09083 31.0541 4.20998 31.332C4.32913 31.5703 4.52772 31.7689 4.84545 31.8483C5.16318 31.9277 5.63979 31.9674 6.35469 31.9674C6.3944 31.9674 6.3944 32.0071 6.3944 32.1263C6.3944 32.2454 6.3944 32.2851 6.35469 32.2851C5.79865 32.2851 5.36177 32.2851 5.04403 32.2454H3.17734L1.39009 32.2851C1.07235 32.2851 0.635469 32.3248 0.0794336 32.3248C0.0397168 32.3248 0 32.2851 0 32.166C0 32.0468 0.0397168 32.0071 0.0794336 32.0071C0.754619 32.0071 1.23122 31.9674 1.58867 31.888C1.90641 31.8086 2.14471 31.61 2.26386 31.3717C2.38301 31.1335 2.42272 30.7364 2.42272 30.1804V17.87C2.42272 17.3537 2.38301 16.9566 2.26386 16.6786C2.14471 16.4404 1.94612 16.2418 1.62839 16.1624C1.31065 16.083 0.834053 16.0035 0.158867 16.0035C0.11915 16.0035 0.11915 15.9638 0.11915 15.8447C0.11915 15.7256 0.11915 15.6859 0.158867 15.6859L1.46952 15.7256C2.22414 15.7653 2.81989 15.7653 3.25678 15.7653C3.7731 15.7653 4.40857 15.7653 5.2029 15.7256L6.47384 15.6859C6.51356 15.6859 6.51356 15.7256 6.51356 15.8447C6.51356 15.9638 6.51356 16.0035 6.47384 16.0035C5.79865 16.0035 5.32205 16.0433 5.00432 16.1624C4.68658 16.2815 4.44828 16.4404 4.36885 16.7183C4.2497 16.9566 4.20998 17.3537 4.20998 17.9097V23.4692C5.16318 23.4295 5.75894 23.4295 5.99724 23.4295H6.51356L9.6909 18.9422C10.4852 17.8303 10.8824 17.036 10.8824 16.6389C10.8824 16.4007 10.7633 16.2418 10.5647 16.1227C10.3264 16.0035 10.0086 15.9638 9.53203 15.9638C9.49232 15.9638 9.49232 15.9241 9.49232 15.805C9.49232 15.6859 9.49232 15.6461 9.53203 15.6461L10.6441 15.6859C11.359 15.7256 11.9945 15.7256 12.5505 15.7256C13.1065 15.7256 13.7023 15.7256 14.3378 15.6859L15.3307 15.6461C15.3704 15.6461 15.4101 15.6859 15.4101 15.805C15.4101 15.9241 15.3704 15.9638 15.3307 15.9638C14.4172 15.9638 13.6229 16.2021 12.908 16.6389C12.1931 17.0757 11.4384 17.87 10.6044 18.9422L7.10931 23.5089C7.58591 23.5884 7.94336 23.7472 8.30081 23.9855C8.61855 24.2237 8.976 24.5811 9.29373 24.9783C9.61147 25.4151 10.1675 26.1696 10.9618 27.2815C11.7959 28.4728 12.4711 29.3465 12.9477 29.9819C13.464 30.6172 13.9803 31.0938 14.5761 31.4512C15.1718 31.8086 15.7676 31.9674 16.4428 32.0071C16.3633 31.9674 16.3633 32.0071 16.3633 32.1263Z" fill="white"/>
<path d="M23.2744 31.4512C22.0035 30.6966 21.0106 29.6244 20.3354 28.314C19.6205 27.0035 19.3027 25.5342 19.3027 23.9855C19.3027 22.1588 19.7793 20.61 20.6928 19.2996C21.6063 17.9891 22.7978 16.9963 24.2276 16.3609C25.6574 15.6859 27.1269 15.3682 28.6362 15.3682C30.3043 15.3682 31.7738 15.7653 33.0447 16.5595C34.3157 17.3537 35.2689 18.3862 35.9441 19.6967C36.6193 21.0071 36.9767 22.3573 36.9767 23.8266C36.9767 25.4548 36.5398 26.9241 35.7058 28.2743C34.8717 29.6244 33.7199 30.6966 32.3298 31.4512C30.9 32.2454 29.3908 32.6425 27.7227 32.6425C26.0149 32.6028 24.5454 32.2057 23.2744 31.4512ZM31.8135 31.1732C32.7667 30.5775 33.5214 29.7436 34.0774 28.592C34.6334 27.4403 34.9114 26.0902 34.9114 24.5414C34.9114 22.9133 34.5937 21.4043 33.998 20.0938C33.4022 18.7833 32.5284 17.7905 31.3766 17.036C30.2646 16.3212 28.9539 15.9638 27.4844 15.9638C25.5383 15.9638 23.9893 16.5992 22.917 17.87C21.8446 19.1407 21.2886 20.8483 21.2886 23.0721C21.2886 24.74 21.6063 26.249 22.2021 27.6389C22.7978 29.0288 23.6716 30.101 24.7837 30.8952C25.8957 31.6894 27.1667 32.0865 28.5965 32.0865C29.788 32.0468 30.8603 31.7291 31.8135 31.1732Z" fill="white"/>
<path d="M82.1342 32.1263C82.1342 32.2454 82.0945 32.2851 82.0547 32.2851C81.4987 32.2851 81.0618 32.2851 80.7441 32.2454L78.9568 32.2057L77.249 32.2454C76.971 32.2454 76.5738 32.2851 76.0575 32.2851C76.0178 32.2851 76.0178 32.2454 76.0178 32.1263C76.0178 32.0071 76.0178 31.9674 76.0575 31.9674C76.6533 31.9674 77.0901 31.9277 77.3682 31.8086C77.6462 31.7291 77.8448 31.5306 77.9639 31.2923C78.0433 31.0541 78.0831 30.6569 78.0433 30.1407L77.5667 18.0685L71.5695 32.1263C71.5298 32.2057 71.4503 32.2454 71.3709 32.2454C71.2915 32.2454 71.2121 32.2057 71.1326 32.1263L64.6588 18.1479L64.4205 29.4259C64.4205 30.379 64.5396 31.0143 64.8971 31.4115C65.2148 31.8086 65.8106 32.0071 66.6843 32.0071C66.724 32.0071 66.7241 32.0468 66.7241 32.166C66.7241 32.2851 66.724 32.3248 66.6843 32.3248C66.2077 32.3248 65.8106 32.3248 65.5325 32.2851L64.1027 32.2454L62.7127 32.2851C62.4744 32.2851 62.1169 32.3248 61.68 32.3248C61.6403 32.3248 61.6006 32.2851 61.6006 32.166C61.6006 32.0468 61.6403 32.0071 61.68 32.0071C62.4346 32.0071 62.951 31.8086 63.2687 31.4115C63.5864 31.0143 63.785 30.3393 63.785 29.4259L63.9836 17.0757C63.4673 16.3609 62.7127 16.0035 61.7992 16.0035C61.7595 16.0035 61.7595 15.9638 61.7595 15.8447C61.7595 15.7256 61.7595 15.6859 61.7992 15.6859L62.7921 15.7256C62.9907 15.7256 63.1893 15.7653 63.507 15.7653C63.8247 15.7653 64.1027 15.7653 64.341 15.7256C64.5793 15.7256 64.7382 15.6859 64.8574 15.6859C65.0957 15.6859 65.2942 15.7653 65.4134 15.9241C65.5723 16.083 65.7708 16.4801 66.0489 17.036L71.9667 29.545L77.7256 16.3212C77.9242 15.8844 78.2022 15.6461 78.5199 15.6461C78.5994 15.6461 78.7185 15.6461 78.9171 15.6859C79.076 15.6859 79.3143 15.7256 79.5526 15.7256L80.8235 15.6859C81.0221 15.6859 81.3001 15.6461 81.6973 15.6461C81.737 15.6461 81.7767 15.6859 81.7767 15.805C81.7767 15.9241 81.737 15.9638 81.6973 15.9638C80.8235 15.9638 80.188 16.083 79.8306 16.3609C79.4731 16.5992 79.2746 17.1155 79.2746 17.8303L79.7909 30.1407C79.7909 30.6967 79.8703 31.0938 79.9895 31.332C80.1086 31.5703 80.3072 31.7689 80.6249 31.8483C80.9427 31.9277 81.4193 31.9674 82.0945 31.9674C82.1342 31.9674 82.1342 32.0071 82.1342 32.1263Z" fill="white"/>
<path d="M97.7428 28.2743C97.7825 28.2743 97.8222 28.2743 97.862 28.314C97.9017 28.3537 97.9414 28.3537 97.9414 28.3934C97.7825 29.5053 97.7031 30.6966 97.7031 31.9277C97.7031 32.0865 97.6634 32.166 97.6237 32.2454C97.5442 32.3248 97.4648 32.3248 97.3059 32.3248H86.2249C86.1852 32.3248 86.1455 32.2851 86.1455 32.166C86.1455 32.0468 86.1852 32.0071 86.2249 32.0071C86.9001 32.0071 87.3767 31.9674 87.6945 31.888C88.0122 31.8086 88.2108 31.61 88.3299 31.3717C88.4491 31.1335 88.4888 30.7364 88.4888 30.1804V17.87C88.4888 17.3537 88.4491 16.9566 88.3299 16.6786C88.2108 16.4404 88.0122 16.2418 87.6945 16.1624C87.3767 16.083 86.9001 16.0035 86.2249 16.0035C86.1852 16.0035 86.1455 15.9638 86.1455 15.8447C86.1455 15.7256 86.1852 15.6859 86.2249 15.6859H96.8293C96.9882 15.6859 97.0676 15.7653 97.0676 15.9241L97.1471 19.2201C97.1471 19.2599 97.1073 19.2599 96.9882 19.2599C96.869 19.2599 96.8293 19.2599 96.8293 19.2201C96.7499 18.2671 96.4719 17.5523 95.9556 17.036C95.4392 16.5198 94.7641 16.2418 93.93 16.2418H92.3413C91.7456 16.2418 91.3087 16.2815 90.991 16.3609C90.7129 16.4404 90.4746 16.5992 90.3952 16.8375C90.2761 17.0757 90.2363 17.4331 90.2363 17.9494V23.3898H93.4534C94.2875 23.3898 94.8832 23.231 95.2804 22.953C95.6378 22.675 95.8364 22.1588 95.8364 21.4837C95.8364 21.444 95.8761 21.444 95.9953 21.444C96.1144 21.444 96.1541 21.444 96.1541 21.4837L96.1144 23.6281C96.1144 24.1443 96.1144 24.5414 96.1541 24.8194L96.1939 26.0902C96.1939 26.1299 96.1541 26.1696 96.035 26.1696C95.9158 26.1696 95.8761 26.1299 95.8761 26.0902C95.8761 25.2959 95.6775 24.74 95.3201 24.4223C94.9229 24.1046 94.3272 23.906 93.4137 23.906H90.2761V30.0216C90.2761 30.4981 90.3158 30.8555 90.4349 31.0938C90.5541 31.332 90.7527 31.4909 91.0307 31.5703C91.3087 31.6497 91.7456 31.6894 92.3413 31.6894H94.4463C95.2804 31.6894 95.9556 31.3717 96.5513 30.7761C97.1074 30.1804 97.5045 29.3465 97.7031 28.2743C97.6237 28.2743 97.6634 28.2743 97.7428 28.2743Z" fill="white"/>
<path d="M104.098 16.9566C103.542 17.5126 103.145 18.5054 102.907 19.8555C102.907 19.8952 102.827 19.8952 102.748 19.8952C102.668 19.8952 102.589 19.8555 102.589 19.8158C102.668 19.3393 102.748 18.5451 102.827 17.4729C102.907 16.4007 102.946 15.5667 102.946 15.0108C102.946 14.9314 102.986 14.8916 103.105 14.8916C103.224 14.8916 103.264 14.9314 103.264 15.0108C103.264 15.4079 103.741 15.6064 104.654 15.6064C106.163 15.6462 107.911 15.6859 109.976 15.6859C111.049 15.6859 112.121 15.6859 113.312 15.6462L115.1 15.6064C115.735 15.6064 116.212 15.5667 116.49 15.4873C116.807 15.4079 117.006 15.2093 117.085 14.9711C117.085 14.8916 117.165 14.8519 117.244 14.8519C117.324 14.8519 117.364 14.8916 117.364 14.9711C117.324 15.4873 117.244 16.2418 117.205 17.314C117.165 18.3862 117.125 19.2202 117.125 19.8555C117.125 19.8952 117.086 19.9349 116.966 19.9349C116.887 19.9349 116.807 19.8952 116.807 19.8555C116.768 18.5054 116.49 17.5126 115.973 16.9566C115.457 16.4007 114.623 16.1227 113.432 16.1227C112.637 16.1227 112.081 16.1624 111.724 16.2418C111.406 16.3212 111.168 16.4801 111.049 16.6786C110.929 16.9169 110.85 17.314 110.85 17.87V30.1407C110.85 30.6967 110.929 31.0938 111.049 31.332C111.168 31.5703 111.406 31.7689 111.763 31.8483C112.121 31.9277 112.677 31.9674 113.432 31.9674C113.471 31.9674 113.511 32.0071 113.511 32.1263C113.511 32.2454 113.471 32.2851 113.432 32.2851C112.836 32.2851 112.359 32.2851 112.041 32.2454L109.976 32.2057L107.99 32.2454C107.633 32.2454 107.156 32.2851 106.521 32.2851C106.481 32.2851 106.481 32.2454 106.481 32.1263C106.481 32.0071 106.481 31.9674 106.521 31.9674C107.275 31.9674 107.831 31.9277 108.189 31.8483C108.546 31.7689 108.785 31.5703 108.904 31.332C109.023 31.0938 109.102 30.6967 109.102 30.1407V17.8303C109.102 17.2743 109.023 16.8772 108.904 16.6786C108.785 16.4404 108.546 16.3212 108.229 16.2418C107.911 16.1624 107.315 16.1624 106.521 16.1624C105.488 16.1227 104.654 16.4007 104.098 16.9566Z" fill="white"/>
<path d="M140.161 32.1263C140.161 32.2454 140.121 32.2851 140.082 32.2851C139.526 32.2851 139.089 32.2851 138.771 32.2454L136.944 32.2057L135.038 32.2454C134.72 32.2454 134.283 32.2851 133.727 32.2851C133.687 32.2851 133.687 32.2454 133.687 32.1263C133.687 32.0071 133.687 31.9674 133.727 31.9674C134.442 31.9674 134.958 31.9277 135.236 31.8483C135.554 31.7689 135.752 31.5703 135.872 31.332C135.991 31.0938 136.03 30.6967 136.03 30.1407V17.87L124.671 32.5631C124.632 32.6028 124.513 32.6425 124.393 32.6425C124.115 32.6425 123.996 32.5631 123.996 32.444V17.7906C123.996 17.2743 123.957 16.8772 123.837 16.5992C123.718 16.361 123.52 16.1624 123.162 16.083C122.844 16.0036 122.328 15.9241 121.653 15.9241C121.613 15.9241 121.613 15.8844 121.613 15.7653C121.613 15.6462 121.613 15.6064 121.653 15.6064L123.003 15.6462C123.758 15.6859 124.354 15.6859 124.83 15.6859C125.347 15.6859 125.982 15.6859 126.776 15.6462L128.008 15.6064C128.047 15.6064 128.087 15.6462 128.087 15.7653C128.087 15.8844 128.047 15.9241 128.008 15.9241C127.332 15.9241 126.816 15.9638 126.498 16.083C126.181 16.1624 125.982 16.361 125.863 16.5992C125.744 16.8375 125.704 17.2346 125.704 17.7906V30.2201L137.063 15.527C137.143 15.4873 137.262 15.4476 137.381 15.4476C137.659 15.4476 137.778 15.527 137.778 15.6462V30.1407C137.778 30.657 137.818 31.0541 137.937 31.332C138.056 31.5703 138.255 31.7689 138.572 31.8483C138.89 31.9277 139.367 31.9674 140.042 31.9674C140.121 31.9674 140.161 32.0071 140.161 32.1263Z" fill="white"/>
<path d="M160.615 32.1263C160.615 32.2454 160.575 32.2851 160.536 32.2851H157.199C156.961 32.2851 156.723 32.2057 156.564 32.0865C156.365 31.9674 156.087 31.61 155.611 31.0143C155.174 30.4187 154.419 29.3465 153.347 27.8375C152.473 26.6064 151.838 25.7328 151.48 25.2562C151.083 24.7797 150.686 24.4223 150.289 24.2237C149.891 24.0252 149.335 23.9061 148.66 23.9061C148.501 23.9061 148.382 23.9061 148.303 23.9458V30.1407C148.303 30.6569 148.342 31.0541 148.462 31.332C148.581 31.5703 148.779 31.7689 149.097 31.8483C149.415 31.9277 149.891 31.9674 150.606 31.9674C150.646 31.9674 150.646 32.0071 150.646 32.1263C150.646 32.2454 150.646 32.2851 150.606 32.2851C150.05 32.2851 149.613 32.2851 149.296 32.2454L147.389 32.2057L145.602 32.2454C145.284 32.2454 144.847 32.2851 144.291 32.2851C144.252 32.2851 144.212 32.2454 144.212 32.1263C144.212 32.0071 144.252 31.9674 144.291 31.9674C144.967 31.9674 145.443 31.9277 145.801 31.8483C146.118 31.7689 146.357 31.5703 146.476 31.332C146.595 31.0938 146.635 30.6967 146.635 30.1407V17.8303C146.635 17.314 146.595 16.9169 146.476 16.6389C146.357 16.4007 146.158 16.2021 145.84 16.1227C145.523 16.0433 145.046 15.9638 144.371 15.9638C144.331 15.9638 144.331 15.9241 144.331 15.805C144.331 15.6859 144.331 15.6461 144.371 15.6461L145.681 15.6859C146.436 15.7256 147.032 15.7256 147.469 15.7256C147.985 15.7256 148.62 15.7256 149.415 15.6859L150.686 15.6461C150.725 15.6461 150.725 15.6859 150.725 15.805C150.725 15.9241 150.725 15.9638 150.686 15.9638C150.011 15.9638 149.534 16.0035 149.216 16.1227C148.898 16.2418 148.66 16.4007 148.581 16.6786C148.462 16.9169 148.422 17.314 148.422 17.87V23.4692C149.375 23.4295 149.971 23.4295 150.209 23.4295H150.725L153.903 18.9422C154.697 17.8303 155.094 17.036 155.094 16.6389C155.094 16.4007 154.975 16.2418 154.777 16.1227C154.538 16.0035 154.221 15.9638 153.744 15.9638C153.704 15.9638 153.704 15.9241 153.704 15.805C153.704 15.6859 153.704 15.6461 153.744 15.6461L154.856 15.6859C155.571 15.7256 156.206 15.7256 156.762 15.7256C157.318 15.7256 157.914 15.7256 158.55 15.6859L159.543 15.6461C159.582 15.6461 159.622 15.6859 159.622 15.805C159.622 15.9241 159.582 15.9638 159.543 15.9638C158.629 15.9638 157.835 16.2021 157.12 16.6389C156.405 17.0757 155.65 17.87 154.816 18.9422L151.321 23.5089C151.798 23.5884 152.155 23.7472 152.513 23.9855C152.83 24.2237 153.188 24.5811 153.506 24.9783C153.823 25.4151 154.379 26.1696 155.174 27.2815C156.008 28.4728 156.683 29.3465 157.16 29.9819C157.676 30.6172 158.192 31.0938 158.788 31.4512C159.344 31.8086 159.979 31.9674 160.655 32.0071C160.575 31.9674 160.615 32.0071 160.615 32.1263Z" fill="white"/>
<path d="M183.849 24.3032C184.683 25.1371 185.12 26.1696 185.12 27.3609C185.12 28.314 184.882 29.1479 184.445 29.9025C183.968 30.657 183.373 31.2526 182.578 31.6895C181.784 32.1263 180.87 32.3248 179.878 32.3248C179.282 32.3248 178.686 32.2851 178.011 32.2454C177.773 32.2454 177.455 32.2057 177.137 32.2057C176.819 32.2057 176.422 32.166 176.025 32.166L174.238 32.2057C173.92 32.2057 173.483 32.2454 172.927 32.2454C172.887 32.2454 172.848 32.2057 172.848 32.0866C172.848 31.9674 172.887 31.9277 172.927 31.9277C173.563 31.9277 174.039 31.888 174.397 31.8086C174.714 31.7292 174.913 31.5306 175.032 31.2923C175.151 31.0541 175.191 30.657 175.191 30.101V17.7906C175.191 17.2743 175.151 16.8772 175.032 16.5992C174.913 16.361 174.714 16.1624 174.397 16.083C174.079 16.0036 173.602 15.9241 172.967 15.9241C172.927 15.9241 172.887 15.8844 172.887 15.7653C172.887 15.6462 172.927 15.6065 172.967 15.6065L174.277 15.6462C175.032 15.6859 175.628 15.6859 176.065 15.6859C176.382 15.6859 176.66 15.6859 176.938 15.6462C177.216 15.6462 177.455 15.6065 177.653 15.6065C178.17 15.5667 178.686 15.527 179.163 15.527C180.632 15.527 181.744 15.8447 182.459 16.4801C183.174 17.1155 183.571 17.9891 183.571 19.0216C183.571 19.8555 183.293 20.6498 182.737 21.2851C182.181 21.9602 181.466 22.4765 180.513 22.8339C181.863 23.0324 182.975 23.4693 183.849 24.3032ZM177.495 16.083C177.296 16.1624 177.097 16.3213 177.018 16.5992C176.938 16.8772 176.859 17.2743 176.859 17.87V22.9133L178.051 22.953C179.321 22.953 180.275 22.6353 180.87 21.9602C181.466 21.2851 181.784 20.4115 181.784 19.2996C181.784 18.3068 181.506 17.4729 180.99 16.8772C180.473 16.2816 179.639 15.9639 178.527 15.9639C178.051 15.9639 177.733 16.0036 177.495 16.083ZM183.253 28.036C183.253 26.6859 182.856 25.6137 182.062 24.7797C181.268 23.9458 180.195 23.5487 178.845 23.509C178.408 23.509 177.773 23.509 176.859 23.5487V30.1407C176.859 30.6173 176.938 30.9747 177.058 31.2129C177.177 31.4512 177.455 31.6497 177.812 31.7689C178.17 31.888 178.726 31.9277 179.48 31.9277C181.983 31.888 183.253 30.6173 183.253 28.036Z" fill="white"/>
<path d="M208.195 32.1263C208.195 32.2454 208.155 32.2851 208.116 32.2851C207.56 32.2851 207.123 32.2851 206.805 32.2454L204.978 32.2057L203.072 32.2454C202.754 32.2454 202.317 32.2851 201.761 32.2851C201.721 32.2851 201.721 32.2454 201.721 32.1263C201.721 32.0071 201.721 31.9674 201.761 31.9674C202.476 31.9674 202.992 31.9277 203.27 31.8483C203.588 31.7689 203.787 31.5703 203.906 31.332C204.025 31.0938 204.065 30.6967 204.065 30.1407V17.87L192.706 32.5631C192.666 32.6028 192.547 32.6425 192.428 32.6425C192.15 32.6425 192.03 32.5631 192.03 32.444V17.7906C192.03 17.2743 191.991 16.8772 191.872 16.5992C191.752 16.361 191.554 16.1624 191.196 16.083C190.879 16.0036 190.362 15.9241 189.687 15.9241C189.647 15.9241 189.647 15.8844 189.647 15.7653C189.647 15.6462 189.647 15.6064 189.687 15.6064L191.038 15.6462C191.792 15.6859 192.388 15.6859 192.865 15.6859C193.381 15.6859 194.016 15.6859 194.811 15.6462L196.042 15.6064C196.082 15.6064 196.121 15.6462 196.121 15.7653C196.121 15.8844 196.082 15.9241 196.042 15.9241C195.367 15.9241 194.85 15.9638 194.533 16.083C194.215 16.1624 194.016 16.361 193.897 16.5992C193.778 16.8375 193.738 17.2346 193.738 17.7906V30.2201L205.097 15.527C205.177 15.4873 205.296 15.4476 205.415 15.4476C205.693 15.4476 205.812 15.527 205.812 15.6462V30.1407C205.812 30.657 205.852 31.0541 205.971 31.332C206.09 31.5703 206.289 31.7689 206.607 31.8483C206.924 31.9277 207.401 31.9674 208.076 31.9674C208.195 31.9674 208.195 32.0071 208.195 32.1263Z" fill="white"/>
<path d="M58.9002 27.8375C59.218 27.5595 59.218 27.5595 59.7343 27.5198C57.9073 30.1407 55.5243 31.6498 52.347 31.6895C49.0902 31.7292 46.6675 30.2599 45.0391 27.361C45.3171 27.3212 45.4362 27.4801 45.5157 27.5992C46.7866 29.148 48.4547 30.0216 50.3611 30.4584C54.1342 31.2924 57.4307 29.2671 58.9002 27.8375Z" fill="#E5E5E5"/>
<path d="M57.6691 17.7112C56.8748 16.8375 55.9613 16.1227 54.9287 15.6065C54.5712 15.4079 54.3726 15.2094 54.2535 14.7726C53.5783 12.1119 49.2889 12.509 47.3427 13.1841C45.0392 14.018 43.3314 15.8845 41.981 18.2671C39.0022 23.4693 40.9483 29.9819 46.469 32.3249C47.9782 32.9602 49.5272 33.1985 51.3144 33.0397C51.1158 32.9205 51.0761 32.8808 51.0364 32.8411C50.9173 32.8014 50.7981 32.8014 50.7187 32.8014C49.2492 32.5631 47.8194 32.2454 46.5881 31.2527C45.1186 30.101 44.1257 28.6714 43.6888 26.8844C43.2122 24.9386 43.6491 24.6209 45.3966 23.9061C48.0974 22.7545 47.8194 19.4982 49.5272 17.592C51.9102 14.9314 55.9613 16.5596 58.1457 18.6245C58.106 18.1877 57.8677 17.9494 57.6691 17.7112ZM51.0364 15.0505C50.7981 15.0505 50.5598 14.852 50.5598 14.574C50.5598 14.3357 50.7584 14.0975 51.0364 14.0975C51.3144 14.0975 51.513 14.296 51.513 14.574C51.4733 14.8123 51.2747 15.0505 51.0364 15.0505Z" fill="white"/>
<path d="M37.2151 16.2816C37.6917 16.3213 38.208 16.4007 38.6847 16.361C38.7641 16.361 38.9229 16.4007 38.9627 16.2816C39.0024 16.1227 38.8435 16.1227 38.7641 16.083C38.3272 15.8844 37.8506 15.7256 37.374 15.4873C35.825 14.7328 34.3952 13.7798 33.2434 12.509C31.5356 10.6823 30.4633 8.49818 29.7881 6.0758C30.3838 6.59204 30.9399 7.10829 31.5753 7.58482C32.5683 8.29962 33.6009 8.85558 34.7527 9.2924C34.8321 9.33211 34.9116 9.33211 35.0704 9.21298C34.5144 8.81586 33.9981 8.33933 33.5215 7.8628C32.8066 7.18771 32.2108 6.39349 31.6945 5.55955C31.0987 4.6462 30.7016 3.61371 30.4633 2.58122C30.2647 1.74729 30.1455 0.913355 30.0661 0C30.3441 0.436822 30.5824 0.873644 30.8207 1.23104C31.3768 2.1444 32.0519 2.93862 32.7668 3.73284C33.4023 4.40793 34.0775 5.0036 34.7924 5.55955C36.0633 6.55233 37.4534 7.42598 38.8435 8.29962C40.313 9.25269 41.862 10.1263 43.1726 11.278C44.0464 12.0722 44.8408 12.9458 45.3174 14.0577C45.7542 15.1299 45.9131 16.2021 45.794 17.3538C45.6748 18.7039 45.2776 19.935 44.801 21.166C44.6819 21.444 44.6025 21.3646 44.4833 21.2057C43.5698 20.1335 42.4975 19.3393 41.1471 18.9819C39.9159 18.7436 37.4534 17.6317 37.2151 16.2816Z" fill="#E5E5E5"/>
<path d="M224.956 24.462C224.797 24.3826 224.519 24.2238 224.36 24.1046C223.764 23.7472 223.169 23.509 222.573 23.3501C221.024 22.8339 219.475 22.675 217.926 22.8339C217.688 22.8339 217.41 22.8339 217.171 22.9133C215.186 23.1516 213.2 24.0252 211.571 25.3357C213.279 23.8664 215.265 22.8339 217.41 22.3971C217.569 22.3971 217.847 22.3176 218.085 22.3176C219.356 22.1588 220.825 22.2382 222.215 22.5559C222.891 22.7148 223.685 22.9927 224.44 23.4296L224.956 24.462Z" fill="white"/>
<path opacity="0.99" d="M230 32.1263C230 32.2057 230 32.2851 229.921 32.2851C229.563 32.2851 229.047 32.2851 228.372 32.2057H225.353C224.758 32.2851 224.321 32.2851 224.082 32.2851C224.003 32.2851 224.003 32.2057 224.003 32.1263C224.003 32.0469 224.003 31.9674 224.082 31.9674C224.758 31.9674 225.194 31.888 225.552 31.8086C225.79 31.7292 225.989 31.4512 225.989 31.2129C225.989 30.9747 225.83 30.5378 225.631 30.0216L222.533 23.3898L222.176 22.6353L219.952 17.9097L218.045 22.3971L217.887 22.9133L215.305 29.0288C215.067 29.6245 214.948 30.0613 214.948 30.4981C214.948 31.5306 215.821 32.0469 217.529 32.0469C217.609 32.0469 217.609 32.1263 217.609 32.2057C217.609 32.2851 217.609 32.3646 217.529 32.3646C217.172 32.3646 216.775 32.3646 216.139 32.2851H212.803C212.287 32.3646 211.85 32.3646 211.532 32.3646C211.452 32.3646 211.373 32.2851 211.373 32.2057C211.373 32.1263 211.452 32.0469 211.532 32.0469C211.969 32.0469 212.406 31.9674 212.723 31.8086C213.081 31.6498 213.399 31.2924 213.756 30.7761C213.994 30.3393 214.352 29.6642 214.709 28.7906L217.132 23.0324L217.37 22.5162L220.309 15.4873C220.389 15.4873 220.389 15.4873 220.468 15.4873C220.548 15.4873 220.627 15.4873 220.627 15.4873L224.4 23.5487L224.916 24.5812L226.902 28.7111C227.339 29.6642 227.657 30.3393 228.014 30.7761C228.253 31.2924 228.61 31.6498 228.888 31.8086C229.126 31.9674 229.484 32.0469 229.921 32.0469C230 31.9277 230 32.0469 230 32.1263Z" fill="white"/>
</g>
<defs>
<clipPath id="clip0_654_8674">
<rect width="230" height="45" fill="white"/>
</clipPath>
</defs>
</svg>
