<svg width="44" height="44" viewBox="0 0 44 44" fill="none" xmlns="http://www.w3.org/2000/svg">
<path fill-rule="evenodd" clip-rule="evenodd" d="M15.8798 10.0315C12.886 10.3623 10.3178 12.4026 9.37982 15.1954C9.09639 16.0394 9.01338 16.5791 9.01106 17.5925C9.00869 18.6284 9.07559 19.0831 9.35886 19.9564C9.73025 21.1015 10.2921 22.0277 11.1956 22.9841C11.3095 23.1047 11.4027 23.2123 11.4027 23.2234C11.4027 23.2344 11.3239 23.3342 11.2276 23.4452C10.8183 23.9173 10.5825 24.6301 10.6269 25.2617C10.7168 26.541 11.5592 27.5002 12.838 27.7797C12.9757 27.8098 12.9828 27.8263 12.9828 28.113C12.9828 28.7094 13.2378 29.2938 13.7199 29.8026C14.1704 30.2779 14.7106 30.5457 15.41 30.6402L15.6512 30.6728L15.7121 30.9959C15.8823 31.899 16.6433 32.7303 17.5575 33.0117C17.8773 33.1101 18.4497 33.1467 18.9235 33.0989C19.0242 33.0888 19.0637 33.1348 19.1661 33.3816C19.581 34.3819 20.5388 35 21.6738 35C22.6009 35 23.0557 34.7637 24.023 33.7797C24.7485 33.0416 24.954 32.7036 25.0611 32.0717L25.1269 31.684L25.3968 31.6456C26.0081 31.5588 26.664 31.191 27.0617 30.7119C27.3201 30.4005 27.57 29.858 27.6395 29.4571L27.6968 29.1273L28.0308 29.0708C28.437 29.0022 28.9866 28.7555 29.302 28.5004C29.7991 28.0983 30.1719 27.4389 30.2497 26.8243L30.2862 26.5359L30.5783 26.4999C31.1837 26.4253 31.865 26.0575 32.2484 25.5984C32.6097 25.1657 32.8931 24.4608 32.8931 23.9949C32.8931 23.802 32.9343 23.7482 33.5927 23.0829C34.3569 22.3108 34.8087 21.6974 35.1816 20.9258C35.5598 20.1434 35.8954 18.9521 35.8954 18.3927C35.8954 18.2815 35.9191 18.1905 35.9481 18.1905C35.9804 18.1905 36.0005 17.944 36 17.5535C35.9994 17.1231 35.9826 16.9419 35.9481 16.9946C35.9106 17.0519 35.8969 17.0155 35.8962 16.8573C35.8941 16.2802 35.5629 15.1002 35.1816 14.3113C34.8059 13.5339 34.3587 12.9232 33.6602 12.2338C32.7163 11.302 31.8342 10.7622 30.6104 10.3673C29.0361 9.85934 27.2503 9.87926 25.6694 10.4224C24.6308 10.7793 23.6827 11.3437 22.912 12.0638L22.465 12.4815L22.0036 12.0551C20.6286 10.7847 18.8843 10.0794 16.9333 10.0051C16.6001 9.99239 16.1261 10.0043 15.8798 10.0315ZM27.6522 11.6979C27.0628 11.7479 26.3763 11.9413 25.7495 12.2339C24.7982 12.6781 24.26 13.1061 22.6746 14.6798L21.5421 15.8039L21.9541 16.1959C22.5893 16.8001 23.2 17.0169 23.9187 16.8933C24.4242 16.8064 24.8137 16.5897 25.3165 16.1155L25.756 15.701L28.9857 18.8825L32.2154 22.064L32.5337 21.7261C33.4652 20.7368 34.0667 19.4634 34.2144 18.168C34.5451 15.2672 32.2847 12.3365 29.285 11.7766C28.7288 11.6727 28.231 11.6488 27.6522 11.6979ZM15.8775 11.7448C14.9594 11.8716 13.8485 12.3278 13.0976 12.8863C10.8088 14.5888 10.064 17.6578 11.321 20.2072C11.6278 20.8295 11.9083 21.2332 12.36 21.7026L12.725 22.0819L13.0126 21.9564C14.5011 21.3065 16.3573 22.2572 16.6979 23.8438C16.7395 24.0374 16.7738 24.2843 16.7744 24.3924C16.7749 24.5056 16.8032 24.596 16.8411 24.6055C16.8774 24.6145 17.0749 24.6746 17.28 24.739C18.1902 25.0247 18.9448 25.9121 19.0751 26.85L19.1072 27.0815L19.3502 27.0826C19.8522 27.0849 20.5935 27.4341 21.0254 27.8717C21.2803 28.1302 21.5996 28.6339 21.6489 28.8557L21.6829 29.0083L22.1392 28.9744C22.9205 28.9163 23.5626 29.1178 24.1917 29.6187C24.5812 29.9287 24.8146 30.0179 25.1137 29.9707C25.728 29.8737 26.1029 29.2358 25.8852 28.6577C25.8549 28.5772 24.9247 27.6164 23.8181 26.5226L21.806 24.5338L22.4247 23.9231L23.0433 23.3124L25.058 25.2986C26.1662 26.3909 27.1395 27.3091 27.221 27.3391C27.8096 27.555 28.4529 27.184 28.5521 26.5714C28.624 26.1277 28.5766 26.0691 26.4412 23.9621C25.3545 22.8899 24.4655 21.9887 24.4655 21.9594C24.4655 21.8912 25.5826 20.7902 25.6517 20.7902C25.6804 20.7902 26.5926 21.6678 27.6788 22.7405C29.8133 24.8483 29.8726 24.8951 30.3221 24.8242C30.9426 24.7263 31.3185 24.0913 31.0998 23.5103C31.0695 23.4297 29.8356 22.1692 28.3559 20.7072L25.6671 18.0504L25.3157 18.2234C24.5787 18.5864 23.5596 18.7071 22.7187 18.5312C22.2745 18.4383 21.6344 18.1477 21.2557 17.8672C20.901 17.6044 19.1455 15.9085 19.1455 15.8286C19.1455 15.7973 19.6192 15.3047 20.198 14.7339L21.2504 13.6959L21.0803 13.5207C20.5807 13.0064 19.7317 12.4414 19.0232 12.1514C18.1274 11.7849 16.8148 11.6152 15.8775 11.7448ZM9 17.6185C9 17.976 9.00843 18.1223 9.0187 17.9435C9.02902 17.7648 9.02902 17.4723 9.0187 17.2936C9.00843 17.1149 9 17.2611 9 17.6185ZM13.7281 23.5014C13.4902 23.569 12.6001 24.4222 12.4516 24.7249C12.1388 25.3629 12.5988 26.0936 13.3133 26.0936C13.6695 26.0936 13.8869 25.9637 14.416 25.4345C15.039 24.8114 15.1542 24.5034 14.9375 24.0398C14.7156 23.5652 14.2434 23.355 13.7281 23.5014ZM15.877 26.4495C15.7482 26.5309 15.4506 26.7959 15.2156 27.0386C14.8584 27.4076 14.7781 27.5227 14.7247 27.7423C14.5203 28.5833 15.4318 29.2474 16.1714 28.7962C16.2619 28.7409 16.5514 28.476 16.8146 28.2075C17.3325 27.679 17.4256 27.4815 17.3514 27.0691C17.2324 26.4084 16.4575 26.0828 15.877 26.4495ZM18.9085 28.7934C18.6232 28.8629 18.4402 28.992 18.0053 29.4305C17.4651 29.9751 17.3897 30.1176 17.417 30.541C17.4524 31.0894 17.8208 31.42 18.39 31.4143C18.7471 31.4107 18.9093 31.3068 19.5017 30.7024C20.0223 30.1711 20.1316 29.9528 20.0666 29.5733C19.979 29.0612 19.4026 28.6731 18.9085 28.7934ZM21.955 30.7763C21.6332 30.9335 20.8014 31.8008 20.7304 32.0531C20.6513 32.3343 20.6604 32.4822 20.7713 32.7233C20.9105 33.0258 21.1972 33.2542 21.4925 33.298C21.916 33.3607 22.115 33.2625 22.6853 32.7097C22.9664 32.4372 23.233 32.138 23.2779 32.0448C23.3721 31.8487 23.3844 31.4692 23.3033 31.2574C23.1099 30.752 22.4711 30.5241 21.955 30.7763Z" fill="#858C68"/>
</svg>
