<svg width="44" height="44" viewBox="0 0 44 44" fill="none" xmlns="http://www.w3.org/2000/svg">
<path fill-rule="evenodd" clip-rule="evenodd" d="M21.5529 6.12623C21.1441 6.35199 15.9583 9.50076 15.7844 9.62881C15.4332 9.88727 15.4425 9.77442 15.4425 13.8042C15.4425 17.8339 15.4332 17.7211 15.7844 17.9796C15.9814 18.1247 21.2074 21.2935 21.5663 21.4856C21.9027 21.6655 22.1179 21.6541 22.5234 21.4351C22.7109 21.3337 24.0841 20.5107 25.5749 19.6063C27.7068 18.3129 28.3144 17.9165 28.4214 17.7494L28.5575 17.537V13.8042V10.0714L28.4214 9.85895C28.3144 9.69183 27.7068 9.29551 25.5749 8.00206C24.0841 7.09762 22.7109 6.27465 22.5234 6.17331C22.1232 5.95704 21.8805 5.94529 21.5529 6.12623ZM20.0625 9.18134C19.0461 9.79887 18.2071 10.3274 18.1979 10.3558C18.1797 10.4125 21.8935 12.6788 22.0046 12.6788C22.0994 12.6788 25.8153 10.423 25.8153 10.3655C25.8153 10.301 22.0922 8.05145 21.992 8.05539C21.9472 8.05714 21.079 8.56382 20.0625 9.18134ZM17.2315 14.3539L17.2322 16.7114L18.9156 17.7286C19.8416 18.288 20.7131 18.8172 20.8524 18.9044L21.1058 19.0631L21.1051 16.6994L21.1044 14.3356L20.2556 13.8272C19.7887 13.5475 18.9172 13.0212 18.3188 12.6575L17.2309 11.9963L17.2315 14.3539ZM24.8186 13.1699L22.8978 14.3356L22.8961 16.697L22.8942 19.0585L23.1811 18.8853C23.3389 18.7901 24.2107 18.2623 25.1185 17.7125L26.7691 16.713V14.352C26.7691 13.0535 26.7624 11.994 26.7542 11.9976C26.746 12.0012 25.875 12.5287 24.8186 13.1699ZM11.4635 23.6044C11.2598 23.7208 8.1945 27.533 8.06525 27.8308C7.89053 28.2333 8.08093 28.7908 8.46669 29.006C8.64828 29.1074 8.81901 29.1219 9.82291 29.1219H10.9714V33.1883C10.9714 37.1404 10.9748 37.2617 11.0914 37.5015C11.1687 37.6603 11.2953 37.7931 11.4468 37.8741C11.6799 37.9989 11.7767 38 22 38C32.2233 38 32.3201 37.9989 32.5532 37.8741C32.7047 37.7931 32.8313 37.6603 32.9086 37.5015C33.0252 37.2617 33.0286 37.1404 33.0286 33.1883V29.1219H34.1771C35.181 29.1219 35.3517 29.1074 35.5333 29.006C35.9191 28.7908 36.1095 28.2333 35.9347 27.8308C35.8055 27.533 32.7402 23.7208 32.5365 23.6044C32.3561 23.5014 31.7395 23.495 22 23.495C12.2605 23.495 11.6439 23.5014 11.4635 23.6044ZM11.5378 26.3085L10.7876 27.2463H14.6923H18.597L19.3472 26.3085L20.0974 25.3707H16.1927H12.2879L11.5378 26.3085ZM24.6528 26.3085L25.403 27.2463H29.3077H33.2124L32.4622 26.3085L31.7121 25.3707H27.8073H23.9026L24.6528 26.3085ZM20.3377 27.9879C19.8698 28.5803 19.5296 28.9541 19.399 29.0195C19.217 29.1105 18.8347 29.1219 15.977 29.1219H12.7598V32.6231V36.1244H16.9328H21.1058V31.5915C21.1058 29.0985 21.098 27.0587 21.0886 27.0587C21.0792 27.0587 20.7413 27.4769 20.3377 27.9879ZM22.8942 31.579V36.1244H27.0672H31.2402V32.6231V29.1219H28.0051C25.037 29.1219 24.7543 29.1129 24.5784 29.0125C24.473 28.9524 24.0753 28.5092 23.6946 28.0278C23.314 27.5464 22.9782 27.1258 22.9484 27.0931C22.9158 27.0574 22.8942 28.849 22.8942 31.579Z" fill="#858C68"/>
</svg>
