<svg width="44" height="44" viewBox="0 0 44 44" fill="none" xmlns="http://www.w3.org/2000/svg">
<path fill-rule="evenodd" clip-rule="evenodd" d="M17.8783 6.07133C15.0329 6.36878 12.2728 7.65531 10.1767 9.66108C8.96814 10.8176 8.09403 12.0092 7.3636 13.4963C5.05011 18.2058 5.71426 23.7063 9.09849 27.8641C9.33952 28.1602 9.53675 28.4557 9.53675 28.5208C9.53675 28.8454 8.75405 29.7411 7.8192 30.4864C7.19578 30.9835 7.1031 31.1286 7.1031 31.6079C7.1031 32.02 7.21465 32.2355 7.5621 32.495C7.74299 32.6301 7.8294 32.6331 12.4714 32.6659L17.1966 32.6992L17.4755 33.0993C19.0807 35.4015 21.4009 36.9995 24.1053 37.6653C24.5453 37.7737 25.1967 37.8933 25.5529 37.9312C25.9431 37.9727 28.374 38 31.6724 38C36.2006 38 37.1829 37.984 37.367 37.9071C37.8604 37.7009 38.1313 37.0264 37.922 36.5254C37.8676 36.3951 37.6769 36.1718 37.4983 36.0292C36.4596 35.1996 35.6639 34.3506 35.5683 33.9697C35.5387 33.8516 35.6321 33.6655 35.9594 33.1903C36.5172 32.3801 36.8694 31.7269 37.2033 30.8836C38.5717 27.4275 38.1621 23.5867 36.0924 20.4662C35.4347 19.4746 34.0058 18.0277 33.0942 17.4302L32.4838 17.0301L32.3381 16.4038C31.5406 12.9771 29.5174 10.0692 26.5959 8.15032C24.0985 6.50993 20.9242 5.75295 17.8783 6.07133ZM17.7817 8.2334C13.0143 8.97498 9.34872 12.432 8.35546 17.1234C8.19884 17.8634 8.17717 18.1187 8.17377 19.2638C8.17077 20.2667 8.19851 20.7165 8.29492 21.2308C8.71364 23.4633 9.61116 25.2644 11.1579 26.9761C11.6793 27.5531 11.7666 27.7838 11.7189 28.4595C11.6776 29.0449 11.49 29.5903 11.1626 30.0769C11.0357 30.2654 10.9151 30.4468 10.8947 30.4799C10.8727 30.5155 12.8644 30.5287 15.7812 30.5122C21.1024 30.4821 20.9315 30.4929 22.3805 30.0981C25.889 29.1422 28.7733 26.3879 29.9369 22.8821C30.6414 20.7598 30.7232 18.8091 30.1977 16.6634C29.1842 12.525 25.9703 9.37617 21.7716 8.40802C20.5428 8.12465 18.9335 8.05423 17.7817 8.2334ZM18.3045 12.5056C18.0478 12.5598 17.5828 12.7265 17.2711 12.876C16.4741 13.2581 15.6763 14.0542 15.2795 14.8631C14.8049 15.831 14.6709 16.9621 14.9812 17.3811C15.3374 17.8619 15.911 17.9995 16.404 17.7224C16.7256 17.5416 16.9102 17.2013 16.9602 16.6968C17.021 16.0845 17.1833 15.6971 17.5448 15.3015C18.4262 14.3371 19.8885 14.2995 20.8116 15.2174C21.2576 15.6609 21.4383 16.1167 21.4383 16.7982C21.4383 17.3052 21.4148 17.414 21.2202 17.8093C20.8535 18.5542 20.241 18.9546 19.3086 19.0592C18.9151 19.1033 18.7497 19.1565 18.5633 19.2987C18.1654 19.6022 18.1272 19.7782 18.1506 21.2001C18.1694 22.3508 18.1828 22.4706 18.3107 22.643C18.8083 23.3139 19.6533 23.2952 20.1198 22.6029C20.2518 22.407 20.2715 22.2937 20.2715 21.7262V21.0744L20.5215 20.9933C22.7286 20.2778 24.0349 17.9649 23.473 15.7678C22.8802 13.4498 20.612 12.0181 18.3045 12.5056ZM32.6438 20.1716C32.4685 21.8491 32.255 22.8495 31.8295 23.9888C30.4409 27.7061 27.434 30.6209 23.6373 31.9301C22.7135 32.2486 21.4269 32.5242 20.6096 32.5788C19.7684 32.6349 19.7639 32.6442 20.3147 33.1853C21.8272 34.6712 23.69 35.5619 25.777 35.7973C26.2126 35.8464 27.7669 35.8653 30.3229 35.8525L34.2069 35.833L33.9813 35.5158C33.6106 34.9942 33.4543 34.5601 33.4208 33.9577C33.4025 33.6291 33.4225 33.3196 33.4715 33.1707C33.5161 33.0359 33.8068 32.5472 34.1176 32.0847C34.4283 31.6222 34.7872 31.036 34.9151 30.782C35.2021 30.2122 35.5591 29.1521 35.7178 28.3985C35.8817 27.6201 35.8816 25.8661 35.7176 25.0421C35.357 23.231 34.4322 21.5001 33.151 20.2383L32.6849 19.7792L32.6438 20.1716ZM18.9046 24.6458C18.6914 24.6976 18.3469 24.9872 18.2305 25.2124C18.0858 25.492 18.133 26.0438 18.3245 26.3127C18.6247 26.7344 19.3173 26.8652 19.7449 26.5811C20.0662 26.3675 20.2903 25.9063 20.2387 25.5648C20.1407 24.9165 19.5279 24.4944 18.9046 24.6458Z" fill="#858C68"/>
</svg>
