<svg width="44" height="44" viewBox="0 0 44 44" fill="none" xmlns="http://www.w3.org/2000/svg">
<path fill-rule="evenodd" clip-rule="evenodd" d="M25.1012 6.08081C24.9958 6.12632 24.8636 6.21665 24.8073 6.28148C24.751 6.34637 23.817 7.84819 22.7319 9.61888L20.759 12.8383L20.7408 15.1357L20.7226 17.4331L20.3576 17.4341C19.5045 17.4367 18.5092 17.7911 17.7797 18.3522C17.3878 18.6536 17.103 18.9999 16.1293 20.3588L15.5866 21.1162L13.159 21.1188C10.4206 21.1217 10.4222 21.1214 10.1438 21.5967L10.0012 21.8403L10.0001 29.5476C9.99911 37.1497 10.0008 37.2582 10.1277 37.5015C10.2104 37.6604 10.346 37.7931 10.5083 37.8742C10.7578 37.9988 10.8633 38 21.0726 38C28.4092 38 31.4825 37.9799 31.7232 37.9303C32.275 37.8167 32.7343 37.5692 33.1517 37.1606C34.1265 36.2063 34.2759 34.7921 33.5235 33.6407L33.3084 33.3115L33.5235 32.9823C33.8692 32.4532 33.9688 32.1075 33.9688 31.4361C33.9688 30.7647 33.8692 30.419 33.5235 29.8899L33.3084 29.5607L33.5235 29.2315C33.8692 28.7024 33.9688 28.3567 33.9688 27.6853C33.9688 27.0139 33.8692 26.6682 33.5235 26.1391L33.3084 25.8099L33.5235 25.4807C34.2759 24.3292 34.1265 22.9151 33.1517 21.9608C32.5279 21.35 31.9239 21.1256 30.8975 21.1229L30.3082 21.1214L30.2909 17.0068L30.2736 12.8922L28.2343 9.56306C26.4009 6.57004 26.1706 6.22171 25.9539 6.1135C25.6754 5.97435 25.3742 5.96278 25.1012 6.08081ZM24.4338 10.4987C23.8636 11.4296 23.4098 12.2036 23.4252 12.2187C23.4407 12.2338 24.3913 12.2388 25.5378 12.2297L27.6222 12.2132L26.5852 10.5116C26.0149 9.57569 25.5307 8.80908 25.5093 8.80808C25.4879 8.80702 25.0039 9.56781 24.4338 10.4987ZM22.6427 17.6206V21.1214H23.6006H24.5584V17.6206V14.1199H23.6006H22.6427V17.6206ZM26.4741 17.6206V21.1214H27.432H28.3898V17.6206V14.1199H27.432H26.4741V17.6206ZM19.7874 19.3992C19.4194 19.5118 19.0104 19.7565 18.7726 20.0064C18.6635 20.1211 18.2253 20.6963 17.7988 21.2846L17.0233 22.3542V29.2394V36.1246H24.1778C31.2222 36.1246 31.3362 36.1227 31.5843 35.9988C31.8677 35.8572 32.0935 35.4971 32.0935 35.1869C32.0935 34.8767 31.8677 34.5166 31.5843 34.375C31.3807 34.2734 31.2078 34.2492 30.6839 34.2492C30.1306 34.2492 29.9982 34.2287 29.7808 34.109C29.1345 33.7534 29.1345 32.8696 29.7808 32.5139C29.9982 32.3943 30.1306 32.3738 30.6839 32.3738C31.4614 32.3738 31.7303 32.2705 31.9503 31.8872C32.1275 31.5786 32.1318 31.3171 31.965 30.9969C31.7645 30.6121 31.4722 30.4984 30.6839 30.4984C29.9242 30.4984 29.6423 30.3869 29.4191 29.998C29.2495 29.7027 29.2475 29.4378 29.4124 29.1215C29.6129 28.7367 29.9051 28.623 30.6934 28.623C31.4532 28.623 31.735 28.5115 31.9583 28.1226C32.1278 27.8273 32.1298 27.5624 31.965 27.2461C31.7645 26.8613 31.4722 26.7476 30.6839 26.7476C29.9242 26.7476 29.6423 26.6361 29.4191 26.2472C29.2459 25.9456 29.249 25.6542 29.4285 25.3475C29.6516 24.9667 29.8993 24.8722 30.6742 24.8722C31.4622 24.8722 31.7295 24.7703 31.9503 24.3856C32.1311 24.0707 32.1307 23.7827 31.9488 23.4721C31.6539 22.9685 31.9826 22.9968 26.4209 22.9968C20.9588 22.9968 21.2046 23.0145 20.9014 22.5984C20.7647 22.4108 20.7582 22.3407 20.7399 20.8557L20.7208 19.3085L20.3887 19.3127C20.206 19.315 19.9355 19.3539 19.7874 19.3992ZM11.9148 29.5607V36.1246H13.5112H15.1076V29.5607V22.9968H13.5112H11.9148V29.5607Z" fill="#858C68"/>
</svg>
