<svg width="44" height="44" viewBox="0 0 44 44" fill="none" xmlns="http://www.w3.org/2000/svg">
<path fill-rule="evenodd" clip-rule="evenodd" d="M20.1952 9.0395C18.6326 9.17017 17.6831 9.55567 16.9624 10.3522C16.1653 11.233 15.8215 12.5579 15.8215 14.7492C15.8215 15.6566 15.8869 15.8891 16.2074 16.1226C16.4938 16.3313 17.0153 16.35 17.284 16.1614C17.7171 15.8573 17.7359 15.7955 17.7881 14.4981C17.8932 11.89 18.2171 11.3576 19.8608 11.0922C20.6133 10.9707 31.216 10.9707 31.9685 11.0922C32.9614 11.2525 33.4086 11.5198 33.6851 12.118C34.01 12.8207 34.0197 12.9914 34.0197 17.9863C34.0197 22.978 34.0096 23.1562 33.6869 23.8472C33.4843 24.2809 33.3261 24.442 32.9249 24.6236C32.321 24.8968 31.8506 24.9391 29.0343 24.9736C26.5695 25.0038 26.3554 25.0151 26.1287 25.1268C25.751 25.3132 25.6394 25.5144 25.6394 26.0088C25.6394 26.4022 25.6524 26.4415 25.8518 26.652C25.9685 26.7753 26.1638 26.9067 26.2857 26.9441C26.6537 27.0568 31.6711 26.977 32.3962 26.8468C33.9577 26.5664 34.9273 25.8924 35.4609 24.7162C35.9799 23.5718 36.0233 22.9821 35.9925 17.4857C35.968 13.1279 35.9638 12.9948 35.8303 12.3853C35.4894 10.8282 34.6884 9.83941 33.3954 9.37938C32.3877 9.02091 32.2996 9.01616 26.3123 9.0017C23.2843 8.99438 20.5317 9.0114 20.1952 9.0395ZM21.5961 14.4133C21.2253 14.5856 21.0516 14.8704 21.0516 15.3064C21.0516 15.7055 21.1655 15.9162 21.5115 16.1571L21.7155 16.2991L25.9827 16.2823L30.2497 16.2654L30.4448 16.0776C30.9851 15.5575 30.8957 14.7632 30.2598 14.4349L29.9871 14.2941L25.917 14.2954C22.0799 14.2967 21.8324 14.3035 21.5961 14.4133ZM15.4607 18.372C14.6176 18.4953 13.6056 19.05 13.0125 19.7138C12.6202 20.1529 12.3121 20.6892 12.1027 21.2971C11.9543 21.7283 11.939 21.8568 11.9387 22.6799C11.9383 23.5075 11.9526 23.6277 12.1016 24.0464C12.3451 24.7305 12.6164 25.158 13.1652 25.7226C13.5679 26.1369 13.7656 26.2845 14.2357 26.5219C14.5528 26.682 15.0049 26.8541 15.2404 26.9044C16.6982 27.2156 18.1858 26.7365 19.1957 25.6304C19.9576 24.796 20.2843 24.0084 20.3328 22.8894C20.371 22.0089 20.2558 21.4391 19.888 20.6891C19.2714 19.432 18.0826 18.5609 16.7194 18.3672C16.1783 18.2904 16.0143 18.291 15.4607 18.372ZM25.517 19.7352C25.1536 19.8943 24.9108 20.3254 24.95 20.7423C24.985 21.115 25.1865 21.4086 25.511 21.5594C25.74 21.6658 25.9446 21.6759 27.8721 21.6759C29.7996 21.6759 30.0042 21.6658 30.2332 21.5594C30.8775 21.26 30.9942 20.4444 30.4674 19.9218L30.2511 19.7073L27.9452 19.6945C26.677 19.6875 25.5843 19.7058 25.517 19.7352ZM15.7389 20.3675C15.0599 20.484 14.3787 21.0154 14.0612 21.6762C13.9136 21.9833 13.8947 22.0941 13.8947 22.6486C13.8947 23.1971 13.915 23.3188 14.0591 23.6334C14.7296 25.0969 16.6188 25.4359 17.7369 24.2932C18.5168 23.496 18.6129 22.1567 17.9533 21.2776C17.4274 20.5768 16.5709 20.2247 15.7389 20.3675ZM22.8255 25.1378C22.6108 25.2609 22.5321 25.3784 22.1833 26.0968C21.7367 27.0165 21.4619 27.4254 21.0135 27.8379C20.4362 28.369 19.6291 28.7301 18.6965 28.8749C18.4442 28.914 17.2468 28.9701 16.0356 28.9995C13.3113 29.0656 12.5617 29.1744 11.4686 29.6623C10.5026 30.0934 9.46989 30.9991 8.88069 31.9316C8.43605 32.6355 8.03446 33.5475 8.00382 33.923C7.93787 34.7316 8.73915 35.2617 9.42921 34.866C9.64392 34.7429 9.72265 34.6254 10.0715 33.9069C10.7614 32.4862 11.3188 31.8901 12.3637 31.4557C13.1375 31.1339 13.7203 31.0646 16.158 31.0045C18.4753 30.9473 18.899 30.9099 19.7893 30.6835C21.2571 30.3104 22.5617 29.3565 23.3849 28.0545C23.8193 27.3675 24.2205 26.453 24.2509 26.0808C24.3171 25.2693 23.5181 24.7407 22.8255 25.1378Z" fill="#858C68"/>
</svg>
